<mxfile host="app.diagrams.net" modified="2020-09-06T15:45:50.211Z" agent="5.0 (Windows NT 10.0; Win64; x64) AppleWebKit/537.36 (KHTML, like Gecko) Chrome/85.0.4183.83 Safari/537.36" etag="EPxMCzyV5g9te0g5DPBn" version="13.6.6" type="github">
  <diagram id="Y0uzFFgUtzR7KN9k-neg" name="Page-1">
    <mxGraphModel dx="3407" dy="2619" grid="1" gridSize="10" guides="1" tooltips="1" connect="1" arrows="1" fold="1" page="1" pageScale="1" pageWidth="827" pageHeight="1169" math="0" shadow="0">
      <root>
        <mxCell id="0" />
        <mxCell id="1" parent="0" />
        <mxCell id="FfI-ePWVMSBxA9gAXKT8-16" value="" style="shape=image;verticalLabelPosition=bottom;labelBackgroundColor=#ffffff;verticalAlign=top;aspect=fixed;imageAspect=0;image=data:image/png,iVBORw0KGgoAAAANSUhEUgAAAU8AAAEkCAYAAACv/rNrAAAgAElEQVR4Aey9ZZAdx7Iuen69uPH+vYgX70acG+eee85mM/M2M8sWWGCBmUmWZYvNllnbzLZkkMXMFo00GmZpGDQoZltkO1982etbSpW71+qeWTPWXnsmoiOzsrKqe3VlfpOF/W/S/df9BrrfQPcb6H4Dkd/Av0Uu0V2g+w10v4HuN9D9BqQbPLuNoPsNdL+B7jfQjjfwu4Hnpk2bZO/eve145O4i3W+g+w10v4Hf/w10OXgCNL+aNFG++X6yfDd1ikydMV1mzZ0j8xctlBWrVkpWTraUlpbKhg0bpKGhQbZs2aIg+8svv/z+b6v7CbrfQPcb6H4DsTfQ5eA5Z95cGTf+ZZk2Z7bMXrhA5ixeJHMXL5J5S5fI3CWLVTZ19iz5esr3Mmnyd3p9M2WyfD99usycM1sWLFksy1eulMx16yQ3L1c2lJfLxo0bBaC8bds2OXDgQHfjdr+B7jfQ/QY6/Q10GXjm5efJi6+Ol7EvviBPjR6l4Pjd9GkyecZ0IQX//cwZMmXWTAGATp87R2bMm6uAOm/JYpm/bKnMX7pEwAN4Z86fp7oTv/tWvp4ci2RnzpBZc+dqJLt42VJZlZEhefn5Ul5eLjU1NbJxoxfNdoNsp9tW9w2630Bav4EuA8/FS5fIgHvuliEP3K/g+c3UKfLttKkKnABPC6AAUb8LwIrLgiwBdtaC+RrFAlgX/LDMuwC2y5ZoZAsQ/m7aVJk8fZpMmTFdpgJk582V+QsXypIflsmazEwBwBeXlCjQNjU1yvbt22XPnj3y888/p7URdP+47jfQ/Qaiv4EuA8816zKl/113So++t8mIZ8cdFXlaoCQ4UuaCqptPQLUUUSuGBUARxYKfMX+ezFm0UKNWRK8Lf1gmi1eukB8yVsuy1atk8YrlGtXOWbhAZsydI9/PmCZTZs6Q6XNmeSC7aKEs/WGZrFy9SjKz1klhYaFU19RIY2OjtLa2KNAeOnQoegt0l+h+A91v4J/yDXQdeGauVfC8sU8vBU836iRIspsOoNNr4QKZvWC+dt8RZU43oAhgJGgSbBmVAjgJngRQlAeQ8kJ61vx5gqgVQwC4CLALly1VQF26aqUsz1gty9dkyIq1a5SHbNEPP3jjszNnyIw5s3XSa/b8eTpcsGTZUm/yKztLikuKZUP5Bh0yaGlpkZ07d3aPy/5Tukr3Q3e/gaPfQJeB5+o1axQ8b7qtt4x87lntPjOKBHAi2nvhtVflwquuFADsgLvulPsff0yGjxmt8rfef08++uJzmTj5O+22A/gw7jl30UJvwmnxYg9sFy1UsAUQAogVcAG6sYuAinsDVCGnLvQVRBfMV0AlsILOWTDfuxfuhwh28SKNVBct/0GWrVqpF0B2VeZaWb0uU1ZnrVOwXbJyhcxdvFBm4j4Aazx3DGSXLV8mKzNWy7qsLMnNy5OS0hKprauV1tZWXWWAIYPuVQZHG2x3qvsNHCtvoMvAc83atdL/7jvl5tv6KHgCMAmeiBYBWs++8rL89fRT5C+nnSJ/OvlE+a/jj5P/PO6v8p9/+6v81/F/U9nxZ54up11wnvz9ysvl6ptvkp4D+ssdD9wvjw1/Ska/+Ly8NuFtee/TT+SzSRN1TBVRJiLX+ZhwinXX0WXnxBPGSDHbDyDmZSNRgDpBFV16vWIAqsAdA9J43sIFHrDifhh/xT0RxcZAFhHsyhjAZmRnCS4ALoAXOgBlgCwBduGSxTomu3zlCsE7zMnLlbL16zWSxVIuAC2i2W6QPVZcqvs5/lXeQJeBZ8ZaL/JU8Hx2nHw77bfg+eJrr8pFV10h5192qZx76cVy7mWXyLmXXiLnXX6pnHPpxXqdfclFcsbfL5BTzz9Xjj/rDPnb6acqqP73iccr2P6f4/8mfzzxePnzKSfLSeecJdC/5Npr5IZePeW2IYPk3scekSdHjZTnXx0vb3/wvnzy1Zfy9feTtYsPAASoAsSWrlzhXStWaBoRJkAXYAhQBMjhQjcfIErwZDRsdTRKjYEpAZX1AFh5LfphmSxZsVyHCBRgs9bJmuwsWZOTLZm5ObI2N0cystcp0KLMvEULZf6SRbp8C0u4sLoAIIt3jcmvouIiHTKoq6uVzZs3Kcj+9NNP/yq23f07u99Ap76BLgPP1WsypN+dd+iEEbrtbuSJ7vS3kydLTk6uLFmyRGbNnq2L6d+aMEFefu1VeWL4U/Lw0Cek3+BB0qNPH7mmx81y6bVXyyXXXi3nXHyRnAfAvewSOf+Ky5QH2AI4T//7+XLKeefICWedIX/ViPYkBdn/Pv44+e8TjlfgPe700+S088+V8y+/TK648Qbp0a+vDLr3bnl42FCNkse//ZZ88Nmn8tV332q0jEgW4LdkxQr5AWOiq1frBX7ZypUKgABggCGBkWBJ0GXXH3J7UZ8UeYuWLdU6AawE9R9Wr/IiWABsTrasy8uVrIJ8yS0q1AtpRLQYUkBdAFdci5YukWUrlsuK1at0hUFWdpYUFBboCgOsl21pblag7d791al+1115GryBrgXPu+5QYBrhA55TsK5z1kxpqG+QjQ0NOovd1NSk3dKW5hZpbm6WpsZGqa2plcrKSikqKpK1mZmybPkPMmXKFPn622/lzQlvy8uvvirDnnlG7nnoQRl8z93So09vualPL7nkmqvkoquulPMuu0TOQzQbA9tzL7tUQfbMiy9UoD353LM1ov3LaScrsP7hxBPkDyceL3886QT5y6mnaDR71kUXysXXXC3X9bxFbhs8SO5+6EEZOuIZHXZ46/135dOJXwmWYs3AelN0uxFNAuzWrlFAA12BSSjM9K86AraLly+LAy4jVFBcjEoJyqAEU1DyAFXUS4p7YQwWEWxWfp7kFBZIbnGR5JUUS15xkaYBtBlZ62TJ8uWyEJH3D8tkKYYZALKrVsnqtRm68wvvHJsSKqsqdWMCdn9hXPbw4cNp4ArdP6H7DUR7A10Hnhle5HlLv74azWG23Y55KnjOnCFVVVVSUVHhewE0q6qrpLq6Wmpra6W+vl63cDY3NSm4YvyvrbVVoyfI6uvqdJtncXGxrF69WpYtWyZTp02TL7/6Sia8+66Mfe5ZeWbMaLn7gftlyL33KNBe16OHXH79dTqm+vcrr9DhgyPDBpco0J5xIYYNzpMTzz5LjjvjdAVVjNECYHH9+ZSTdDgB0SyGHS6/4TrBRNntd98lDw59Qp55dqy8/Obr8u4nH8sX336j7wHdfgAkolcCHkAP0SMuyHABhAGMnKQCJaASYG0edAmkLAe6AmOvAPEYxT0AsJmxCDanqFDyioulsLRUCteXSWFZqeQUFsra7GxZkZEhy1asUIBVkF2+XCe+1mSulezcHMkvyNcttmir5uYm2bx5s2zdurV7lUE03+zWPsbfQNeBZ6zbTvB0u+0Az2kB4AnQjHoBhHFhVxGAFpMruBDNomva2tIibW1tShs3bpS6GNCWlJToxMyixYtlxqxZ8smnn8q7H7wv4154QYaPGin3PPigDh307N9Prrn5Jrnqphvkgssvk/Nj47IAWgwfnHXxRXLWxRfKabFhAwAtxmf/curJ8kcDtIhmTzjzDB3H/ftVV8rVPW6SXrd7k2CPPzNcxr70orz53rvy8ZdfeNHsvLnazQfIAvAyY132zJwcWZuTrRdAkMBLgGSUC2BF1x/pFWtwZfzmWp5xRIbyqzMzJWPdOlm9DmOw2YJ7ZefnK5jmA2DLyqSkfIOUbNggRWVlkl9SIrmFhTqUgAgbQItrxerVuuMLGxLWrlsreQUFUlpWJjW1NVJXX6f/ABHN/vjjj8e423Q/XvcbkK47ks4b8xwit/TvK6Oefza+S4jrMxU8Z0zXqNJGngDAqMAZVd8CbV0som3c2KhAy2gWES14AC0iXjxjfn6+ZK7LlPkLFsiMWTPl088/l7f+8Q957qWX5PFhT8qDjz8m/QYNlN4DBsjVN98ol113rVx09ZUKtBhfRVSKYYOzMAl24d/l9Asv8MZnzz5T/nraqfLnU72hgz+ddKJGs4hyTzn3HDnnkou9SbDePaX/nUPkvscelafHjpaX33hd3vvkY/ny269l6qyZ2t0HWCrI5uZIdkG+5MQu8Fl5uToR5YEtwDEzHo0CXHEBPFdlIgJmFGz5tQqsOiyQlSUZuACwWVkewOq9CuIRLMC1rLJSSisqpLSi3KPlG3SMVkE+I0NWrVkjKxENY9lXRoZkZWdLfmGBrjBYv2G9LuXCP0Ds/tq1a1f3kEE3iv1ub6DrIs+M1dLvziFya/9+Mur5534LntjPPmO61FRXa8QYFQDbq0/gDEMxXMALEa0OG9TXK8himADguqmtTSNagC1ktTU1CrR5eXmSmZkpixYtku+nTpEvvvpKXnvrTXlx/Cvy+FPD5P5HH5F+QwbLLX376MqAS6+9RifDsOrAi2axAuESBVqA7KkXnCcnnXO2YOmWAu0pJ8sfTzpR/nTySRrdnhBb0oWyV954g/7TGnL/ffLo8GEy5qUX5Y13/qHrZjF8gqVZ6PqvWutFsgBWTDyh247IEuOkAN3svDxZl5urwIgolIC6cq0HogRPAujarGwFUoDpmnXrtMuP8VXWAZpTUKD3Kigp0aGBYgXYCimvqZbymhqprKuVitoaKauq1HyM266KDTdgCCMD0Xf2OsnJy9PhAkx+rS/foD0JbEpAO2DI4ODBg7+bk3XfOD3fQNeBZ6zbfuuA/t4i+dghIEdFnjNndCl4hgHMduvEgBYgGwfa2EQYnLq1pVVPgrJjtARabP3EGO2iJUvk28nfyZcTJ8obb7+tQwdDnx4ud95/nwy65265uU9vub7nrQqyWPeKaNYbn/WGDbxJMC+aPfGcs44CWozLYsgA4Ito9uyLMQl2lVzX81a5bfBAueeRh2XY6JHy0uuvyYQP35fPv5kUi2aXaESKsU8AH8dFizA2WloqeUVF2mXPyc+XrBjQoqufsQ5RaZYCKJZdoesP8FQwBaAiCs7x5BohA7BjlwfkRZJfUiwFpSVStL5MI1cALIC1qr5OqhrqlSrQVlao7mqMF69dIxnrMmMgm6Vba3PzsSGhVCoxtFNdpUCLf3yIZruXcqUn0HXGr+oy8FyZkSF97xgiPW/vLyMDuu3TZ87sFPBsNwDGxk07uzyiWdyDQIvxVywb0n3zANrYRJgCbUuLRrSYDCsrK5PCoiJZtWqVLFm6RKZMnSqffPaZvDlhgowaO1bHaO+6/z4ZcOcdCrTX9LhJrrzpBvn7FR7Qci0tlnSdedHfdXz25PPOiU2EnSZ/OeVkHS4A0GKZF4AW62sxpotJMJxTgJ1gDz+JJV3PyatvvyUffv6ZfDNlisyaP19XAGAWHyCLyLJkw3opLS/XCzzGRzERBVDEGGlWLLLVVQEFBTrMEAdSk6YMqwW4NMsCrIJsWamOw66vqtQoFhFsdUO91DY1Sn1zk9Q2Nkp5TZXe2wPubMnIyhQA7tp1mZJXkK/DBaWop6REew/oaWCcHOOy3RsTOgOO/rnq7DrwXL1KwbPXwAG+O4ww5okJmuqq6pSOcXY28IWtn9196JMnaIatg3ooB6DFRBiBVpd1xbqpONt0U9sm7bJijBZ668vKpKCgQDIyMmTu/PkyZdo0+eCjj+Ttd9+RMc8+q+tosbzrtoG3S68B/XWMFqsOMBGmwwaxTQqYBIsPG2BZ15lnyN/OOE3HZzWaPe0UnRjDBoUzL/y7brfFmtzeg26Xu8ySrrfff18+mzhRD19ZsHSpjq0CFAGmZZUVsqG6Ssqrq5RuqMI4abkUb1jvgW2xt8wK4OkCqAVT8ABSe6H+I1eZFJdjHLZCcI/y2hoF2PqWJmna1CZNba0KtJX1tfocBSXF3oRc1jpZl5MluQX5CrIFhYVKy9aXaSSLf3yYnMQ/ux07tnePy/5zYWLop+1C8Fwtfe8YLD363fabbjuWLE3FyUezOw6eBJhjiVqwbA9vf4stD7lNgweoWhlBluOzcGysmdXx2U2bZPMmD2Sx+oBAi7NPc3JzJWPNGpk7b55MnT5dPv38M3ntzTdk7PPPyyNDn5AHHn1U+g4aKLf0vU23yV563TUKlFw/C5DFkq7TY7vBTjj7TPnb6afpeCxWHGAHGLbhQoZNDNC/+NqrdbwXPRRMgg3HJNibb8h7n34sk77/XmYvWKCnYKHbDwDExFNFTbWOi3JsFF15gCGAFt17XOjq24tgCuAFb/VQL9Ioj+gYFBcBHcMCNRsbpKGlWcG1efMmaQbQbmqTxtYWqdlYL8XryyQ7P0/yMOyQn6cgiyVcOL+guLREMPFVgWV3VVXS2LjR2/21Y0f3KoPQsHVsKHYheHqRJ7rtmDBylyphh9HM2bPU+WFUdgLIggd55jN9LFILYqnmXZDsaP2oj0CLaBaRE8BUgbalRSfCALSYEAPwNjU2SXVVlaxfv0FycnJkdUaGLFi4UL757jv55PPP5OVXx8tzL70ojz75pGDoAEB7Q69b5bpbb9Ex2guuuFzOvvgiOeeSiwSbDk6/8Pz42llEst75Bifpsi5sVPhTbO0sNjEAaAHWN/TuqUMSDzzxuDzz7Dh5bcIE3W6Lf8bYZostrhxTxVBAUVlpHFQBiIhm0a0HMILHciuCJUGXUaoOOWCFgC7JWq+64HGVVZTrhUgZYF5VVys1DfVS39SogNq8uU1at26RTdu2Stu2rQq2dY0bVbdkfZnkY1cYJuRyc3WooKCoUM+VxYlcOMcA7dHU3KRDBmiD3bt3Hxvo8S/+FF0KnrcNGSx9Bg+U0S88/9vZdoDnnNnxMU+AIQDyWAFFgBOeJSxIRdENW+exokfg5rABgJYRLbqqAFgCLSbHsDMMqygwdIBT/ZcvX65Ai11hANrX3nxTRowdI48OGyaD77lLVx1cf+stcuUN18uFV16hAIsxWd2ccAE2J5wpfz39VF1dgLMM/uOvf5Z//+Mf5H/+9/+R//c//0P+n//176qDlQWPPDVM3n7/PT2HANtrcRi27tqKnVGApVxYqoXJKQDn+spKDwAxCVVfp1EtwBBXZW2N5qGLr6BLwI1Fqutj3X9S6KkuhwVi4Ip6UF91fZ3UbmyQ+qYmjWJbNm+Wtq1bZPOO7Qq0rVs2K9BubGmS8qpKwbABgLawuEgAsLjwKRoMF2DXF07kwjkGXjS7WUG2e/dX5yF8F4Inuu1D4uD5vc9s+6w5s3Vpz+8BmGGBicARVv+fUY9RKH8rqftbqOfK3TT0ED3p0EFsxQGHDjABA7DFBaDFJBlAuaS4WIHhhx9+kLnz5+m5B+++/5688vpr8tTIEfFzDrDa4LJrr9Ett6edf56CJ0AUB8HgnzTOJxj38kvy5rvvyMB77tbJLHThsSrgqTGjBZEszke4vtetapt3P/yQPDHiGS2jW20nTZRps2fp+QAr1mZIdkGeDhkAIAGAAL/axo1S37hREE3iggyRpwVc6OvkFQC0ulpBmJEqKC9GriwLyih2Y2yoAAC7afs2Bdltu3bKtt27ZMuO7dLY1iIV1VVSiqEGjO1iTLiwQPILC3UzAs6VBciCAmRbWlt0GRe+/dW9MSE6yHYZeGLBMw4GwV7wRJEnlut0Jni6jp0u6URAxryuolHeKZ6J+uAZzRJodUdYbMUBolleGKNtqK/XspgNx2J6fBRw/BuvS+9BA3UNK3ZmYbkVDnoZ+fxzOlyELawKWrU18spbb+iGAxwmc/YlF+tqg5NiZxvoiV1nnKYrDACwOMnrgisuk8tvvF632va/8w49b/bpcWN0XBYHx0z6frLMWjBPcFj22uwsHU9Fl766vlZBFeCHcVFQXA3NTdq1BzhWxyJbRqWgltex3ZgMEauWqa/T6BU8ABvAjTpxD0StANmtu3bKjr17ZNe+fbJr317ZunOn5uH+eA8YNgDQlq5fL2VYY7thg5SUlSnYVtdUS73u/GrStcxYZbBv377oKJOmJboMPFeu9iJPgifGpezedp0w6oTIk46ZzjQIFAFEzLM8Ze2hYeqhDt45ed7LTVNOmizf6kE3DrKNjQqsU6dP03NdsaX0g88/0+9lDbr3Hj3TddqcWTqrD0DDLPu8BfNl6bJl8v3UqXqC17sffqAfKXz25Rfl0WFPyr2PPCR9hwySHn37yDW34BSva+SCKy/Xrbc4UxYTXVi+BaA97szTBJNiWMqFNbMXXX2VnvzV6/YB4m1OeErGvvSCvPHuO/LJxC912ArDB9hZhSEDjJ0iyqxvbFRgbW5r1S47JqPAb4wBLSNbjXhjES6BFOVxcTgAcgusjIwBsFhJgMkuBdidO2THnj2y68d9svunH/UC0G7fvVufAcC9obJCyqsQ1W5QoC0qKZbS9WVSXlEhNTXV3pBBrXeQ947t22X37l2S7p+l6ULwXKXnaeJMzVEv+Owwmj1LZs+do912OF17os9/JoAkCLgUv8GVdae9yayg9wAQxYf7ikpLZMIH78sz48bqEYGIBp945mk9jAVbSLHdFOtOMbaJw05wuDTGaHFqF2lzU7NOlGEyrLKyQk/vwu4wb0JsgcycPVu+mPiVfPLF5/Lqm2/ImOefkyeefkpP1sIxhjcTaK+7VoEWu8IAtIhecSzicWecphSbFk7/+/m6a0wnv3rdqkB976MPy7BRIwVn2+K3fPH1JP3aweLly3UrLSa9AGYAT0SPLZs3SSuuLZuVEmwRfeICUDLC5XACABWTWZQf4REJe9Ew6kZdGIdt2bxFtuzYoWC6c+9e2fPTT7Lv4AHZd+CA7N2/X4F38/btsrGlRapqaxVk8Q8KEeyGinK9KjBOvGG9LuVqbGrUyS8sqdu6dYvs37//nzI27TLwxNFmAM5+dwz5zfZMXaoE8Jw3N+mYZxBAwrGC8o4VeZDzd8uDwZH/TEj93hWOKcRkCpYr/ePDD+TpsWMUPLFgH18UwHmm63JzdfspJocAnphNX7lqlY7F2joxbAQwxhgtro0NGxVMMemFcVpvd1iLUkyS4eLOMGxawPmoOF1qIQ7KnjdXVx+8//FH8uY7E2T088/ps9336MO6SuDW/n3l6h43y2U3XKdAi80KAFoAKw6SQVQLGh82uPJyueLG6xWgB9x9pzw49HH9R4HlXPhHga22OC8WZxnkFRXqCgBEoQRZzPZv3rZNNm/bqhNSm7Ztk7YtWxSAWza3SVNrqwIqIlSAKAEYoNiIcx003xtyQF5TG9bCtknzJgD4ZkF9CrK7duswAcD1x4MH49e+/ftl1969smnrVqmuq9Ox3/LKSi+qrazUKHb9hg1SVVMtdfX1+plw9CywugPjssfa7q8uA098dbLP4Bh4OrPtCp74XAbAEzORzs6eYwX8oj7HUU5putBW3lk8AIAX7+GmKe8ojVIvdUGj3DdQP/Y7sYMJEzITPvhAv3ulWzKz1kluQUF855Lusc/Oiq/jXLV69W/AM8wzYSyQengudzIMk14AWZzeRcDFOQdYlQAwwDpaAC0i2rWZa+WHFSsEu+u+mzJFPvj4Y5nw3nvywvhXZCii5icelwF3DpHeAwfo0AF2dl1w5RU6dIDlXRijBdhiyACrEAC+WAJ20TVXydW33CzYlMLP1OCErrfee1e++OZrjWbxfS1siWU0i0gUEezm7dtk+65dsn33LqXbdu7UsVJEl4h0NbrFcMIm8JviIKpgGgNZAG1LDFRBvZUEWxWsAbJbd+yQ3fv2yd6fftLo9cDhw4JTYQ//+quAh3zbzh1Sg5PQWr0T0LCKAO9P/7HV16t94wu2VVWVusIAkWxXri7oWvAcMkgXyuNbQ/zKJenU2bP0PzWMkeAZFayOBX06VWdRvB9efvdgXkepWzfroxxpyzPfyoPyrW5HeNSP8nCmguIiKauoMODpnRKFiRvuo8c4KBbYM/JcndE+8OTvikr5rBynRdSKCTGdFItFtXrwd1OzHgiO3wWbLsPC/eJiWbN2jQItIlocLvPlpIny5j8m6PkDw0ePkoeHDtVzaW/t11cP6r7s+mvlwquv1M/XYFeYAm0MZE8+9xxd+oWttlwzi00sOmwwepS89Mbr8u7HH+kkGDYnYMgDW2ixlKsO/xw2b5Yt27d7Xfk9e2Tnnj3afQfoIvoE0CLKZXSLyBQXwRYUESgi3zbQGA8ZLtSNcVhMcB38Ofiw7Z8OHpSdexDp7tVTwnB2bFf9dSF4rtbIs++QwTLmxRd0ssidMJo9F5FnrRoMAPRYAMOgZ4jqOKwnajnqB4EMHIxOGaTjylnGlf8zpvFbcIxgXmGhnieKbjvGDPU807VrZU2W9/0nLJLXg0lysuNjngBPzNjjd+M9W2p5tkFXUbaD/rbYhoWjgFajWu+MA0S0GFLAWQd4vvXYUYVzArKzZfmK5bJoyWKZPMUD2nc+eF9eenW8jHx2nDz4xGNyx/33Sa8B/fQwmMuuv04uuOoKOfvSi+W0C87XoQJEtCedc5accv65emQiViVgtQHGdTEJ95CeafCsvDrhbT3TAMsP8Ulu/LPC8YNYJ4uhAIAoolcALKJNdN1x7d67V2Xbd+3W/C3bd8QBFeCMcgDXPXu9Gf5ffv1V9h84oGD54/6fNEJFnQDs/YcOy/qKCtmSjuCJb+ZgzBNLPBB5AjiPAs/Zs3TPNRyBQHMs0I44DJ2gmx6JllP9LggwBM8JH36gM+zeAc6Z3ilOOTmSVZCnx+NhxxF2E2HME5NABM8wzwVbSKbXEXvpSFm+B25YwNABgFWHDWLDB0hj1xh0EJxgphwneGErLobV5i9cKNNnzZIvJ34lH3zysa6pBdA+MuxJGXLfvdJn0EC59tYecvkN18dXHeBoRB4mg8hWVxtccpG32sAOGzyN1QYv6iTYV99+o6sfcBB3dkGBgh6iWUSmAFl25388cED2/PijHP7ll3gw+auI7Nm3V1o3bZJdWIK1d68OAUCvrHyDHtoSV+5kpssiT4InJoyCwHPO/Hn6H0/1g+oAACAASURBVLQro86OGGyissmcLJ3z4chd+ftwv/widtvfV/DEmaK4cKYojs9D5IkuO/ac66n35Rt07z660Kl+VtgF66SNMG0p87qCIhCx98Fz4L0p2HLjQuwrCwBcXABafE+ME2KlpaWSnZOt7w3HJc6aM0cmfvutvP/xh/LaW2/JyHFj9RPgAFqM0V57Sw89tBvnHeCwbw9kz9SlXYhqAbze122PfA/s3kce0THrV956Uz78/HP5bto0/XICPrKIcwg2NjfL9p07Bd11jI0i6tyKpVH79qUveC5ftVJ6DxmYJPKcpw3anoiTgAtKnvVYo0nGw6hcHRoeDR/55En9ZMxLB+oCItLJrrC/260b5aK8T5RH5IkJo3c++lAXxq/J8sCTZ4fixCZEnQBRjHlinSc+0Vxfl1rwDHonfBfMZ5o0zO+FTmdc9BM/WlNdox9dxHPjH03844wmsuXQAYAYPUdMiAFosRUXh8ss/eEHmT5zhkxSoP1Yxr/5hq48wJcWBt59lx6XiC/hYgsuhgm8rbcnyH+dcJzgk+J/OOkE+fc//UG/eoszDv50wnF6Shci4qLSMo1OEXliHWpajnkCPHsNul2wxAI7jNztmZgwwqJljN34NWJYWWcYFw38X5XS4TtC7btLVA/0kG/1ydtyrgwTRjhR6d2PP5YnR430TrDPzvIOBsnN1bNBFUhzc73Z9vINgk/DdEbkyWfrapoq20/kawxMSK0ufy/aCX7MIQSMyXJSjEALEAbQVlVXS2lJiX7SBqsf5i9coF+UwJkHb7/3rox78QV5eOjjclPfPgqs//Z//w/5t//xf+mwQO+Bt+uRhlgCtf/QIV1junnzpk7urB+pvku77dg215/gGRvz5NjntDmzZf6ihaHBE4bChkuV0bj10Bi6kuIZEt3PAojlWYYypBPxNp96nUUBUKmum6AHCkfFgRk4A/Sdjz7SCSN01dfkZB355Edernbf8ZE8jHeWVGzQ2WuNlnyiaPt++G6PRYr36j4X7Rhy8qmg9LdUUjwXfgPaUSfF4kDrraXFNlzkYXLqoWFDdV3r//df/6lnD3wz9XuZv3Sx7Ni9W346dEjXjqZ35HlXLPI0E0YAUIDngkUL9UUmapxUGAHqcA3uWEi7jpBqwEnH+gie+BLn+opKjTyHjRyhkSd2E+l4J06ox7fp163TcU+OeWIxu0ZAPuCZ6F3BVmz+sWA7Qc9gbZ18Mh+C/4XRSeSnUfM43OZSPsf1vXoKDtDGVtb/9ac/6NGDeh5rcbFOMu0/fFhq6uvTtdu+Sg9swLfLR8eWKnGNJ8AT3XbsyoBR+r14vsT20CDD6kq562w23c0nHz/FO0J7+b0rACjAs6y8Qt77+GMZOvIZ71PJmZkKohjnxAUgBYjquZ3l63WBelDk6XefqLKutK+O3qs9fuXnp6mUAUj5XDfd1lte/8cE/ef3H3/5s3zx7Tf6/SqMc2PBPSaQaurq9GDpIx3rzuW6rNu+fOVKPfIL4DnmpRdkyqyZv1mq5Bd58uVFpR01pijlozqVqw/nd2VdkcZvtPdx08jTyA5d4056xkT1+uX5PQ9kGnlWVsq7H30kQ0eOUPDU2XbMtOflSXZhvn5CAxNHevBxRbmszczUcTn7Djqbj2JXna2L3xp0D+tvAESb9uNTCZq2Ljwf0rf06yuv/WOCrMvNkf/917/IxO++1QNQcDIUZtyxrMkDzzRcJP/DyhU6Q6bg+WIQeC7SdXd+jZNMFmQEnSnvbEdLVr8fuCQrY/ODylMO6l4oz3y3LleX6bB61I9KET3qmGcVxjw/1DFP3YqZtU4XbCt4xmbbAZ6IPLFTJnOdB564n33G34PvTDvtaN3JfM/Nt+DXUR7PjjrwyXIsxkfP4X//7S+Cg61x0Ak+i0LwrK2vly1b0hA8danS4IFy+z136Wy7jTzZbcduCCxadhvDpvEykSa1ht5RIwlT3t4v1Tzun6xOP2BBGQIAKeux+gAZmwYPmZ/c1fNLhy1n9SzvV2d7ZLAZzLZX1NTIe598Ik/GxjxxCIguT8rL069ssvuOpUqIPrGvHJMUUe5p3zXfcWfQMLbYVTr4fbwXfRGARj6IdhQ4UR73JXhi7Sfa8/8c9zcFTxxgglOcdMLo4CFJW/DE4Qf4giJO88b2TIAnv9nugedsWbjYHzzZcJ1NO8MJwtRpnRf6Ng3eT+bqdGWav6kz7xkaZBvq9R9uQXGxRiHvf/qpgmdmjrc4HqcpweEw0aCfNs7L1XWe+G4Ruu1RwdPvN/N9dCbtbNvvSP0AzyAw7SiA4p2ijp79+8n4t97SNvyv4z3wxGlROL8UkSfHPNNyeybAEx9/I3gCMO2Fw5Bt5NmRxgxTtjMNPUzdfk7YVbJEwGTzyJMmej7oUI80jL6frl9dlJGybqYBnljn+f6nn2i3HaCJZUkET0Sd3jpP72AQBc91qQFPPgvbHfZHvito0P3C+EGqdYKiUAJsVDDF8yl4Dugv499+S7Lz8wXg+eW33+gB0QBPb8LokNQ2NKTnbPtR4GkmjACgiEKnz5sri5cukYb6hngXIVUNCwNGXa4hw+hdWSrSrJdO1ZkUzxumfoKMS1E2SIaoDJeb7yejTqI86oAG6fG3WN1EPOrBhfMrMY75QQw8dZ1nlneikkad8dl2b4cRwBNjno0bG/X94R68d6ppKmwq1XWkyrfoV259Fiz9ADUsiKLe6uoawYn8AE+c7PTfJxyn57Tiu1EY88TJS4g86xoa0nNvOyaMeg1Et/3o2XaC57S5c2TJsmWRDmpwG8xNp9rg4FR+daba2VJVXyLQSZe8OHjGjkt7/7NPve2Z2IONdZ05Obq7CBNFa8Hne7Pt3pinB55h30Wq2sXPhn4PmesvnZX2A0/KkoEo3gt0sFcehz7nFhZ44Pn1JKlvbpTKmhpd54mDlzHmmZY7jJZpt32ADLz3bj1dhRNGAE+MfWKd5+Jly7yDCMyZlYkalA3g6qTaEFPlNGHqwbMn0wtydpYLiuqCynW2HM/VmffY2NioX4jcUFUl7yHyHD1Su+xYJK9neeZ52zPRddfvBeE764g8s9bp1zpT8Wz8jWyDRBT3Y77b3qm23WT10XeoxzQpfIx8eyjqZTn6ayLqginKQr/PoNvlxddfi4Pn519PkobmRqmqq9EJI2zR9MAzDWfbly5frnvbcQ4gjqYCWBI44+C5dKl2wewL54v3o2zwVFIadUcpnilMHXRcq0tZV1M8Ax076N6pBma/+hhNBj2DlVM3Pub52Sfy1JhRCpqYbc+MTRjlFhXqQnkuVcJWznVZWSkDT/tM4G17JuLD6Fr7hh/YdFfwfr6XCpkLoqgTMgAo8ygDeL7w2nj9ZPQfTjxePp30lX4yBGOeONPzp4OHpG4juu1pCJ7Lli+XnrcP0AkjBU+zSB4gigmjJcs88AxqmFQYCgwZ9SQy6FTluQ51rKcJRKT2eSnzo1bP8n66fjKUwfmTfnmU2Xotz/x8LFWqq9VDeZ8aPUoXU2OCCNEmAJPgiXQJPkoG8MxepwcJ2/o6i0+VTdEH4CPku4oG+aWVA/RsOgzPMgRMS/HekL5t0EB5/tXx2o4Y8wR4erPtdfHZdoBnWu5tB3jeitn2WLfdRp4AT+xtx9FV+OAWX3h7jQIvHGVTZbBuPXAwyDrL0aLUD/CAvh8lsJBSLyhNeXupW39760lWDvfhBV1M+hQUFekH4D784jPttmfl5ersOmbbAZ7oruuaz9iRdABPfKwNoM26uoq69tSRdHt9pDPK0W87Ql0gxbvBeaJ9Bw/SyBP/JAGen3z1pWxsaZKqujrZFluqVNtQL/iOUVf9ddn2THTbsVRp8P33HrU9E8BJ8Fy2Ynm82x61cfGSWaYjxpiobFc5V6L7WGCBnk3/K/IAP1zYYYSlSviKJLrtdqkSxzq5bAk7jBQ8Y932RO8tUVv45cF+/OSUJcqn7VldysJS+sCxQDsCoigLIMXvAI/P97zw2qtSWFoi6LZ/9MUXGnlW1tbKttjedoBna2tLV2GndCF4/iC39O+n4DnupRfje9sxcYRrxry5+nErnF4dpeHxYqEf1riC9GCwyKPhdgWF0/I+iRyYecm6tmHqI9iEqcveN2w5q0ce9ZB3Ke8RRF19m2a9oLkF+YIJo4+++FxPksdYJ7ZoYslSPPLM9Q5DJnhizBPnTCa6t81DWzFteStje3aEoj63fJDdhpVH8anO0G0vkOL34dzPfkMGy3PjX1HwROSJdka3vbLWm23H3nYsVWpra01T8BzQTwbd500YATAxUUTwnD53joInDCds44U1nCA910DDplFfWF3qWYegs3UWtQADHvdxZX7psHosC+Ah3xEapR5fXazzLCyQ8urq+Jgnxjt1qVJ2tnbZMeaJbjuAtAyz7VWVOmGEw3k7qx386qU9tJcqmKQgWKBPuIFHWN9rj157ABTvCee19r9jiIx75aUjkeeXMfCsOTLbXtdQL21tbekHnkuW/yC3DugnQ+6/Vw8yxZgnwBNddgAoxjy1244TpkOer0gDCEvba7Ash/uQB/VzjiAZwCUoL4rcBSmUdWX/ammcVO5122vkg88+k6fHjtGJIp1tj63z5IQR6PrKCtlQXa1fmNRv9cS6/lHaoaO61o46wtP2UQf5VNGwfhhFLyqA6m+JgSe2dReWlWq3/cPPP5NGbM+M720/KHUbN0pra5pGngqeD9wn4172lioBPAmgAE8spA/qtuMlopGSGYZriNB3ZWHTcBCr21GHSVbeBT3ou7LfK+33LL5RYAyI7HNCL6yuLReG17obG/VgkMq6Wu3OETx1eyaizXxvtl1n3QsL9FAQ7EzJysn2PnTm88yJ7p2sHZPlw6aCdKy9dYSnn6AO8qAEOitLxrNMKmlYEOWzDbjrDj0TwwPPEwQTg42tLWZv+yHttqcleC75YZlGnt46zxeOWueJ6BNLlbCQ3gVPvrxElAbSEWPzKxtk4B2VW8dEXUiT2rxU8wQxPyCz96eee39bjjqUMc0yTAdR6DGPPCnkrMePspzSWD04VUnB88vPvQkjZ7YdESfAExd2F2FyCbPtNvL0u1eQrKM2ELa8n12mQmb9CfXZdBCfSvBkXUEginzk6bPU1cntd9+pE81Fscjzg88/laajwPOgYLtmWk4YLV66VG7p31cGx8Y8EWkCNI+KPAGejY3tijDbY1BoGFsurEG7eqgDMjy7m8c084Kc0ZUnAxBXn+mjgCUW8SWSATyYjzrIp4LaulNRX1AdGLfUI+lqazTyHD5mtJ6+o7uLYkuV2G3HyUo4kk7BE5FnEqDme01G2c6dRa2dgndt181PlsZzWp0gwHTlADU/GcEwKkVdLOMHpMjHc+Irm+i2l2xYr1/TfO+TjzXy5IQR9rZvbG5KU/BctlRu7nebDHngvqO2ZwI8dcxz7hzBafNwELdxmLaN3VGeRo56yIehifSTORjByU8Pv9vKg4CCOsxnnUyngqYa9PiMpKl4RltHc1Ozbs8EIH785Rf63W+7zhNrPHFx0Txm2ytqqiU7J0damluO+ofB9xuW4jmS6dKuoEee1E/GPNCgfD/7T5WfsB4/ivv6yQmAqaIEUtyroaFeBt97j4x64TkFzz+edKK8+8lH0tTWome4btu5U0+Sxzfd07LbvtiA57iXX9JuO2faEYHiVKWVGRlHgaefgXREZo0yLB/GMZLpMP8ohzcRn5V3BW/BEbxN4/6UWWqfy8pZ1pVRnqicLcP7Wv2wvEaeRUVSXns0eGKZEsY9AZzormOdZ3Z+XrzbruDZcjR4+t0T7Qc527EzaFh7TKTXEd8IKusHlMlkqQJQ1BMHz/vukZHPPRsHT0SeHnhWx0+Sb0xn8OyByPN+TBgdDZ4A0Rnz58nK1avVcYMaMoqcRoYy5MPQVDsGnZEOyHR7KMHGryzzCFpuGmWsLCrf0tLSofJR72d/oy3r/g4+V7zb/uXn3mx7nvfBN3TdAZ7abY+dKI/ZdkSp2bk5gvL2Xol41zao68qZhr2RD0vD2Gh7dKL4DnVxH/KW+oEngY55TJNCDj7K5QFng86D3PHAffLMs2P1Eyp/OvlEeefjj+Ld9h17dmvk2djSkr7d9h79+2q3neDJ8U4sW9LIswPg2R6DsmXCGnciPTpTWIq6rK4FCfCJ8lxdN01QceU2HUbH6h/LfGFxcXzC6JlxYzXC5GHIAE98ppY7jfDFxcq6OsmJgSd/l33fHeFdG0Fdrixs2tpoKnkLhqngCZqoi3wyGgZIUR8mke984D55etxYKS3fIH866UT9VlVTW+tRS5Wa21rTs9u+aOkSuTkBeGICacXqVUkjTxiQbez2GpQ13vYaN8vR0eCE5IOoq0PH7abe8IHfe7Agj/fqpwPwrKqv0zHP3yxVih0MYmfbsVSJ3Xa/+ihz2zFI7uolS1v7SyUfxR/gR64/Wd+KwvO+LJMMOJmfDEBRX2MjwPN+GT52tILnn085Sf7x4QfSvKnN22G0a6f8ePCANLe2ak+iq1bJd9n2zIVLlkiPfn212/7sKy/rovijZtvnJgdPNlB7aSqM1M8p4FBWzjQdrSspnwP3BOgkuvhcBCeXMt+l1PO7h5W55fBsroxpWyfrIGUeKHnksT7I0G1X8PzqSxk+ZpRGmZgg4veL4kuVYochAzwReWKCgc8QlfJdW2qfy8oT8amwS7cO+gjk5KNSAmFHKYEyGQWQQscCKu6NTRB3P/ygRp44h/XPp5wsEz54XxB5YrZdP8Nx6KC0btqsbZmG4LlYbu57m9zxwP26R3X6nNk6y86uOyLPlRlHj3lGbWzqu4YUJp3IuMPkWaeJ6oSp0ie4pJLi2QhY7amX5W1ZykhtXnv41pZWKSgq1G67zraPHS05BfnxszzRbceFbjsurPME0Obm5UprF4zlwn7wW8PYUZCOtWHYuU2DRzlX5qbpH+2l7QXRZKDp5lvwRF5TU6Pc/dADuooC4PmXU06Rt99/T9BNx6oJnW0/eEDatqQ1ePYRDPwi8rTgiQkjpFdlZKijopHa08CusSRLW4MDH9bAoRflYt2JygA0kE9qeRdQmEddUERQuFzdoLStI0jH1utXt5XZ+qw8Wd28h5+erdPN5z1AceFIOkSTH2vkOVpn1zHmieiTE0bxve2VFbozJS8/T/dC8z6gYa4w7ZmoHpYnhS54vws27Mr9ZFbHtXsLti5v/QzlbNrl3fz2ginKuYDppgmg+Kx0c3OT3P3Qg3rgCyb7/nLqKfL2B+9rt728ukpn23GSfNuWLWr/aRh5LpGbbgN43q/gyUXyursIE0Zz58TB0200v7RrIFHS1tCS8a5hJ3KKqHkuIERJu+BBECFFXeT9qN+9/PTCypLdz9YTVpd6pLYOy7e1tureduwwwjmPOJIO45sET3TZuUg+vsOotlojTxwkgfqDLrQp86K2b3v1rU2iDpuOwsMnoJ/INxLl+/ldkKwjQMqyLoAijbyW5ma595GH5MlRIwWTfX857RR56/33tNuOyHP77l1C8MT76qq/Lh3zBHje+eADHnjOnhU/UYmz7avXZOiLCmogyBMZgl+eNQ7wfsZoZeRBO3rR6RJR3MMCAXTdtFve5qeKd++bqno7ux6AH8ATY54AT3Tbnx7rH3lmYY87PhRXValrQhl5uu8XbeLK/NLWPphvZR3lUSfroO0iTR406uXnI1aG+myafCKfZB5BMBWUQIq6MLRy36OPyNCRI/QLqX+NgScmjCpipyphh9Hmbdv0faQnePbtI3c8eCTyRHcdwIkoFOs8M9au1ReFF0agJGUjJqJRDckaIo00FZSOFIZ2NrgcK/XjXXTGs1jwrGqo18gTS5V0zDMnJ95tx1IlRJ25RQUKnhjzBHhuams76rn82gzP7SdPJuss+6KN0t7pE0wnotC1+SybjNIPCZRhaCpAFPfBe77/sUflyVEjZENVpfz11FPkzXffkZbNm3TCCJEnzvPcvG2rNKVl5Ln0SLcdh5oCMLk1EwCKw5BXrcnQKCJZQzLfGkFUngbYUZrMgWx+e8EDANHesl1R7vd8Pgue1Q318unEr3SRfE7Bke2Y6LIDPDlxhHEz6DLyDPuO2JbQJx+GwsagR2rLWPuj3MrC8lHt30+ffhWGhgFPq9NeIMWz4LAPBc+RI3Rzw99OP1Ve/8cEHfOMTxgdOCBbd2xPz8hzwZLFciO67Q894M22z52jB4NgzFMnjObOkdVr1khba5tvt4EN6tforgy6lMH4XJ6GHMYwadBRqOuMvye4uM/SkbQCFbrJARfqDsoLknfkeVgWdReWFCsgKniOG6NAyb3sHPNE5Ik975htB3hith3fvGE9YSnu5+q69gHbcmVIB8mtrtUJa6PUg62Dp82TWp+gzKX0sbDUgmNY3oIoxzStzOVRL06Hf3DoEzJ01AidXT/ujNPi4IkJI862b9u1U7EjDbvti+WmvkfGPDFBBNAEeOJCJJoMPN3GTpamQYWhNF7okg9DXSf6vdJ+Ds1nSZbnlw/Z73XhuflMQc9gfxu63oWxdZ6fTZoYizyxVClH97Nzth3LlDDjTvDUbvumTfF7sc6OUtiNrcPaEeQ2nYwPY7tBOsn8I1F+WAC1emEB1NVzAdOmCZ4PDX1cHn/m6Th4vjbhbWndvEm/RbV15w7ttm/ftSs9wXPB4kVyQ5/eOmGEbrsFz6Mjz9ajIs9EDRyUB4MMMijKrU4yA/YzeOscvxcfBCwWeBBZJdKLmtee+lCmPeXs7wh6Tq27rS3+9czPJk2S4WO9yHMtxjxzcnSmnbPtAFCsFayur5P8gvx2RZ5h2pvPDl3L27K0O8pok5QHUdowKHzApv141su8IL/xk/MeyLNAGYZ3QTJR2gKm5T3wbJOHnxwqjz09PA6er779lrRu2azgCdDEmOf2XTv1faRd5Dl/0UK58bbectdDD8aXKjHy1Nl2dNvXrlFD82vEZDIaRhBFeeQFGWSQ3Bo2+c6mdLYgwOhqOcEvGcVzuTquzKYtb8tBzgvyRDzyN2/aJAWxve0c80QXPSMrS6NP222HHOCJmXmCJ+u31K+NkW/lNm15q9MePsgWKUed5IPsPYycPpHMt9z8MMBpdQCASIMCGP1AlPnMI4AijTZ+ZNiT8ujwpxQ8jz/jdHnlrTekZdMmTXPCaMfu3WkcefbuFQfP6XO9HUYAUFyYMMJsO4zQbaygdBgDCQOYNEYaOgyTfKopfl97LwskqANpXjZNnvexOq6MeX508+bN8fr98o8lGbdnWvBEt90ukvdm2wt1xraqrlYnjLZ0ICrmu/SjqbYbWx+B06Vh/SGMXpDPBcktWCbiAYYuUBIwgyjs7NGnhsUjzzh4crY9FnkCPFFHV/112TpP7bb37iX3PPxQfMIIoImoE9dMXarkRZ54uWwkNDT4MA1udVzD8kvDICG3hpkqHg6FuvwcCzIYRFAe8zsCTn7A5yfryD2OlbJe5Fmkk0Cffz1Jnh43RnJjhx9zbztn2/OKPPCs3dgg+YUFssX8g7Dtwd9mZe3haQOuXbEuV97etJ99u/5g0+DD+BX9MCxNBJxBeUGgCTnKwG4ff3q4gif+6Z1w1hny0huv61KlitrY9swDB2Tnnj2ysTENwRPd9hv6eJEnxzy5uwiTRR54rlVQCdOoriEw7WdEBEhSa6AwYpuOytMJ2kPhoLYcHTbVFPdIZZ0wZntFqZsAzvJRyibSLSopiYHn10eBJ8Y42W3XpUoF+brOs8YHPIPqZxshn++SsiiUtsUySLs8daJS2j3Kkfejrp8wHYYSQKFLPojaACgINP3kLpASPJ945ukYeNYpeL7w2nhp2dSmn5vmSfK79+2VhnQFzxv7HD3myWVKXOeJbjsMNExDWh0/I6EsqhGG1afRB1E6GvItzzRknXm59yFo4Z4ELspsOoh3ywXpdYac9w6iuCe67Vh+hMgTR5cBMHW2PS83Dp66VEknjMolHnlu2dIp7RBkF+2R0yZR1oIjeeb7UfgBfIX+kIhanwrD2yDHD0RRhysnqPoBp5URRCHbsmWLDB3xjHbdEXmeePaZAvDUCaOqKtmyfbtuz9yzb196dts18uzdSzf4P4vZ9nlz48uU0H1HOmPNGu1GhWk41yhoSNY4/IypvTI4bjLDh05XXXwWAIffPTsDxI7FOuFY6HoXFnlH0mm3fewY3UnEpUoAUkSd+AQxT1Wqa2yQgsJCdUz3/eHdWpmbtnlhebYX67Jp2KRNJ+Kt/UKPadg9eZdan/Dj4W9WHsb/XB0XJMOkLVgG8ahn69at8uTIETppVFVfKyedc5Y8/2oMPKsrdZ0n9rbv3rdPJ6TSbsxz3sIFcoNOGD0gAE9MEHGyCHQaDgZZk6FRkdswbuPahgbvGktH0zRK14hRL2TWYahjZZ3BW5Ak74IZ72vlABebbi+frJ5k+e29b5hyuDdOVcKWyy+++dqLPGNjnjgchN32eORZUS7othdgzNO8H7w/3o88qZ+c77sjlPZDu7LpKHxHbd71Kab9fDGZLAxwWp0g4IQc90IbDQN4PjVMCJ4Y+kPkiR1GO3Z5n+HY8+OP0rCxoauwU7pswmjugvlyfe+ecvfDD8nzAM/YInlOGmHdJxbJw0jZOGzAINoRg4limNSN4iQoE6RPR7SUulYGHnIrs85u5S6fSC8oD3L3Qr2uLFnaPgt0bToMH1SG9/V7JoLn5wqeXOfpHUlnwRMAyu2ZAM+t7Xg++xvYPmy/VFBrO7Q9a+uUBVHowmdsmTB8kJ+5cvonKEDQpslTDgC0QJmMd4EU+mh3RJ4PD3tSjxI8+Zyz5dlXXpJNW7d4e9tjs+0Kng31aQieC4+Ap57n6YAnlyrBMN3G8kvDGGA8YYwiyMjCyOEM0AvrFFaXToay5LuCEmSiUHSNouhD168Mfl/UejqqDwDEDqP4mOeY0fHtmZhtPwKe+JZRsWBLIj6bVQAAIABJREFUH8Y8o4BnmDakTlhbCatnbYplktku/QJ65MNS198AiH4yAmUymgwwE+WjbrQvI8+ahno5+ZyzZNxLL0pbDDy5w2jvTz/qOaFdhZ5dFnmi266R5yMPeYchz50TP1HJzrbDkdyGYjpM49NYkhmXm0+jBEWeTUfhXXAkMLjyqGnUE1SG93Ap9CnzAzqbh3xelINSFpUG1cE6mc96mbb5zLPU6pFHPsATXXHtto/xJozwqWGCp7dUyTvXEyfz1DVulMKiwqP+Abjvl/XzPbr5UdNR7CiZLu5tdVx7hq+4MqbD+BF0rN+R96PJwJP5iUAyKA9l0Q5PjnhGu+34p3fKeefI6Beej3fbt+7wvtu+b/9PUl9f11XY2XXddgXPXj11nefz48fHt2cCOHHNXrhA1qzL1MF/20BsaMjIW+rKaSB+FMYGuR+1hhjEs043P6oT0fDdcjASyui4QRR6zAN4sKyV+YGOlUXht23b1iEgDbpXR+plndsUPIulpqFBvvz2G/1cA6LNdXneZzfA55cUawSKiSN02wGeWOe5ffv2+Hu075Tv0aVsn1RS2BPqc+0KadqrX14iGW01ESVAWn9KxFu/DOIJlIloEFD6yVEP2hng+dCTQ7XHcNr558qYFz3w3FCN2fYdOtuOSaP6dOy2z1u4UCeM7nnkYXn+Ve9IOq7zxHjnrIXzZU3mWn1RiRqQeTAKyzPtZyyJjCxMHh2FukwHUQKZm+86YkfTMCoLPqyPoNIRiro6Ur4ry8bBc6MHnjgMWcEzN1dn18Fr5FngfcdIwbOpMQ6e9ln5u/kuSV0dyhNRt/2jpmFvKEO76wj18wvK6EftpZ0JpIw80W3HyUr4B3nq+efK6Bee028WATy37tyZ7uDpdds98Byvs+1c54nIU8c816xRMEjWiGx0l6IcDAzyjhgaHCKKoQc5EOoIyvOT00GZ55dGHuUWOClrL7X1Wj5qfWHLhtULc38PPL0xT4088QE4s8MI4ImLs+0Az9rGjbpUCZGn3z2SPR/zQcmjHqb9aBSbsrYDHvbM8u2xbVuWfkNfYZrU+h9kNu3HU4e9QBdME0Whbp4bfWrkuWWLPDVqpDzwxBNSGwPPUc8/q9328poqwVF0+w7s18NBcMxdV/112ZjnnPnzdYfRvY88LC+89qruKLJLlRB9ZqxdkzDyZOP60fYYlFvGGhh5l9IpICffHuo6mp8DW1l7gJLP5dYTVBfk9rLlEvEsQx2/NPIoB2WalDLWEZayTj3PMxZ5Do+NeWbm5sqa7CyNOgmeOCQZB4NgfBRjnu29b9Dz2XdOPoi6thUl7dpu2DTuYXX9fClI5gecrswFTr+0C5jJ0lu3bpHho0fJA0Of0G776RecL6Oef86bMKqpUfDEqUr4FEdadtvnzJ+nE0b3PvqILnDFdkzsLIp33ed54IkowjaIX0Paxnd51zhsPupC2hopDNum/XjqBDmBn9x1Luq4cqSjOLDVJXC41K3Tzbdp6vrJ/PKsXhDf3nKsj+VJKQ+iiB6LSooVEBF5PmUmjLBQnt12RJ74hhG6ejUb6wMjT7QV7p2Ki+3OOm06iPezwbAya+9ReNfPUNaVMW39MxFP4IQOeZcmA07oY7Z9+OjR2m3HhBHAc8Rz43SpUlVtrWyLLVUCgKblhNGsuXPk+l495b7HjgZPfIqD2zPXrD0y5smGIrWNGdYoUBa6NDzLUxZEgwwbDsU861yQ2XQqeYIG6iTfEQqw8SsPOS+bT5mlifJtXiLerY/pRGX88rZv2yZFpSXebHt8wqhIZ9qPnm3HUqUiXapU39SokecO510kajfeO5FOmDzaCinK0KaS0SB79ZOH9RPqoQ7yoPS9MDQRiCYCT4AjAJSg6oIpwfPpMaPlgSceF7TbGRdeoAdeY5E8lp1t2bFDfjx4QK/0Bc/eveS+xx71FsnHdhgBOLlUieDp11i2UcPyNCgYJPlENJHhhnGKjui4jsl0MkrAAU2mi3zqkyelPJW0M+u2zwkABHhiHJOz7QDJzDwsVcpTwESaY59YqlTf3KTgiXrwnFEutDP0O9LeQWVdG4SeK2M6kS27eWF9JkgvyCetPBmA2nyCpaXIJ5ASRJGP3ugzY0bL/Y8/qqskAJ4Ymmkz4Ikxz58OHUzPdZ6z583VbrsFTwKnzrYv8GbbYZRokKBG9JPDUCB3DSZMmoZoqTXYICNPJEdd1rlcx0RZ5rt5Nk2AgIw8nd2mLb9jx46jdG1eVN59Fvc5otQXpmwYHXtP/Fa9tm/XbxgRPJ8aPVryiookK7ZUCcCp4FmISaMCPc9TI8/iIi3P34m6yXeUJrKP9uQF2aeVk4fdg6f9J/MNP5/ykyXzSz8gBfhZ0LS8BU7LQ8emt27ZKiPGjhFMNqPbfuaFf1fwxA6jDVVVsnWHt1QJY544RLmr/rpswmjGnFm6VAng+cKr3my77mmfM1vXfOo6z7VrZPu27ZGBk0biR2EENCQaVyLaHsO2ZdrrdBYUuoLHc0a9D8EqqFxQPuR+ZYLk0LV54Pleg+rhmOdX332rY54AS3TZAaAc8+ThIJgwInjuDHg23Md9R3yGMBTlYRfQtfaRaj6RLds8P99wZX6AGVXmB6AuYNq0C5QWNMEjH5HniHFjdGs3wfPJUSN1zBPdduwwwhrP/YcOSUM6rvOcMXuWzrbjE6KYbefBIIg+EXnOXDBP1oQAT7fBk6WtAbl8KgyZzmEdio5nZX68HxD4yQAevPzy/WQWfILyWWcQ3blzZ/y+QTqpkOP5ktXj/gboUwa+sNibMJo4+Ttd1gLAxKEg+I4Ru+uYacfJSliqFAfPnTvj9bA+P2rv59eWYWTW3qCPNKnNi8Lb8q59u+lkvsJ8AqabpjwMtSAKHiBI6oKnX5ogijyMaY8cN1bBE5sbEHkOGz1SNm3bqgeDYKkSxjwP/HxYKqsquyrw7LodRjNmz9YPwAE8n39tvMyMHUl35GAQfIZjjRpyUOOwMf0oykAOgyF1jcemoxio1bXGCj7K5eeUlKEe8pYmA5VU5EcFSVffTfs9E3T89Cgj9SubTIboEUuVsPxII8/Ro/QkeQ88s3V3ESJRzLbHdxg1NUpRcZE+E9530Pu3bRGFZ32wnUQ2wntDx9oZbNWmw/BuGWvvlvfzn2Qy+leQbyaS+wGpH2AGyQCeo54ddxR4PjlqhGzevk0PBomD5+FDUllZkYbgOWeWjnkqeL46XmYtmB9fqgQARfS5Zs0ajUBsQyRrVObDOMBbIyEfxvD8dBIZfVBeFAeDbjJgCJNvgSkIhChPpOuXR1kU6vfMtjzybZq8K2c9zLfU5u3atUtwknwcPMeM0mgTy5QQeXLME8CJKBRdvbqmRikoKjwK0KO2XRj9IDtJJEe9fvbYERl9wVLXX+hLyaj1zyi8C6JhIlHoADxHP/+s3P3Iw9LQ1ChnXnShPD7iaV3nydl2TBgd/PmwVFSkIXhOmzlDrut5q86YYXsmwZORJ7rx2m3f7o15JmtANjypNQoYGdKgMNIoRpfIqBPlhXEk6tDxk1HoQ4egQX2krZz5fjSsni0LMEqUtnmdwdv7Wz7oXh54FutsO7rtT48do9EmDgax6zw59okzIDe2NOthIrZ+vl9Svn9L3TZk2k8H9mLltB+WYT7lLqXdQk7ej9LW/fKszPpIWD6ZH0YBT+pGAVEFz+3bFTzx5V0Mt5x98UX6SQ6cqrShulI24yR5Bc+f0xQ8Z82U63oBPB/TD8BhkTyAExe3ZwI8YbiJGsyv0WEgVm4Nxo+nMZJCxzVcpplHgw9LUZ66dEaXIt+V2XQQWPwzyvG7LFCl8jfs3rVLimNLlXTMc8woBU+cGo9JI0SeOBgEFACKpUoWPPlc9t1bns9qZWF52oClKGvTQTxtEPnkQWmTloKPcll/ScYn8kcAos0nQIahLoii285JInbhoYOlaGNfeF7uePB+Xap0ziUXyePPDNcxT7Slguf+/XLwl3QFz5kz5FoFz0d1h9Gs2A4jACeXKq3NXJsQPNnIaCzyUQyGutYQLe8aaZBRJ5KHdSrq0TFTQQkCrMtNU07ql0+ZS/3KJNNBftDlVx9lfpT1BOV5i+Q3ioLnaA88scaT4EngRNed4MluO3+HX91+MrZdVJrIbqLmWbt1edp5GEo/CkMtSIbhwwAodFwQZRoAquC5Y4eMe/EFGXL/vR54XnqxPDb8Ke22oy237vS+YXTg8GGpSMcxz2mzZuqY5wOPP6Yfb0LkSeAEeM5ZtFAy12UeBZ6JGjSMYUAHhkVd18iQjmq0rn4yB4LzUcfPEf1k0LdyP+CwDs/8zqK7d+8WXJ1Vv1svfjtkfu/A1UV6z+7d8THPr6d8H1+qhL3tttsO4EQ0itn2xtYW3dK5KzaRZe8VlWd7wTbY1mEo9V2bam+a9kw7d+2ffmCp1aU8kd/ZvDAACh0AJGkYQCV4Uhfv8tmXX5QhDyDybJRzLr1Yz/b0ZttrZHtse+bBn3+W8nQc85wO8OzTUx4c+vhRS5UAnBjvxDrPzKx1AmO2DWR5Nm4YSqNIRNtrpDT6RA4S1QGD9P3A4liVdSXA2neA+3Kd56TvJ8swRJ6xdZ6ZsQkjdNd5qhIjTxygvHvX0f8Ugtohqhy2wTKJ7CRZXntsNJHNw3eQH8aHrI71Q5cPC6JWj8AYRC2AYjXF8+NfliEP3Kdjnudedok8OnyYbOFs+05vqdKhX39JvzHPX3/9VeKR5xMAzyOL5DnTPmP+XMnMzJSdO3dow9oGso0YhvczHhgh5FGNEcYdBiytDp3Gj1qnt/lWngoedbenHhtlunxQfQRN6jMNfcqCylLHzQ/z/NTBPRQ8Gxtk0vffyVMKnsUadRI8Meaps+2Fhd5hyLG97Rgvtc+L52C9loesvReBNBlQJsuParu0dz9KHwnjT1bH+qXlLTCG5YOAk3IAKHi89xfGv6Jjng3NTQLwxPeMuM5zy47tehzdoV9+kfKK8vRaqgTw1Mizdy/d3I8dRpwwwiJ5BdB5cwRjnrt27or8XxGNS2NwaVSDI1haMHSNur1OhHIuSERJu06erCyBi+VsmjLU4cp/rzSfhdR9Diu3PLrtnDBC5InvtueXFInOtjtLlRCRYnkLnBCfHmY9oFEv2gHKkXdpojzXrmw6kf1Rz+pEtXPXT5i2QBnEW9B0+bDAafUIln4UeuiNvvjaqzJYI88mOe/yS+WhJ5/QHUbxCaMD++Xwr7+mZ+Q5dcYMnW3HadD45rK7VAnd98x16wSRQFCjWTkbO4iGNSYaokvpBJQznYzSWaI6IvUtqEHmAgjTbp6b3rNnj+Cifljq1hO2XCr17HNbnvegDBTX3r17pbisVNduYszT7bajy25n2wGeTW2tus4TvzeVVzL7CJtv7Y58GBrW7qFnfcdNM8/6nMsTOK2cMguOYXmUha4FUcgAni+//poMuvceqW9slAuuuFw/yYFF8mjLzdu26VKlw/Jr+o15IvKcOmO6rvPEfwxsz5w1f75GnDjPk+Oe67IAnrsDwZMNGkTDGk4yI3QNHM7lymya+e1xQgJCZ1I8V2fVTwCLUn9HnofvmPfj/Uti4PnN1Cm6dQ9gickh7G3HTHtBaYm3VKmwQB0OE0aYbd+z+7f/YHgPS3E/m47CW1uJyuM+1l5R3qbD8ol8I8ifXLkFyWS8BVHLhwFSgCdBFBQB1StvvC4D771bZ9sBnpg7AWhinSe77WkbeU6ZPu0IeDrddu9IurmyLitLDRQv220ctyGZTmQUzEtmYDTIKIYdxXlcXTp+Z1MCi72PlfnxlFnK8laWiKc+KPVcnmmrG8TbOvx0kI8dRjhV6Zup3wtOVSooKVHw5FIlgCknjdZXVcYizyKdqUd5v3qtDG2ItNuWQekouqgjiu1RN5ldu/n0h0TU+hV5S+GXTLs+6pcmcFoaBkCpg3J4l+PffEMG3hMDzyuv0OE/jTxrqhU8sUg+bcGT3fZ45Llg/lFLldCNz8rO1hfFRmAjBdFERmDzXCOi8ZHSeEkpd2mQo/jJXceDjpUF8Yn0XCdnGpQX6iX/r0L37tkTH/OMR57FxbIuP1fHPRF54rJLldBtx2w7xkuD2oLyoDZhu1PPj1InVdS1SaRd+06Wtr6RjA/yPcjpp8moBU7LEyATUeijjca/9YbcHgPPC6+6UsETs+0VtTV6qhLO8vxZJP3GPH/55RfRyLPXrfLIU0/Gv2GEySJ22bFUKSvHA0+3wdDAkCVraJvvGhCNzBofDNqmg/hkhg+ngY6f8wDA/OR+MoId85juDIpxwij14pmoz+dzKfPbS6M+E++zD2OesR1GAE+dbY9123E4iAVPLFdC5Iluu4JnhPYJamP3Pfilra2RB23v5doq66TdI598IkqfCeNfrl/adDIARb4FTsuHAc9X33pTu+0Nzc1y0dVXCT7ng257ZW2N120/eCCNwXPGdP0Mx8PDhnrrPOfO9WbZY+s8EXnm5OYo0LAh2ThoYBgAGzqIukZiDcg1NjeNsjTAKAbt5yjJZHB6q0MQcCnApL2A4lcXZG59vAepLUcZy5BanSh8lPLUJeV9kHZl+/buOxo8x4ySvFjkSfC0S5UwybCxtVnyCwv1HwLrQ5vgPqTgmUe52242HYW3NoZyNt0e3rVnm3b9wi8d5FN+cvplEG0vkPqBKCPP1ye8rZEnVklcfM3VejAyuu2YbW/bulVPkf9FJP0mjH7++ed45AnwfPH1I1/PZPSJpUvZPpGnX+NZmZ8hUGYNKBnvZ7AoQ3kUx6CudTjwv9dFwCHlczCdSoq621NfsnJ++fwd+/btE0wY4dCIbzFhNGqkFMbGPAmeiD4x5gmKg0Ea21r0u+1790SLwHlPUrQ1eFLytIEo1NoaeVDUAWpt2OaTt/mJePpHImp9DDwDGlfupl1AbS+QMjJFeQzLvDFhgvS/6w5paG6US669Ru599GHZvG2rguemrVt1nSfAM+1OVQJ4fq8TRrfII8O8brvfUiWAJ4wvWWMFNXoig7F5NLawNIoD0KlSQXFfW08YUIJ+GL100vmR4NnSJN9OmypPjhyhE0bZPgeDADwReTZvbvNm2837su/Ovvf28FFsxk8X97Ry2iplTPtRa+vJ+CBfsnIXIBOlXfC06fYAqYLn3r3y5jv/UPDEYciXXHeN3PPwQ0eBJyaMAJ6VVVXptUge4Dl56lS5tuct8uhTw7ylSrEJI7vDyAPP3b7dczQmGs02KngYB2kyQ0G+n7FZGY0zCnWdC8DkypKlbZlUAhvu29H63DoQ6XW0Tv7eVNQD8MQ6z9qmjR54jhohhaUlklOQHz8YBN12XHmx8zxbNm/SRfKIasI8Q7L2S5SfyJZoe4l0kuWxDlLo09bpE8hLxLt+5ZdOBJpuHspb4CSfDEARcUKHkSco2uetd985CjzvfvghHevUdZ47vCPpdMKoMs1OklfwnBYDz+FHwBNddnbbsT0zJy9X0I3Ci7aN4TYkjAAyGoMfpSEhj3wQTWScKGPzEzlJR/LCOLCfDu7pJ4eMIOdSq488N58yUj99lrF5vCfLWUo9yH788Ud9ZluH1SUPPfIu5b1AFTxLS3WpEiJP7baXluhedhwMgmhTgVNn3PO1q9e0qVUKCgv0nxyfLSp1373b/rAbV8a0tSk/PTc/UZp2DR3wYWyeen6+48pc/7O+CR75roxpgiYoQJE0DIgSQDEhOOH996TvnUN0neel112rp8pjfWdFjTdh9NOhA/Jrukae30/DOk9Gnt4OI3uWJ75hlJefp07FF+82GtNu4yKNPMppTEGURob8REYJQ2c+jb6j1M9BAQx+8iCZCyQsb+UEHlLmoU7yHaFuvR2pq6Nlf9z3o455Yp3nd9OnCT7RALDEInmOeWK8E0uVMNuOSYbmTW1e5Gn+yQS97/bKaSsoTz4qpf1Zijps2uWD7N5PTp+x/kMZKcqBp/8FUfqtHyWIIo98GACFDsDzHx98IP3vulO31V5+w3Vy54P362c4sFQJs+5YqgTwrEjXyBOHIeMcvhdff01wnqc9kg5LlXLz8wQzp0GNw8b0o2zgIAOB3DWyZOmohm716TCWAiQSOWJHQeRfsTxA/KeffvK67QqeUxU8C0tL9Zvta7KzFEgBpgBPfAQO4KnrPIuKjoqA+f4StVGq8mgrrI9pl8JGISNlvrXdsLbt+gbqoC8hj3xY6uenfsDpygieYaJQ6AAT3v3wQ+l3JyaMmuSKG2+Qwffdo2Oe5TXVOtu+PwaelekGnocPH/YmjHSd57A4eLLLjpn22YsWSF5BvhozGwWNCD5RY7oG4Ze2hpaMp3G2h9IR2kPpuN3UG0aI8h5++tGLPPFdoiPd9tJ45AngxPZMnqqEcTKs88RSJdwnTBTttimfz5V3JB3V5pLZsl++n3+4skT+5ubRVxNRFzxt9EkgZZfeBVSkMSzz3scfSd87Bmu3/cqbbtB97rpUqbpKWrds0cgTM0VV6TZhFAfPnrfqOXyIPPH1TAuemH3Py8/X/zJuA/ml3Qa3aT+jCZLBYJEXxnDpGFaXsmTUOhv5KDSMg7M+6PpdfvmQUdfy7v2o48pZp6XUpYxpUt6HlHJQliH1kzGPFJFn6foyaWhp1m47FskXlpX+dsyzyNtphKVK6LYreGLM1Oe+rDsMTdb2tJdken75KEs56wmiQTYeJLc+k4iH/yHfzw+trCMACkC1AEoQxTfb0T7vf/Kx3DbEA8+re9zkRZ66zrNKT5T/8cABnWWvrqlOr9l2gOdkThiZ2XaAJ7ruuHAgcn5BgTqPbRCX92tk6FAeZCh+8iAjdOU03rAUDkddP+drj7OijC1nedyDaeolotRPpGPzXH2mSa1uZ/G4l3s/pgGeJTHwnDxzRmzCyANPHEuHCSNEnjppVOSt88Rse36hZ2+sOxXUbXemU0ld+3TTfrZOGfyEPCj9Jix1/dEvzd4iAJGA6hd9ujJGoS6FTX302acKnrUbGwTgOegedNtxMEiVbNJTlbwJo7QEz++mTpFrbu2hY556qlLs08OcNMI2zfyCfA3RbYOgUS04BjWyNYhEvGtofmkYOuTtMXjXAdHwrixKujPACGATpd5E+vgtbl2J9F1dppOVSZS/f/9+jTzrm5tkMiaMRo6Q4vVlGnnag0E88PQ+PYx1ngRPPgNolLaxurAVm07G23u1x85Yxs9+KUvkB355Qb7lJ7c+GsQTRC11AdNNu8CJNNr+o88/i0ee19xysx4SsmWHtz0T3XfMtmu3vTrNIs9Dhw4JwPPaW2+Rx58erus8Zy9YoBEnu+5e5JkvGL9yG8Ov8SjzMwJXRmNKRmmQoNC16UQ8HAX51mGsc1i5y1vH7SzeAg/4jlzuM9q6kMd7uXJbzs1j2pa3+ol4lsUOI8y2T56B2faR2m3PKcwXfMcovzi2xrO4SLILvdn2li1HIs9E9aO9kO+2m00ny3d17f1sHvhEdpYsL5l9M9/1D780/Ity62vkSRnYuD7rl2YU6tJkALr/p5/kky+/jE8YXXNLDxl4z106215VV6v0wOFD6dltJ3jiR3O2HbPrAE6CJ8Y8cbI3DIsNE0TRqMhj47qURpKMwhihk8wo/fJdow+bpqNZB+oIT/BgHUyniiKqS1VdqAfPGbY+q5vo9x04cEC77bVNjTJ5xvQjO4wK8nWpEiJOXFyqhINBdJF80ZEJI9YfhbLN/cowryMUdofytD/LU+ZHk9m9zXd9J0w6yC8h9wNNK3OB06YJoog2yYPCBj+bNFH63TFEGpoadbNN/zuH6EnyGL/G5zh+POhFnpXVabbDCOCJMU92219643U9SZ5LlRB14uuZhUVFvwFPvHg2VpiGhY41Dj8eBgc5aFiDpG4yZ7B6dCqUIR+WhgWYf3U9OBbBE7PtCp7YYRSbMMI6TwAnZ9tzCr3vtnOdZ9j26IheMpuJmg8bC3v52b8ro19BTj4RpT8GUQuWQTxBE+BoeQua5A8APCdOlL5DBuv5Bdf3ulVn3gGaWDnRtnVLHDyr0rHbrhNG6LY/M1wUPOd753limRKiToBnUXGRdtvRcGyYRI1o81yDcNNhjc1PL6pxw9HCAmYQ+AEUUh31Bd2rvfJUPx/eG58lUd2uHsCzdP160TFPRJ6jRkrR+jLdnrk22wNPAKgeDFJUqAeDNMcmjDBMRGDkvUF5D1LKqBuVuvbAdFTbCtKH3cLm/eyXea5PBKWtXyXj6aeJKAEUIEmeFLJEAIp82MKnX30ZH/MkeHqHIWOp0uY4eKbdhBEjT+xtB3h6S5Xm6ZF0AE9EngDQouJiBU82RLKGQ36QASQyJD8Dg1FSTj7IUK0cToS0daYgR6NzurqUh6EWVMDzSlSWOrZskL7VdXmWsXLIWC/lVsYypNS1aStjHZba+vx0AZ5l5RtkY1uL4LMuCp5l3oQRtmey245Zd1zo6nmz7d4wka2Tz+VHqYf2s/m2PS0PHZsO4q09dYSH/aI87TgsTeRDyAvjh9Ch3/pRgKUfeBJEmQ8dewFYvcjzK7lt8CDBbPuNvXvJbUMGCU5TwvZMjTzTdanSwYMHvQmjnrfIY0974AnA5KEg3oHI844CT78GQ6OwMZM1eFjDiWqscACUCXIEyulcbppyUDqjlVkeZW2aZVAu2RVF160LYOTKkqUTlenIsyS7L/IVPDesl4bWGHjGZtsRaWK2XcGz1Bv3hAxdvZYtmyW/yANP9x0nS+Oefjq2rf14yhJRa4/Qs+kwfFi7D9JL5Fd+PunK/IDTyixYujxB00aikOF9f6aRpweeN/XprUCKbjsOQ7ZjnjW1Nem1zhPg+e2U73XM8/Gnn/K67c5SJYBpcUmxGqXbIARMyIMaN8gY/OQwQsjDGKPVSWT0yINDkfo5VxgZwQK65Ltp4n8WB7XbXiZ1zU3y/Uxvwqh4w3rtpjPytOs8FTzZbY+tPvB7x2wv5JFPFU1mS0FGPeWJAAAgAElEQVT51h6T8X62H0YGH4NekK9Zf3R91aYBjhY4/XgXQG0awIn0gf0H5LOvvpK+dwzRoRmAZ59Bt+s6z6raWqX7Y7PtaQeeiAy++X6yYLb9iRFPK3jOMbPtAE4PPEvi4MkGYgOmAjiTGZub7xow8l0ZnQly8lGodUw6sI3iLM/8f0aKd+I+t5/M1QmTBniWrPc+PYxu+1BEng54IvpElx172xl5FhYV6jCRew+8c7/37rZre9vc1uPaE9J+duanR13Xbm3aL0iwMoIkqN9F/7MUehYkg3g/sLQylEPaAiZ5ygGgaAuCJ/a29+jbR3oNHKCz7Yg828z2zLQb88SPR+R59S036zpPjHnOjkWeWKpE8Cwp9cCTDZUIMKHj19hWZo0oKh9krDB85lkniMLDWaHvOm3UNO/JcmHqtKAA3qZZT1ja3rK8ry1veXv/ML8pHnk2NXpjnrFuO87zxMEgjDrtwSCYZMCnh8PU7z6P+96ZT7mlyLNp2I5NW97m0caSUdg1daLaOPWtz4CH3JXZNP3TUgIoQI+8pRY0/XiCpkuhi/b9bOJX0mfwIN3b3qPfbdLzdg88cTBI6+bNgoNB8FedbkuV4BjabUfk+YwXeWKCCMDJrZlIl5SW6uCwbRQ/3jZkIp7GAQoDs+kgnobo0iAjt/JEPB2sM6kFJcvbe1q55akDGXib58qS5btlbdqvrM0nz+dx9f3SBE/MtscjT8y2FxbImthSJc62c8yTe9vRZrinvV9n8LgP601kJ8yD/ZEn9bNJVxZk12HlifyJeX4+CRmDHQuaQbwfgEKX4MkuO9Jo3y8mTZTegwdJzcZ6uaV/X+k5oL9s2rZFAJ5YOfFTbJ1ndU2ajXnCOL/+frJGnk+MeEZefvN1wSJ5d51naVmZGphf47DhktGwRgI91/DcNI3WpXACV+am6SjUtekovOvYBJf2UIw9t6fcsVAm0bPDucpiE0aYhMR5niXotgM8s7Pie9vzirzvGPFgEJzihd0raA/8xijtkkpd2A7qc20okRx5rr0iHcX+g3ST+Rjy/XzUlQUBJ+V+AEoZQRQUs+1fTPpKeg8aKDUN9XLrgH7Sc0A/7baXV3srJ7hIvrauNr0mjGCYnDAaOvIZeRmL5GPneaLLDh7rPNdv2PAb8AzTkNAJMgQ/uZ/RQWYN0s+QE8lc44/qXAQolCPfTb1hhWTv4dDBgwqeG9taZcrsWbrDiODJw5DZdQeAAjzZbU/2vqO2Yyr0E9mZX55rz7B5K/PzgTCyML7nAqabJlAmogTMIIp/jl9+PUn6DD4Cnog+sUQJhyHbRfI16QaeMCgd8+xxs04YvfzmG4L1nRzvRJcdF6IH6LIB/BoPeVHBkoZiDcrlcV8/wwySRXUS1OOWAShAlgwcujqfUR4p74+0K2NeZ9NE90be+vINUt/SrMvf8A+6pHyDfq9oXW6ujnlixxEA1AXPMM/NNrLUbctUpPksbl1BNkg59Mm7dp0sTd8IS12fRDkro++6NBF4Mo/giWiTPOjBAwflq28Ant5SpZ6395ebb+ujoFlVXytt246c55l2kScaF+B5VY+bdMIIO4zYbbdjnmXr1yuQ2Mbw48M2NPQSGQ8Nrj3UNfCoaThKKoEoEbjQKUmT6TLfUj6vlZFnva6OlUflWbdL/eo5fOiQnqqE7ZlTZ83U2XZEnphdz8zxFskDOHFxzBPRCk5V4jP71dteGWyBZaPaRZB+VBtNZPd+eVF8ygVMPx91wTMoTeC01AInePQsJn7zdXyHUe+BtwuWK6H3wEXyabtUCQbx9eTJctXNN8rQEU/rmCe66Yg87UL5svVlvuAZtWH9jMPKohoinh9lggzbyuE0SNN5OkoBHqzD8lbmAoybhq4r68o0dpil8n7u78F5sei1KHjGuu1YqmTBk7uMcmN72wGemG1HW+HZ+D5TQd36aA/WTlLBh7Vja/uJ+Kh+BtAEKPqBJ2VBoEm5BU2XJ4ii2z7p2290zBM7jLDG84bevaR18ybttgNEeapSVbrNtqORv578nVx5E8DTmzACeGJnEQDU22E0V9zIM2pjJjIMa2gwXJsO4qMaeCoczwWGVIJOOtVFQAYFeGq3vblJ7Um77WbCiOOdiDoBnljnqWOexUWdAp5R7AA2Rv322JstE2THQfJE/hLF9wiUftSCKwHTj7rAadMETyxPqq6vkz6DBsoNvXt6Y56xrbb4ABz+qqrS7NPDmNEEeF51800Cw37p9SPddgAnLoyBbijfoIaERojSeNANMoQgwwmSW2OMwtMB2kPTAdQIZqn6LVHq08gzNuaJf8Y4DFm77bHZdttlx/IlLG/hkXRoL3svpPEbSO3vsW1LHStLBQ+bs/VEscEgm04mD/IdyMP6oR9wJpL5AShkFjTBQ4b2+Wbyd4KxzqoYeOJwEE4YNbW1xQ8GSbvI8yjw1MjzjfiYJ2bbZy6Yr+nyivLQ4Gkb3A88kxkM8qMYpqtrDTwZ7zqEdcj28DAmXn7lmZeI2nLUgwy/hekwFGWsnptmHu/npoP0qQfKskH08KHDsr6iXDDbjjF0Rp7otvNUJQAo0pwwCgJP3iPMfaGL98UypMnsIUq+a3dIh7HdMPZPHetLQbz1sVQBahCAWhA9Ap6T5dbbBwgOP75t8ED9jDnAs7K2VnCwNZcqpd0OIxc8X3nrTQVLdtcxeTRn8ULZUFGuM2tBjYP/ZEGNSzkNIhn1M8pEsigGb3XpUKmiFlTIs26m043i9/E3WZ6ynw8flg2VFXqq0rS5c3RoyI55AjQZfeaXeEuVOOaJtkI9fIedQXEP1gsedmZtJAxP22R5ppPRZH7g5sOPIKM/ETT9ZEF+auXJok9Gly6QUg6KCcFvp0zWXUXotgM8r721hzfbXlen9MiYZ5p9hgMvfhLGPHXC6BkBeKKbbmfaAaDllRVqZPblk2djBlHXCP7/9t4DSqorzfOcsztn++zZ7Zntnt3p3p6e7q7pqi7bbmqru6qrq0relLw3WIFMyQMSQhISRl6AAAkjIUAICeGthE08mZBJegfpvc8EhJUQQvr2/L4XX3AJRWSGyyAziDjn5b3vvvvue++af37+BjvvaaIFux7OxO6uji2aSFIDBXdRu2WBedjWwLKL6RzwPFB+UOpbm1UEhCMGbHse2vacbAXO75gq+RRGjJ31VSRjFGtdd85YW25ZOPlg87WnMlsXbj0rC5WGWnO2NrtLubc7AHWvBQKonTM+S1YsU7YdI3kiyl97283qlllZW6vy66/Ofq0yz4pk23rYKM+rbr5J5VGv+8DTlEUAKXae5RUVCp50KANCx1tKnsENHEgrCzXwVu5OlkjyoSYxE767a7YgIkltEafSc2KJcPri7FlPYVTb3KjgiVLSTJUskjzgaS6aBysrpE192z1Tpe7++TB+7jtEMp7R1g01r4KVRzKXQ9W1NRIqtTXHdcvbuuwOOAOv2bp2AdPNA5acG2hailiGPdBuGzhA2faB9w/THTRxsa2orZGWjg7/vu1Jtw0H4PnRksVy5U03qOucse1QngCoUaAGnjYwNlCh0lCDbeWhJkuwciamlQebpFbGgiAf7cKw+9wFmcpHBpaB/XX267Mq88S3HVEQkbvYPTO3sOA7Mk9cNgFP8zBCkxvYXrjnNpa9kdp8Czd1567lo01t/fSUuuvSBUrK3fNgeRc0g+UNOLkG285OFLhlEkVpwPBh6urd2unJPAFRCwySfJTnl+fAc/QLY+XN6dPUHRPQxM7ToioBnkxcd1AC8z0NaKQTJtzJafViXSjhLsxUvfABFfBEXq7g+ek6UbYdD6OiwvOiKuXg24623RcMOb+oUA2wu6M8Ix0Hmx+B97nllg8ntXkXbequB9aOex4q39Mas+uBazPwPBhoumVGZQYDT7cMzmLZqhVy64B71bWWzd+uueVmtZjQOAWutr06GWWeSxarqRLgCeVJPE/AkwO2naM78LQB6y4NNRmClTMZKbdJ6eatzE3DmehWh/ssb2ngYkqdhw+OPfWVJ/Msk4bWlnNse9lBlXlmZHkh6c5p2337tre3qZE83ivxBM+e3tWu27wgpcw9D8y787CnfHfz2NYBa8jyPaXdrTeuBQKmew5Qcu4CZrC8C5SBeerzz3HF6lUKnpiZAZ7s3d7a1aHa9uZ2R9uebJHkYds/XrJYrrrpBhn9wvMKnuaeaTaemCtVVFUpiW4D0NPAMfBWp6dJ4F7vaQIGTt5wzg0wbXH01xQgMTBx8919j9UPrOOWu3nqBZ4H3hvOubWh2vbyMmlsa1UuJpDyRNYJeKqXUVGRfw8jPIwY23Ce1dt17D1srvE8y4dKbc5xvac5bdfddRBJ3tZZYGprtbs0GGC6ZdwbCJruOWz78lUrVeYJpTng/mEKngRBVoVRh+NhlHyU5ylZuHiRguczL46VN32mSsauQ3UCpsTio6PozMBBCnYeyeDb5OkpDTVReyrv7cVF+wYWlob7TOq7h90XWOaeR5sP1ra1Zd/gnlt9u2bn1LF8YGr3W/rN2bNqqWGUp8o80bYXF0mmLzDIOVOlImXbMVUqKCpUgOruWYHPTtR5T/Otp+s9zXO7bmuIc8v3lLprkbp27q5by5PaAWCSN+AEIC0feI1zriP7RC7tgedAlXkOvH+4su3IrQFPFEZffXPW8zBKtq2H6dyPFn+iCiOVeTrgaZr2z7ZsFvZchoqwwegu7WmA3es2UbpLe5qMoa739mKyhW1A0V1q79Jdnf56rbtv++abbzxTpZZmpTxV2152UApKir9jqoSLpoWkIzAI42pt97U01JyLpLy7OR/qmrt2QuW7W5vuNQPOYKkLnIF5gBPfdovniczTrzB6YLhSni3t7RoYBLb9tM9UqTzZ3DPpzEDwBDRN3mkh6QBPFrfb+cHyDHqoQbXyUBPDyqlHPpKJ6NbtzYXGc2i/vwJdot/7m7PfqG87gUHgZoxtzy8uUm07VKeZKrGHkWnb8woKtJ/Pnj0btK97GmO+s6c68bpuc8Kdg+Hmbc5Hktr6sPUUKg22Pt2yYKDplgUDTQzj3bB0UJ5LVy6XWwd6CiNMlX5/261q50lUpaa2Vr+pEnqTRP3+QyIedOqLL+TDTz6WK29E5ukpjABMwNMv89ywXilPJpvb+W4+1AC65eFOkHAnXrB68VoQbjsGOFZm56n0fJFDsP749ptvNC5CvY/yhG0vPuhTGNkeRiXeBnBqqlRVIa1qJF/YLXjas2xMAlOuB5b19nmw+RhJWbjrw63nrq9geXeNunlA0s5dwAzMuwBq1KZFVCI9dfKkhrS8ZcA9yjXcO/w+ue722wRTJYIh49tugUGSzs6TzmEPkituvF7B02Sepm1X//YN64UPZyJQn04PNlDBymyguWb5UGm4E41FYHV7a0G4i88WairtGSwD+0jBs7xMzoHnOSP59KxMv7LI8233RVUCPHugPAOfY+fMB8uHSntrzoRql7nqXrO5Gyx11wbX3fPu8sHWnpUZSHaXBoKme86aD6Q42b+d4+SJE/LJsiV+tv2eYUPlegXPDqmorVaZp/m2Jx148p/jg48XnpN5OnaeGMmb3LOhqVEnJQMSDXiGGvhgEyhUmTsBY82zsNw2Qi20VHnkgOn2GeCJa69p2wkMUuKz80zPzFTFkWnbAVDbt13B02eq5LYX77w7BxKZDzXHA8tt3Vi5nQdLDSwDU+pamQGorWM7BywD8wagKIbMnx1q04Czq6tLjh87rvE88TCqqq+Vu+8bIkRVQmFEYBAoUKM8y5KNbUf4y77Lyra/+MJ5pkpQn1CesPGNzU2C/MkGoac02OAGltmECDeN1+S2Bei2Z2WpNDawDOw/Bc/KCgVP/hEj81TwLPSM5M83VTp/DyPGJ5TMM/A58TgPnA/ueW/lw537gfUC11JP67G76waawVIDTsCTw4Czs7NTOjo6VP658JNFft/2e+4bIjfccZvPSL5aQdQiyR8sL0+EJFKfkRCZJ2T3/IUfyuXGtjuUp4Endp6NTR540sHdDYRdCxxczm0CuHkr6ymN1+SNxyLry224YOPmL9Q7e+BZrkbya9Z/JiOfG6N7GKnCKHu/su1+UyWfnacn8+xeYZSo74nXvOupnZ7mf7DrwdYYZbYGI02DgaeBJiAK1cm2wwAo4NnW1qbnKJzRtlfV1ynlSTBkKE+LzWpRlUrLDiYXeNIpcxcskCtvvF6eCeFhhJ1nU3NzUMoz1AAGKw82AYKV9TTRIr2eqIUWj+cAeHZE0p7dEyoN1hZ1rdzNu2XByrluz7G6oVKVeVZ47pnsxOqx7WXigqc/qlKRj/L07WHEOIdqN9HlNud4rr2XlcWSWnvWRrD1EKos2BpzywBPziMB0WAAGlhm7Dyy0G+//VY+3bBB7hw62BfPc4gXSR6FEfu2t58LhlxyMEnBM5jC6FxMzw3SFIRtdweqp3yoCRBYbpMoXmmiF1m0zzMwCkxpL7AslvOe2rP3D/cZVj9UquDp821H/MM+WbDthKRj33aXbbc9jFzKM1S7iSynL0I9j3nKtXjNV2sncF10d97T2osUQA1sjcsMBE/3HFJyw+bNuoeRFwx5iAZD9mSenrbdFEalyQaex44elfcXzPfLPNG2B5oqhaI8wxm07gadazZZ4pmGmuiJKO9uodnzwwWm/lLPvstSe28M5PmhMGLrYWSeI597VorLvHieKIyMZc8p8gKDmJ0nHkbMCWuzv6XxnM89rSGuh7MWIwFRANJVIrmA6eYZ3/WbN51HeV53+62CeyYKo7aucyHpkg88jx2VOR/MP2eqNH2aumOaiRITng3hmlo8tr2nQQpnoK1OPCeYtXWhFpkBhpsGexf3ejLl+dZg38PiwrME90zmEh5GJeVlGlXJwBO23TNVcrTthedknm67wfq0L5bZfIx3ytqxNm0dkfa0LoNdNwozWOoCrQuWgXnGVynPoYN1AzgURhpJ3ufb3t7V6fcwKioppnpCfglRGCEEft/AE9/26dOU8oRlR0YFFarg2dws+CkHGwS3zB1QBtk9d/M2AWJJ3UVDO+55b+TdRZzKn5PNdtcXrBTAE1OltRt92vbyMmXbsfM8j20v9Ow8bQ+j7toNda03xj3WNmOZ493d664ny9ta5Nzy3aXBgJMyQNKuWT4QODnnt2HLZqU82YbDoirhlmmmSuaeWVBUlBDg5CEJAs/P5b358/weRoAnFIJq2n3h6Ixthw3rbiBsAHtKu5sQ4V6LdUJHc3+oBZsqDw2kTGQDz3UbN2gwZChPc890wRPqU33bURgVFgSlZMPt62jGt7fvCTa3eWaw8nDLultr3a3VUNcMMGHZqWPnLqAaiFKHH+B5x5BBCpYDhhMY5CY1VQI8mzva/XaeiGIS9UsQeB5V8Lz8hutU2+56GGEkb3aeaNtDgWd3A2jXwp0M4dTrzUkeuDh5VmBZ6jw0WAb2DYsFmSdsO1wM7pkojGDV2YbDfNvNUN7Ak5B0zDeOwDbDOXfHzc1zb2/On3DbZp67dcOZ96Hq2BrrLg0FlsHKDTADwdPK3ZTx3Zi2Re4YPEgqqqvF24bjZjVVwrcdbbsZyecXJhl44uQP5XnZ9dd57pmOnSeR5M2/PRh4djdYdo0BJx9q4MMpdydZb+XDWZDJWMcAKlqQ6qlPWFwWSR7KEztPpTxLijUwCCDKkefbftgFT8xgemo/muvdfWtvza9I2g1nTQSrY2uupzQYYAaWQV2GC56btqapkXxZVZV4Iek8ytPA07Tt7A6QqF8CKc/54lKeyDhh2wFPWHgohuaWFj/l2dPg2PVgAxxpWSSTLpq60Sy+RN7jgpubD/UObh3LR1KXe0LVj6bcwBPf9nUbN/q07V5IOkyVTNueV1Lk34bDTJXi/S7hvj/ziLrRzKd43RPpOnHr2/rrLg0ES/fcKEsrs/NgKeO7edtW3XoY19qBD9yvbDsxWb14nu3yxVenFTMRxSTqlzjw/GCeXH49bPsLqjBCxgl4GtVpMk8mlA0IHWt5N3UHMZp8vCZfOO2Eu5guVD0Dv1CpvRfXodJC1Yu03NrtKXXbDVWXxcLGXx7bjqnSGDlQUa6KIhRGhQdKFUCRd9oeRhYMmfZDtZuo8nDmUW/WiWYN2T3uuuwpb0AZLA0Gmib3ZHy3bNumdp5wDQMf8GSemCqhQEL5Z1sP5xbkJwo7E6Uw8sk8Ac8XPfCE8jQDedO2t7S26gJlojA47oRxB8YGLprUbbO38oladLE+xwWmvpB3vyfU+1DHrll9VouZKnmU5xi/kfyefXuFAMjE8cwu8I5yNoDraNdI8r3Fttu7hZMyD62eOyetjNQtj3c+mnXk3uOuzZ7yBpzUs7ylLoBSZt/J+Kbt2C533TfEiyT/wP1y9c036hga5XnGF0k+Oy83ecFz9ItjZZLPztPAE6qTSPItba1BP5zJQ2e7AxZJ3gaht1N3sveFvIEMKe/jnidD3r6JSUMosprGBiksKpIZM2bIW9On6d7tbDT48qQ3Zc6CD2RH+h7JLvAiybd0dkhBkcfiWf/0hTEL9x3iOZcjWUvd1Q1co90BqQFmsBQQ5fvcX9qOHerTDuU5yMe28w/QgiGbb/v+3Bz3tl7NJ4RtN4URMk/behhq04KC+CnPXgDPeE4yt61wJ/mFqBcMGOPJcgdr/0KWsUIAz6qGeg2o/eGHH8rzL76owUGYY/c9/AeZ+MbrsmXHdsE9k72/Ydtz8z0Wz/rmQoxVrM9052SseYCRNroDyEivhQOggKULopzTL+5PKc+hQzScIGz7tbfdrJHkMVXSSPJffaXV9+ckIXi+O3+epzDyse0ueKIwWrd5U9woT5sAsU6mYPfHOtl7+/4LCWIX6tkGnpX1dcq+fzB/vox/6SUpq6lSJ4yHnnxCXpk0ScFzf16eVNRUJQ14Mp+Yp5YGm7PRlEUKkt3V7w5AueYCp+X5Hve3Zfs2ZdtRGLF7pm7D4Yvn2dR6bhuO/TnZ7m29mk8I5UmIqXfnzVXwhPKc9PZ0/77tfta9G/BkUdLJ3Q2Qey2ayRLOPb0NfG77wYDIvU4+WJ2LsYwVgsyzvK5WCIa74IMP5IXx42RnRrq898F8GfrwQ/LSpDf84FleXanbcLABHD+jPIP1ndvPgf3fl8/Dmc+R1nHXWDT57kDUQNNS3s39oW2/Z9h93jYcw9iG41a18yRQCJ5GZueZmb3fva1X8wkBT2LzzZ4/V664wQtJZzJPV9uOAimUzJNJHS54RjoheqpvC4R6lu/NNNgCdsvs2W7ZxZ5nhaAEgvIEPBctWiTDhg2TgYMGyW333qPhy5B7bt6+TbJyc/1bD4cDnt31LWPBdTe1vN3njpfl3dTud8vime9pfkdyPRrADLwnXAClD9wfdp733j9MQ9LdO2yogqfu2+7Ttlsw5Mz9We5tvZpPCHhCec6a+/55bDuC/EDwbG1rC/qxTLDAQXDPmQCcRzIReqobzwkcblu24FKp5/UTbj8waZB5VjfUKwX6yaJFMmTIELnjjjvk+ltvVRYP8Ny0batk5eWec88Mg/IM9x3iUS/ceRJJvZ7meTTX3bUXTb47AOUa1Cff6P4AT9h1giEbeKIwQuZJar7te7My3dt6NZ8w8Jw99325DPfMAFMlANSTeW6UUOAJW9Ud5RnNBAi8J5IJGW3dwAVGO4FlqfPIgJP+4gflWdPUKFU1NUp5Dh06VO6+6y657tZb5Lo7bpOXXPDEVKmzQ2KlPHtrrKKdX93dFzjf43EeDXDaPT0BKN/i/pTyHH6fF1WJDeDYwwjw9LlnGuWZsW+fe1uv5hMCnoePHJHZPpnnM+POt/M08Px0y2ZpbW8P+rGhwDMeE4A2upt0sVzrrcXVH9tlDN0jnt/ApKmuq5Vde/bIhg0bZOnSpcq233PPPfL7W27WbWqN8sTWE227gmeAtj2e7xRLW7HMuVD3xmuthGrHQDHcNBrwZNfMypoapTzZPRO23dt6+JzCKOkoz8OHPfBE5jlm3Ivy5jQvnqex7WjesfNsCxM8Qw1gtOWhJlws5bEsnmS71wVNNx/Jd9p9we4BPGvr6+Wz9esFM6VVK1fKfffdJ4AnlOe1t97iN1Uy8MQ9M6+PgiffGMvc6+5ed41YPbcsHvlwAdStFwimvJv7M8oTBRHxPKE8NRhyrWeqZL7t+5KRbUfb7gdPn5G8gSdRlaA82zo63P7y51k41tHxGFy3DZtA8UiDLeyLtYz+NMDrLrX+sToGHFZOatdI3XLLM1Gqa2tlw8aNsujjj+Xjjz9WynPAgAFy/W23qnH19HdnyfY9u9XTyAKD5OZ73iih2rX2L2Ta3bzkvbq7Hsk1d03Emre1GmnqAijv7v5U5jncUxjdNWSQ3HDnHWpuVllXo/aepm3fm5lkMk+M5GfPe98Dz/Evqm+7uWeab7tSniHAk0kS64AG3h/JxAqn7oVcYH3h2QZAbkq+N47A72WRYap0sLJStu/eJaOeGS0fLVwojzzyiLLtb82aIfi4Z+fnKXhiK+gZyefp+rR3Dmy3L527czDYe7nXY8kHrpNozwFO7o0UQKkPiPIN7m9TmqcwgvK8c8ggufEuDzzxbWcvo9Nnz2j1jMx9Oufce3srnxCZpx88b7xexgCePrYd4PSDZ9pmae8MTnkyWaIdxGD3xTK5uJf3CWwj2IS+mMp6AyTDaZM+5oe2naC4G7dvlRcmTpDamhp59JFHlG2fu/BDLyRdcZH6t7OHUX8Dz3DmUuCcjOU82LqJpixa8LRxNeAjnifadtsATilPDQxSd562fc/ejGQEz7m6h5HKPInnuWmjAifgicxzw9Y0ae/stL46L6Ujoxk4955YJpJ7b+Ak5lpg2cV0Hg7A9WYd+ppfRXWVbsMBRzN2wniprqqS+4cPV8oTv/YCYnkWFip4Qnki88wtCJ/ytG/oD2Prztdo8+7aiUc+UhDlvd0f4Hnv8L63VhwAACAASURBVGGq7Lt76BC58a47pf1Ql1TV1UlLe5uYtj19797kAk/sPDFVYuvhQPC0TeA2btsqHV1dbn/580zYaAcw2skTeB+Lpz8snN5+R7cfDFAuZMr38jPwXL9ls4x+4XmprK6WT5YulRnvvStbd+30U55EWAI80bbn5p8DT/cbgvWhXXevBStzr1/IfOD8jeU82rUX7L5wQZT3dX8b09LknuHDVLt+15DBctPdd0p7V5fG83QjyafvSzLw/Bz3zLlzdQ8jT9s+VXfPNJYdynPj1jTp7KPgeSEXwYV+tgsQlu9rKYussrpSKc8NaWny5JhnpOjgATlQWSGZeTlSWFriD4gM9YnCyAVP7g/1TfR/4DUbk8Byzu1aX0hjAUz3XkCQ82BgGE1ZTwAaTOaJe+bd9xEYpEr84KmUZ61vGw4vGDKmSoxDIn6JkXn67DyvvPEGGYORvLNvu+1fBNseT/B0Bz/afF9YABfqHYIBQ18tM/AkGPL6tC0KnsXsYVRSLESSZwM4tuHQPYxsA7jODslxYj/G49su1FhF+txo14PdFw1gBt7THYAGB89tGkEeo3jA8+Z77pLOI4elpr5eZZ5ffu1FVdq3Pyu5wNMCg8C242H0hg882fzNqE8mfUdX7DJPG+BY00gnZF+rHwoMeE+uBb6vlYW6ry+XA57lVRVS19yk4Dny2TEajs7A0/YwIiWavMk8s53Yj/H4vsA+7evnsayRQDCM9jwUiPJu7i9t5w4Z9ujDUl1fpxToTXffJV1HjkhdY6Mq/0zmSWAQ+j0Rv4RQnirzVDvPGzSe5+tT39J92rHzNFtPBP2xgmcsk8HupePJ9/WJ3937RQIEtBNJ/b5Yl4VSAXi2NMsGpTxHK9sOeO7d7+2eafsYEc/TTJXiDZ70TXfj0lev2dyPJo0WNO2+YOAZjPLctnOnDHvEA897h92nCqOuI4elrqlJWrs6/AqjzOzs5ANPjOSvvOkGVRi9Me188FQj+c2bpD0GO89oBt5Asr9O+mCLsS+CW2+/k4EnG8ABniOQeR44IPnFxZKRlemXd+YVnW+qFG+2PfA7bXys3M77Whrt2rH7DAijTQMBFPCkLWuf8QU8iaqEXefgBx+Qa2+7RT2Mahsb1c7TKM/s3NxkA8/D8u58DzyfHfeivDF1qlKesOxmqgTl2Z1ve6iBoYPdjrYODzftaxM5kvexRXmxpx54ehvArd/iyTwBz7yiQpV5QnXq1sPF7J55Ttve2+DJuDCe7vhEMr6JrhvumglWL9T6DKc8EDztHBAlb+CJcTx2nuwMcNVNN6qiqFplnm1+I3n2MKLfEvFLGNvOvu0ojBQ8p50DT1MY4WEUCXgGG8BIyhI9McN9ni24nuq7C/Jiz7NQMJJvbGtVq40Rz3radkDTVRihODJTJQzqEwGeocamp/G9UNcjWUOBdcMBynDrGIAaeO7YvVvuGDxQLSXuf+xR9VZsaW8XwLOpvdXPtufk5SnFmjTgqcGQMVW66UYf2+6ZKpmNJ6ZKKIy6CwwSrNMDBy+ccyZluAAV7QQOXDBuO+61YO8S7N2szO61++z8Yk8NPBvaWtTZQk2VDpSqtn1v9n5VEpnME2pUfdvRtuee22nxQvWhzQ2eb3kb38Bze0e3PN75cNZQd3V4H64HW6+RlhmAMr670vfovu2M3R9GPCGXXXetNLW1qQKJPYxsAzj2bef5ifgliPI8LLPnzlEj+WeIqhSweybgqSHpfMGQ6eTAAQrW8YF1wjmP92QL1p5N8lhSazeWNi6We1koaNsxVcLO84lnRqvME1Z9X062yjxN4w54qsLoUKf0hsKoN/qcueC2a3Ojt1JbR9a+nYeb2voNtmYjKXPBc3dGhoInY/fIyBHy22uuVvBE5tnQ0uLfhiO/qDC5wNOjPH0eRuPH6dbDazesF9dUie2HW1pb9B+GdRppYGeHO4CB9Wwi9FbK5KZtd5Kn8r0TGCSwX5k0ZZWeqRLOFk8+M1oKS0tVYQTlaTJPUmPb8W3vL+AZ+L2B5701p2k3cB1Fem5Ayn2Ba7mnc8MBxhe3y9sGDdB/fI8//ZT85uqrhI3f6puapLH1HHgWlhTpcxRIevlPgihPPIze92SevqhKgKWZKin7vv4zaWpp1s8N7NRIByxY/d6cYIGTOXWeGNC0fmbSEFUJbbuC55jRUnigVI3jDTyNbSeepwYGOdQl+3PP7bRobfXntDfneLA1FU1Z4NoO55zxxXPotoGAZ5WMeHaM/PrKy6W+uUlNlXDPNG17UUlJ8oHnzDke2/4slCe7Z27epOAJ9bl6w3oBQJuamr4DntEMULB7enNi9ecFlwzv7oKn554J5Vmi4InCCJYd8FSFkQOeyUJ52hj25hwPtqaiLQsHMN06Hnhmya0D75UDleUy6vnn5FeXXyp1TY0C247M86tvPDlnUWlpkoHn4cMyY857auf57ITzwdNMlQDPxgDwjHZw3Pt6c0IxaWnfJm8qTSzF6fW3/r+VSl9UpY1bt6qdZ0FJiWDXCeV5PnhiqlShtoHYBNovmcauN+e827a7zsLNu6AYbp4xYlfMWwcMkNLyMnn6hbHyy0sv8YMnbPtXZ72tiqE8YfcT8UsY2z4T8LzxBnlu4niZ/M7b/pB0gCYKI2SgLniGOxjd1XMHOt75ZFps/ftbvGVSVeOFpGN7YbTtGMjnFxedpzDyKE/PzpPNw/bnJBfbbuMY77neXXvdrb/uroULnNTjl5WTLbcOuFc9x4gJ/C+X/FZqGxuU8kRc8+UZz7e9+EBpkoEnlOd773oyz4njZcqMt78TVYkdNBsbG7Wjuuv0nq51N9CxXrPJmUovBIUZ6pk+8KyuUm27gSeumQAolKcbGATfdjNVSja2vbt5GevcD3V/T+sx1PVIwXN/To7cAngeKJXnJ46Xf/ndb6SmoV5lnsQ0MPAsOXggycDzyBF5593ZaqoE2z5lxjtKaaIwgvJEeeSx7bGBZ6gBjrScSRh4T3cTM3UtFLD1frkHnZ6RPBTIpu3bfGx7sco59+XkJL22Pdz5Fzin43UeCiB7Kg8XQBljPIegPAtKi+WFl1+Sn//m1wqeDc3N0tDSLLYB3IHyMt3Gw+ZFb6YJYdvZhuPt2bPkyhuv1/8ab814RwFTg4LAthNV/tN1MVOe8ZoMtGMT0s1bWSrtfVAMt49tcaBthwIBPDFVgmVHSWTadpV7ElWp0GfnialSTo7d7h/vcJ/bn+vFc53QloGkm7eyntJwAJRBwnMI8GRMJ7z+mvzzv/1KAyEj7+RwwfP0aS+2p39weymTEPAkqtL0WTOV8nx+4gR5a+YMv7YdAIVlX7F2jTQ0Nuhn9tThoa7Ha1L054Vxsb27rQuNquSAJ8bwAKUZybumStiEsg1Hdl734Enbydyf8VovwdoJtUZ7Kg8GpowD20QDnozpK5MnyT/+6pdq84mBPId5GKEMTDLwPCzT/ZTnBGXbzVRJwXPjBgXPxhR4JvVi7Q0gOgeeXmAQtnOB8kTTnltY4Kc8zVTJ7DwJYwYraL/AdwtVHlgvGc6DgV88ynoCylDXAwGUscgrADzvkay8XI0H/Pf/+gs5UFGuLDv2nqZtL6+slC+//NKGr1fTC0J5Tps18zzKk83gVn66Vhoa6/VjQ3VqqPJ4DLS1kQyL4WL6BlsdFhhk847t6p4J5cnhKoxQHBl4sg2HqzCydqzvAs+tnJSfe97f8zb3452GWq89lQcDz4KiQrllwD0a6GXKO2/LT3/xcyktL1eWHXtPM5JPOvDEPXPazBmqbX/hpYky/d3Z/pB0sOzmbdQQpbY9noPe3xfCxfb+BnKAJ77tW3ZslyfHeJSnmSqZtl1NlWwDuI7282Se1o4Bo3tuZda3ds3O+3saz/UT2FZPQBnsejDwxH7zlnvvkT2Z++Tt2bPlxz//n1J88ICy7GjdbRuOyppq+eKLL2yIejVNGOU5deYMT+bpgCfAyQELvzpKhVHgYMVy3t8XwcX4/rY6DDw9yvNpL5JScZFk5nradmPb/aZKXZ3nhaSzdkjpx3B+ydrfsayhwHuDgWM4ZS6AMhbFpSUq89y1N0Nmvj9HfvjP/6TxC3DNJCzdKZ+SqLq2JrnAE8oTDTt7GKEwmjZ7poKm7V9ELM+V69ZGrG0PHKhoz5N1EVwM32UgZ9p2Bc/R3wVPi6oUag8jayfSNJn7ONr15N4XDlB2VwcQ5XfgwAEFz50Z6fLu/Pnyd//0j4IXWWtHhxrLG3jW1NXKqVOnIh3GqOonhPIEPJFTeOA53gPP9evVt13tPDdvUoVRU1Nkdp7uIMWST+YFkOzfZrMeyhNTJdj2xwHPwkI1V8r02XlCeQKgKfCMzMwslnXFvcGA0doMdi1YGWNcVlambPv29D0yd+FC+f4//r3uCtDS3qFumsa21zbUy8mTJ21a9GqaEPA8dOiQB543XCdjlfKcJevQsK9bqwAK67501UrpDjytw3sjTXaASebvs9UBeGIkD+Vp4AlQmsLonKlSgUZVwlTJjSRv7USaJnPf8m3xWm8uKFqbbll3ecakrLxcKc9tu3fJB4s+lu//w89kf36eNLW3KeV5+qznz15bX5d84Gls+1hknrNnqW874MkBeC5euUIauqE8rcPjnSb75E/27zOwIzCIgud2DzzZqyjQzhPzJRYcIelaA/Ztt3YiTZO9f+O13lxwdNt0y0PlGZOKygoNSQdn8eHiT+T7f/9TNVtC5lnb0OC380TmeeLEiUiHMar6CaM8DTyReSp4+kLSYeeJtn3JqpXSGAI83c6OV97+qyb75O8L38fM7M33oP2qmmpP275zhzwx+mkNeoypEgojV9uu4FlVKS1o2x07z6hWTy9/V2/2WaRtx2vdBWsnFGhauY0vRvLEa/1o6RL5Hz/7iY5tc3u7ummah1FNfV1ygWdXV5caxiPzhPKcNnuW3zwJmSfa9iUrVwQFz2CdHWtZpBMnVT8yORn9xc/6zYDJzuOd6uLyBQZJM/AsyFdD+azcXMktLlS3PtdUCYolBZ7hj2usay7U/QaQ3aU2vgRD3gB4Lluq4In3WEtHh1TBqp/2DOOReR4/ftymXK+mCaE8FTzfeVuuvMnTtkN5Qm2ath3wXLZmlTQ1e8GQrSNDdXis5fFevKn2zl+E3c1Y+sp+8eg3a0vZ9tYWATwfH/2UGsNj54lHilGe5ymM4sS28/x4fEd/aCPWdRfqflvvoVL6uKa2Rm4b6FGei5Yvle/99MeSmZMtrZ2dSnme/NKz7axraJBjx47atOjVNKHgecUN16mp0tvvzlbwXLP+M7+d5/I1q/2R5OnEUB0da3l/mKT9/R3DmbHx+Eb3OX5tO+D59FOSA+UJeObmKtWpgUFKitVlk03EUBjtzz3n2+62FWk+Ht/Sn9qIdQ0Guz8UcFLOr7auVhVGuN+iH/mbn/xY9mZnSVtXl8b0NLbdA89jkQ5hVPUTBp6T354ul9/wewVPPIxQEqlf+/rPBDvPZatXSbOP8gzWufEq60+TtL++azgzMdi3McbBygPLgrUP5ammSjt3yGOjn1LFEDJPwBMQdU2VDgKenR1xA0/eh3e0X+D7Jtt5vNai20644Mk2K0tWr1LKMz1zn1KeBEX+whcMua6xQY4dTTLKU8HzeihPzz3TwNO24UDmGW/wTLZJ21++x0CkpzTwe6hvZXavnVtq5YFpJaZKzc2yZed2eexpDzzZKRO5mIEnKQojAkp42va8wGbifm7vnWypC3zxyocCUAaltq5OKc/1PkILyhNXTRR/uGdaVCVknkeTDTzVSP4GT+ZpbDuUp5kqfbJ8mTQ1e7tnxmMwkm2y9uXvYXLzfm6qJz38CfymYNWtTrBrbhmUp/q2+9j27Pw8Zd3NSB623UyV/OCZ3/vgae9o3xFuyn3h1r2Q9YKtVXufYNfCLXOBlL6ob6hXI3l0JYj4/uanBp4dUt1QJ1+c8WJ41tbXy7FjScS2d3Z2CpRnoMzTwJMOWbRsaQo8vz1f8WKTsKf0Qi00AwY35V3D/QV+V7j3BatXWe0FBtm6a6c8/vQopTAJSWemSubbTlQlwBNtOwF2L9Qv8Nvdc3snt6yv5oOBob1rsGuRlBmA0h/E+sVUCeea5WvXyN/85Eeye99edc+sqqv1a9vrGuqTi23v7OiQydM98Hxu4gR5+z1PYQTVCdsOeH68bKk0pyjPiKmNC7XQ7LmxpLbILI2lLWXbW5olbdcOZduz8vI0JB3adjyNznkY5WsQ3eaONslJIOUZ6tvs2y1161lZf0hdULT3dcuiybvgiQ347YMGyLqNG5VbVfDcu1fau7o0MMgJn7a9vqkxycCzs1P3ar/8+uvUzvPt9949z86T3TNh2+MBnnS4DV6yp+5CI5+o7w18brTnge8bbTvcV1Hp+bZDeSLzVBOlokJPcVRcpH7tgaZKuX0APHl364dg32/X+npq4Oi+p5XFkrKe+TU1Nyrl+emmTUpw/dWPfii7AM9Dh3yBQb4UeJ6kUxh1dHTIm9OnyuXXe9p2wJMAyBjI+43kV62QlpYW7ahYOpt73QFM1nzgQkvUdwY+N9Zz3jseP9z3apsaZevuXfLoU6OUXcc9ExA1TXsgeF5Itt2+2R03KwtM3Tr9LR/rWuZ+ftiAYyQP246y+a9//EPZkb5H2ro8O0/TtuPiffTo54Fd2CvnCTFVUvCcdj54sk+7GcmbqVJLa+zg2d8mV7TvG2w2RNsW9/ELdX+wZ/W1MqM803bt9MAzJ0ddNA08/Wx7fr76tmsk+Ti4Z8baD9bn3bVjdfpzGguI0jdgA0byACcACtu+fc9utZqoJhiyz1SpvrFB2HAyEb/EgefUt+Sy6671G8mbqRIp4ImpUqzg2Z8nV0/vzmSwOqEmhl0Plrr3h7pu7brXrayvpxVVXmAQP3jm5qiXkbsBHLLP/XmOqVIfYdvD6Vt3TPpjPl7gqbEwNm5QynPbnl2qMMJUyYzk8W3//MiRcLo05joJAc/29nZ5Y+pbcunvr9WQdO/MeU+Qc9IRpjBatHxZzODJAPXHiRXOOzPSVq+7Ubc6bmr13bLAvNVxn0Od/vJj+wVMlTyZ5yjBRAkvI9u3HcpTwZOoShXl0tLZ3icURtH0b+DY9ZfzaAGUPmprb5PbBw5QTTuU51/9+IdCeDrcM9W33bfpG3ae7NabiF9iwLOjQ8Hzsus8mSfgiT+7haSjMzBVilXm2V8mUSTvGTgJuLe7X2Dbbt3Aa3bu1iEfqjywXl86t6hKsHIojKA4MUtSxZFPYQSAZvvYdtW2X0BTpVj7zsaoP6UxgWdHu7Lty9asFpRGKIxc8Dzu27cItj25wLO9XV6fOkUu9bHt76Aw8oWkA0DJo21Pged37TyjWWTugnLvd8vdvFunv+YtnicKIwXP7Gz1Y8ejyKIqAZ54HeHbjmdKX1AYxdLf7hj2l3w0AEofdR06JLcPGijL160RvIz++w//Trbu2qG+7bDtx784JaiW8G1n54pE/BJDeba3yRvT3joHnnPe85sqwbYreC5bJq0xKIz6y+SJ9D2jmQTuM9z7A8s5T5YfgUHQtkONGOUJUAKegCaa9u9o2/Pz+/Xnu+PZX/LRgueRzz+XOwYNlGVr1siGtC3y33/4A91ypf1Ql447IekwaqpvbJQjyQSeyCtef2uKyjwJhszudybz9JsqrVwhrW1tOpmj6WDu6S8TKNz3jHZl036wnz032LX+XlZZVeU3VXrsqVG6/QZsO+Bpvu2AJ4BKJHmlPPuRwijY+Nh49sc0kjXOtx8+ckQpzyWrVwrBQQDPTdu3SZsvJB2mSsx6jOSTCzzb2uS1KZPFk3lOVPBEzglwom1fn7ZFoyqlwPMc2x5ssaTKQvcA4ElUJShP7Dwz9mcpcJrM0wDU3DMVPAvy9R9u6Fb79pX+CJr2zhGD5+HD6mH0yYrlsmnbVvmrH/2dbAY8uzqlmujxrsIoqSjPtjZ5dfIkueT318hzE8bLjDnvKWiu+nSdrPaZKrEBXGtrq87WSDrW6tqgJEvat5dt33s72wDOY9tHyV4feGY6Iek0qpJjqpRXmALPC71ebP12lzLbDh85LHcMGiCLli1T0DwPPBvqBfdMpTwbG5NL5tnW1iavTJ7kl3kCnlCdKz/7VE2VzM6ztS0Fnkzm1C/yHjhf2+6jPAvy/Np25J6Ap1KelRUaGCQ3RXleUFFXd4DpXlPwPAx4DtQYGFCcyrZv2+opjOrrVGFkbDu79SbilxCFERTlq1POgafJPP2mSps2CuR4tJTnhf7vGe/nJ2Lgk+0ZFpIOl73Hnh4l6fuz/KZK5wUGwVSpolya2lolLwnB08Y13nOyt9pzQTJUnm9SynPwQN2/aMvOHfKXP/yBEFW+/fAhqWls8INnQ3OTHOrqsm7o1TQh4NnW5oCnj21H5mngudYXkg4KlV+oTgxV3lsDe6Ha7dURT9LGiaqEzBM7z0dHjZSMrCxh+2HsOv3gWVqigIqpEiHpcgsKdK4laZdcUKoy3LUTak275YzPISjPwR7luW3PbgVPdCUdhw5JXVOTsu1fy7cCeLJnWiJ+CQFPpTxh25F5jh8vM96f47fzxMtITZVWLJNIwDPcwUlkPRuwWJ5pbaTSyHoAmScUiIKnT2EEi85hpkr5pZ6dJ9twoDCCbWeRXgw/5iS/WOZmb9zrgmSoPO+N7SZs+8Ili2V7ugeen23epAoj9m0/+aVnqtTY0ixJxbZj/A7bbh5GgKeZKqmd55bNuqlTW3u7DnCoTnTLe2Mgo23TJqW+fMAf2rTrPbUfcGvqNIIeMDvP74CnQ3liquSXefrA00KeRfCopKja01xM1HV3TYfK0+EAIuC5YNHH+g8SI3mM5dlOBW37qdOn1UheKc/OzoSMUYIozxbVtgOeaNtN5glwojhShdGqFeq/yleH6kS3PFGDG85zwh2peLYV7jMvlnoKnsa2PzVS97fBxpNAICiK/KZK+V4keaU88/MlBZ7nzOPCmZ/xruOu6VB55jBs+52DB8q8jz/SUHSAJxzrOVOlLxQ865uahJ0rEvFLCHhCeb486U259FovqpKBZ6CdJwFE+IXqRLc83oMYS3vRDFSo50XTVuoeETNVUoXRU6NkT2amatptGw7A06IqlZaXC77teQUFKfCMcuuXUPM3mnJ3XQfLM7+VbQc8F37oA88fOOBZLye+OKXLoLG1JdnAs1leeuN19TAyyhPjeKU8sfNM2yJLVq2Uiwk8GelgEy0FhNH1QHVNtdS3NsvOjHRVGO3JylQjeaM8kXsCnhjNK3i2twl2ninK88JSnoFrICR4Yuc5eKDM/WihjvFf/fDvxGSesO3HTp1U98ym1tZkUxi1yEtvvq5G8uaeCdWJth2Fkdl59lfwZALE8nMnUCztXMz3YudZ19IkOzLS5ZFRI3RzMIATGadp283OE/dMKBQURl9//fVF2W3unOtr+UAAZYCgPO8cMkjmfrxQRTKw7ehNVNve2Kjgeebbb3VcCb6eiF/C2HaX8pw9b65+uN9UiT2M0La3h2eq1NcGm/eJxy9e7cTjXfpbG9h5EhhkR8YeBU/YduJ5KngWuxvAeVGV1FSpsCAFnmGw7cyFRK65YOBJmDnA8/2FCyQ9K1ND0q1Z/5loYJDGBr+pUmNLiyQXeDY3K+VJSLpnJ4yTWfPmalQlozyx8yQkXbiUZyIHMtxn9TewSbb3rayuVlOlHeke2747c58GAcHWE4rToioBqLr1sE/bfrFSnpEAYiR1w10vPdVzAZTnHzlyWO4aPEjeWzDfD55wr6ZtP/HlKR/bnmTgya6YRnnCtit4+iLJ0wHrfPE8+zN4MhlSvwvXA37KMx3Kc6TurAjV6RrJm6kSbHtTe6uy7WfOnLlwL32Bn9wTgLlzOpy68awTCJ5srXHn4EEC10rQFzaAAztM2048T0LSIY4xHOnt7k0I227gecm11+geRrPmvq+BQWwbDmSeS1eu8H+023HB8vEcpHi11dsDlWq/+x5A5lnb1KSaWDyMdu3NOE9hhNyToMiYL5VWlPl921PgGVxhFKy347VWwm3H1j7v8vnnR+SuIYNk5tz3NdwgMk/wo923e6ZfYdSShOA54fXXBPBE2w7libDX7DwtJF1HR8+mSuF2/IWoF2zCpcoS0wPVNTVS33JO2w54olm3eJ5mqqTa9opyBc/8wgJJgWd44Jno9WTAScqPHTENPNlihahKCp6HutRI/ujJE4LqD2077uCJ+CWM8jTwVJmnj/KE7OZYvzVNlq9e5Rf0uh0XmE/0IEbyvEQMWOoZwXvAwHPXvr3Ktu/M8ChPWHeA00yV0MCXlpcpe3exgyc9GWx+B+/h4HWD3R+PMlv3tMXvqA88IbyycnOVbV+5bp10aGCQegE8z3z7jf5TNDfvUN8Rr/ILAp6Q3oCmUZ7YeRLP0zwDrOOCpfEYmN5qI16Dkmon8h5QU6XmJrUBfHjkCNnpY9tdUyUAFMoThVFDS7PKPL/66qvIH5ZkdwSuh54+L7B+b53b+ud9jh09KncNGSyI/Pbne+C5DILrUJfUNXmmSl99c1bB00Jb9vQdsV5PKHiy9fCz48ep3AIzg+Vr1yjprQqjFcvDojzp0N4arFjbjXUwUvdH3wMojAgMsnNvuih4ZqSrmRLbbpidJ+AJmB6srNSQdPmFhZICz+9SlD2NQqzrJNz7XfA8ehS2fbC8M+ddyc7Pk7/+yY/Usaats0Nq6r0N4IzytL3QevqOWK8nDDwnIvP8/TUKnrPnz5O1G9YreAKg6zZtlMUrlvd7ypNJkfpdmB4wUyVknS54ApzGtqNtzy0slAMVXjDkvMICOX369IV54T70VBfMwn0t957eyhuhxDsdO+ZRntNmz9J/gIDn0tWr/AojtO2AJzJPiwsc7rdEWy8x4NnUJIAnlOdzE8fLu4CnE88TB/9wwdM6tLcGLNZ2ox2IHMEJ3AAAIABJREFU1H2x9QDgWdsE5ZkhD48aIdh7oiwyytMA1Ow8CYaMh1EKPM9RnpGOQKxrpbv73XXOex0/fkwVRoAnY/o3P/mRF4kNyrOh3vMwkm+VbbctzCP9nkjrJwQ8GxsaFDwvu+5a1bYbeKItw1A+EvDsrsMv9LVIOz9VP349ANtOMGTA8w8jnlSTJcDT7DwBTw7KSsrLvEjyKcpTB8BdN5GOiHtvvPMGoLzTsWOA52A5B54/9uJhONr2M/KttHa0S1KBZ0NDvUx47VX/BnCAJwojs/MEPAkM0tHp+aTSaaGOeA9QPNuLdOKl6sevBwBPTJVg2xU8M9JVOQR4GnDCwnvgeVC17bDtX/p2XYzfm/S/ltw1EMnbu/f1Zp53OnHiuFKe09+dLfnFRSrzxKVb3TMbGvzadkINtra0RPIZUddNCOUJeI5/9VW188RUCfAkqpKBJ3aeyC/MJzUUcFp5bw5ULG1HPQqpG2PuAdO2Y6r08MgnZfuePQqeLtuulKfPVAltO3sYpcCzb7Lt7jpkcgCedw8dopRnQUmxsu0fL1uq2vbaRg88T3/9tadtb00i8KytrfXA07f1MAqj74BnmKZKAKjbsX0pHzMCpBqIugc8D6NGpTwfevIJjTaOWRLgyWHUJ5Tngcpzpkop8PS6nHUU6S9Ra4/3OnnyhILn1JkzNE7B3/zkx7olh2rbGz1t+1dnz0pLe5u0tDRH+ilR1U8I5Ql4wra7CiNsPI3y/BT3TMCzy4sAbRRmqDRRgxbpc6IagdRNcemByhovMAhsu4EnQOlq2zFVQmFkIemUbf/ii7g8v7830l/Ac/I7b0thaYl872ceeJp7Jtp27DwBT9zBE/FLDHjW+cBTFUYe247M00LSRWKqlKI8EzEt+t8zqnxRlWDbH3rycdm2e5duwQF4cgCcFhgEI/kmDYZcIF+kwNPPyUUz6pESGNHU571OnTopdw8ZLG9OnyaFpaXyvZ/+WD5c/Im0dXb63TNPn/1amtuSjvKskfGvveJXGL33wXy18/SDZ8pUKZp5m7rH6QHY9pomj21/8InHZOuunZKVm/MdUyUUSGjbib6De2YKPKOXedL90YBhpPfwnC9OnZJ77xsqk96eLkUHSuV//Own8sGij6Wty9sA7vPjx+Xrb79RyrOpucmZGb2XTQzlWQt4virE83xuwjgJBp6fhGkkb6x8pAOQiPq9N0yplnvqAb/CaG+GPPgk4LlLCCBh7pnGvmfl5UnxwQN+8PwyRXn6AbCnPg52PVHr6pQPPGHbSw4e8IHnR97Ww40N8vmJ48q2E9+zuSmJwLOmxqM8LRgy4InCCMoTuSch6cI1kmfPmUQMWDTPCDa5UmWJ6QEDzz2Z++ShJ2DbdwubvxEM2YCTVKMqlZdJQ2uLIPO8mClP5jg/m+vRjJTd25sp78U/OSjPye9M18AuUJ7zPlro920HPL/8+uvks/Osra2Rca+87N8AzjVVAjyx88TJv6urS8fPqMtgaW8OUqxtRzP5UvfEpwc8bXuT7m+jbPvOnQqeAKZf215UdA48MVW6yMGTnnfnfDQj4d7fW3ne64svTsm9w+6T16dN9cDz73+qW3JAaeJhRFSlL78+I2jfk0phVFNbIy++/JJc6vNtf9dHeQKcKI6gPJet6f/gyeRJ/S5MD5hv++59e+WBx30yT0yVijxTJaM+LSRdfXNTCjxjBM/eAsvAdplRuNEOvH+4vPbWFAXP7//Dz+T9Dxf4I8kTDBmFEZHlW5JJ2w7b/qJSngQGeVEAT/MwIiWeJ6ZKXT2YKgV2al88vzDQkXoqHkbVDfXC3kVQnmm7dqq2HftOA878Yi+qkoakM7b9lLff98Xag7aGIv1+uy8RKe+m4Dl8mLwyZbKGFPzbv/+pvLfgA6U02XrYKE/cM3EHT8QvIQojBU+lPM/5tmPnicyT1O/bHgQ8EzE48XpGIgYs9YzgPQDbXt3YoOD5wOOPStrOHcqiA5wGnpgqqZF8Rbnnnllwccs8rSeZ/5H+4rVmwmmHdyN0IJSngmd5uQCe734wT8Gzqq5O0LYr5dnZIY2NSQSeRPn2KE8vnicKIyhOwtFxEGGJ3TODGcmH07l9rU6kEzFVP/Ye8IPnvr1y/2MeeKrCyOdhBIBi6wl4WiR5lXle5JQnPc/6ieaXqHXHu5356isZ9MD98srkSerkAHjiqUgw5Or6ejkCeH7jse0Qa4n4JY7yhG2/7loZM+5FeW/BAtW2u+CJtr2r87seRokaoHg9JxGDlnrGd3tAFUbNnsLofh/laeBp1Ccp4FlSdi4wCPaDF/svWvB0+y3a9UMb4T5/+CMPyxvTp0pjS7P89Y9/JLPmzpWm1hYpPnhQjhw/pgqj9q4uQceSiF9CwLO6ptpTGF33e923fc6CD8QiycO6m4dRMG17tINyIe5LxIClnhG8Bww807My5YEnHpMtO7arnaf5tgOc5Nn/BvAkApOnbU+BZ/AeTXwprDn2nGz2VldXJ5VVVZKXny+70/fIlq1p8qvLLpUrbrhenn7hefmTv/hzufrmmxRP5i78UI6fOiVfnjkjCp7JRHlWV/vA8/fXyjNKeX7gVxipzLMb3/YLAYLRPjPx0y31ROuBppZm3YZjTwB4Gmga9ZnpA0/2vcktKNDFam2k0vj0ACaGxN9kI7a6+nopKSmRfZmZsit9j3yKuG7lClm8bKnMfHe2THrrLXlz6lR56fXX9Hh9ymSNgzHu5ZfklclvypvTpsq78+cLEZQWLV+mOpLN27epXfhvrr5S/vSv/lKtK7746iuVeeqGcMkGnmNfmqh2nmPGvyhKeToh6dRUafWqkNtwRAtmib4vPlMv1Uo0PQArV1Vf57PzfFy27NghmTk5ulc7FKeBJy6byDzNVAlKJ/UL3gNouI8cOSLt7e1SXlEuRcXFkrk/S9Zv3CArV6+WT5YtlTnz5sqs996T6bNmyMTXXpMXXpoo4199WcZOnKAg+NqUyfLKpDflrRnvqF3mJytXqGnizox02V+Aq2y5VDc0SHN7u3QdOSLHTp6UL86cESIksa2Gt/GwCFJZjrPIP785qy62191+i/zxn/1XGfjA/fLFma/Uw0gDhSQVeNbUiAue7y3wFEambbd923vaPTPRYBju84JPvVRpInvAD55ZmfLg44/Jlp3bzzOSBzwxW8I982JSGAGAJ0+elEOHDikrXHrwgGTn5sq2Hdtlc9oW3fIbAHxn9iyZ8vY0pf5efuN1Bb7RY5+XMS+MlecnjFcwfHXyJJk2e6bM+fADjb+7YWuaRu7Ha6u4vEyq6uvViqHj8GE5evKknPzyS4EiBAjt+PrbbxUAOYfNPnX6tJz44gs9qE/+6IkTcuTYMT3QonOOHSfmSJxz4HZLlLY/+tM/UeP5U6e/9IFnl1RVVyVk6iVG5gnb/srLchkyz/Geb7uZKpl75pKVy/utnWdCRir1kG57oKmlRe08Ydux84S1M992l/JEiQR46tbD+XkacKLbhvvIxTNnzigrjPcM2uTCwkLZvWePbE5Lk5Vr18jCRR/L/IUfyvSZM+Sl11+VcS9PVJtqAPC58eP00PyEcTLh9dfkrZnvCLLCxStXyLpNm2RnRoYCUuGBA1JeXS0NLS3S2tkpXZ9/LoR7A+Q4ALwvkU2ePi1fnP5KTvsAEJljMNADBA99/rl0Hj6slOXho0cV/I4ePy7kucZBnroA4+FjR/3XLG/t8D7kq+pqZfLb0+WffvVLNWECdM988410HDqk/ZOIYUsYeL7w8kty2fW/F9h2TJUAT1fbvmTlCv3vyEf3J7fMRAxS6hk994AfPNVI/nHZvH2r7M3erwoiNOxEUwI4USipwkg9jPI11FnPrcenxtdff62+9OyY0NjYKFCBObm5sjs9XdZ+9qksWrxY5n24QKbNmCFvvjVFXp38poLeqDGjZcQzo+Xxp0fJk8+MlmdeHCvPTxwvL7/5hrAtxdyPPpRPVi5XxeuOjHTJzMuVwgOlUq4xThulobVV2g8dksPHjsmxEyeVugPsOGCTlbI7eVJO+M4PHT2qYMc9gN6hIx64kUchQxg4QIoDVtvAkeuU6T0+UOQ65+5h99J+lw9Uqad1fe0psAKuR33PPuK1DVXLO+CWyfu+OmWy4slXZ79WQO9A255UbHt1tQCel19/rYInMk/sPJetWe238wQ8Dx8+rLM0GHhaWbisdKLqxWdZpVqJtQcIgkuMToDy0VEjNZL8vpwc2ZedrXJQZGybtm1VitRC0qFtP3Pmq4gfDSuMQoQtblGGFhQWyt7MTNm0ZbOsXrdWFi1ZLDPenS2vT54k4199RVnfp59/Vp567ll5/Omn5JERT+o7PjH6KY0yhu3i9NmzZN7HC5UdXrtpg3pI7c3JlsKDB+RgVaVS1U3EquxoFwAEu8bPj5/w0hMeOwvgHD56TAA/KDTqtXV1SUtHh8oUSaEmAR9kjLTntdkhrR0dWg6wkaduS3u71qcNwI+Ua4CnHZwDZHYYsPIMOwxQSdlzSMHP9wzib7JdcH1zs9Q1NWlszsraGqV+CVqNN1hpuR1lmqeM7aOpx5YcDc3NcvzkSf1nQFvJBZ41HnhCebKHET6pLnhiqoR7Zk/gmShADPc5Ea+61A291gONTU1qBE+0rtsHDpA5Hy7QeI+wprgDz543V96aOUMWLP5EFyQKo5z8PGlqalIqsKKyQnLy8lQWCBX4ydIlMmfePJUFvvHWFBk7YbyMevYZeWzUSPnDE4/LoyOflMeeGiWPaDpS7ZcnvvG6ygSNHfaDYHa2KqyKyw5KZV2tWgUgNgBw0A5DXXF0HTksnUphdUn7oU6lFrkO4DS3t6k8sb65UdOmtnY/AMJie0ezNLa2eQGBfYBpANnY2qpACWhyNLa16qHXW2mb661KpRLrtLmtXcGTuoCoHgHACZADftzb2NKiAFjb0CB4/FTV1kpFTbUcrAAAK6SkrEztMYnFWXTggMbkxD6TcsCwrLJSyqqq9N66xkYVq9CuB+qH9J8B7Dr/IKCUlXL+4pSwb5HKSY+fkJOnT2s8T0wjE/FLINs+Udl2Bc+F54MnHkYpyjMRw933n3H266/Vj/no0aMKbHinFRQVyZ70dNm1Z498umG9zP/wQwW2KW9PlxcmThDMWoY+9KAqEP6/3/67/MUP/lb+6d9+JY8+NUqemzhe7h02VG659265fdAAeenNN6SiukpBLGN/lvzhySdk8AP3axi7J0Y/rf/cYQWnzUIxskA+Xr5MVm/4TLbs3CHp+7MUBIsOHpAyfOnr63S7YwNCpaoOwdZ6lJyCC9tCtHnABDgB2mxYRiQgDvJQXbRR19SgbdKuV96koAiIcB/mVdQhT30Ak3s5r29q8lLyPioOSo7DwFVBrrVV761vafGDKeXUAQBrGxu9d6uvV8oOqhcK0MAPcQC7V3pHsUZ11yj9xcUKivyDgFIECJGdIpvkW2jbABgK1OScyDgBRRUdoBiCgvSJErhGuXucV3bcd+2kB6YnT3+pYA43kIhfQsCzqqpKnp84Qdi3HYURlKerMAI8CUnXE+XZ11j3RAxQf30GY8V4It9raGyUgsIC2Zu5TwFwzbq1smzFcrX1e3vWTGVvX500yafUeE7B8NlxLyqbS8qceQmqbtZM9Wf+4JNFQvDsRSuWy9yPFmqYMiIpXXXTjfLz3/xavvfTn8j/+Wf/jwwYPkzFRdffcZv87F9/ocqFEc8+IzX1dQoIgEJZVaWCBEFFGpqblPoC5KD0OPBggRJTgFJg8kAM4AMYYB3tAPQ4OIfq4qAOZQaUpFrPV27XahrOASdlep+vLnlrByAC4LyDfIOCqgeiADAAC/vL+9XpPwlA7EBlhSrKoPYAwLziYgXAvKJCVRTtz8+XnIJC4TyvyNvjHpYYSlHBsLpKKmpq9N2hDAFDj2X3WHhEBAAiQPi5T0lkSiA3NdD0RAznFEN6n0+JxDVA0oDSn/ex5mjlT311Ws2TUBJhvmQOplyDi0jELzHgWe0Dzxuu88DTR3miadd4nls2y4q1a9SmjI82kAyVhstWJ6peIgbqQjzDNLxm5lJSWiIFRYWyc/cuWb12jSxdsUIVHG+9PV2mzXhHQXDMC2PlmbHPC5pdWFzkfIDf6BfGqvnLpOnTVMkx7+OPZPGqlbJm43rZtGOboOjYm7NfFzIBPDB9KUW2VVkhFYBRbY1SewcrK9XGD8pn7/79siFti3zw8UfywssT5c4hg+UXl/xW/tsPvi9/9F/+RH5/2y3y+Oin5Lrbb5Uf/NM/aPTxP4x8UsET0OQor67SFCCFIuVcj5pq/7Wyygp/OcAIkAXWNbDkOve75+T97fquWTsGjHZuIGsAau1571ulfWKsb0FJiXpNYU2ArBeTIZRiboqiLLfQM9OiX6Ga6VejCgFZo05h0ZFZIu9s6/TknCh0TCGErBLZJ4odk2P6FUE+xZDVodwA0pRBdg4YkgcwldI85WnzCWaMCZMLhoHznutQohq3k50y29uknn8o9XVSUVUlhcVF0pxM23BARo99aYJcDnhOGK+UJ6C5womqtHzN6rDBE1BNFDCG85zAAe5L5wRUIFq6AWBZeZnkFxTI9p07ZNOWLbL2s89k3oIF8vbMGTJl+nS153vGZ9s38tkxqtx4XGV7I1TJAQiOe+0VjehNYAalAleukFWfrZNN27ep3V9G9n7J9m33i8LDQFBZQNhA34GsC+UNrF7RwVKliFjgeSUe5WPh5NRLqKBAgVWBIi9P9mZliSmBmDsz574vI8Y8I7+79mr587/9nvyv//mP5XfXXC3DHnlYQRRq9C++/7d6DmCZMsJTPpTruQGqpdQJdnCPflNFhZQDwgCuLzVABjCRb7rASVuYSXE/38y38k+A7yPOKMDHsXd/lmRkZQpiBf5BZOz38ijAAEai48Mqs4tkcVmZssg8BycBKGioT1hxlVf6FDqIEFAW2eEqkgBMqEgPNH3g2dWlAGnXAEsXMAFJOzdqEjA0QEQOecpn44ltp2vszjmySg7sMwHXBqhlWPy6OgXDav5J1VRLGf9ADx4U5Ji4bGKlwFFXXyctLS3qWIM7J3OctZrIX0IoT8AT04rLURiNH6ceRgaepMq2r1oZEXj2JQDt7QHjW6ECmSRNyLPq6xUAd+7apXZ+UIDvz58vc+bPE+SAL740QZ4b96KMHPOMPPjYo/LoyBHy+FNPyUNPPKYyPhQdT0MJvv6asCfMrHlzFQSXrFqlAVvWp6XpBmoEFsZWEsCCymHXQkuRgUHFGBVErEyuwfLpvkGFHtiR58CnnMUPJQRQcAAElNu5lQEg+33XeD4mR4AIoJKemamgye6YW3Zsk/VbNsvKdWtl/scfybhXX5Erb7xe/ux7fy3/yx//H/Ivv/utGlBfffON8n/9t/9X/vf/+09l4P3DlHIE5BTEDh5Q0yVADSAntYPrAD11DUQVOH2Az15IAJgH7vn6bbyvvTNbgtCHHHs4MvfpgbmUfhOmVHm5kuv7R0NflpQf1OcBhsre++SfyDgBRBUpoOxpbVEtNQBpSiFSyhU4fZr0Rl/KNWSOVt/kj4CjUZtGefpNlFR777HQgCEKGbx/Tp89KwaIgCIgiAIHEAVQVeON2ABuAWVQeblU1dQIO5wSd7WislIO+gCxobFBQRDxTltbq3R2dMjx48eV++ztdRVr+wkBTzpt7MsT5bfXXCVPj31e3bRcO080pMtWrVRw4INCsevBysOhDGOpE2sHu/cT+AB3t1Z8fuvqVA6YtX+/7Ni1U1asWiULPloos+fMkVcnvSnjXnpJXd1GjH5aHn7yCfWaGfzgA6rcuP/RR9QQHErr+ZcmysQ3PBCE+oISBATpXzy32AgNA+iM/ftln1I2LNZCyS+G6kHuVaznutdPYaECAIDGkZmdraY+mPtABWVkeYdHDWUpEFDmAZsHcABDeqZRTPv1HsoADu9apoIJVOPO9D3Kru9I3yPb+EewfZts3LZVTYo2bk3TOK9YZWAPvHT1KlmyaqX6OM9f9LHa9s14f45MnTVT3pg2VWWbxPH8xe9+I3/85/9V/sMf/W/ys3/5hSDvHPKHB2XQA8Plx//zn9WgGlZYqUBcDgFAlQF6oA/QA94Z2d638t7sBc872rF9z27N78pI12uAI99GP2WzV3yhjzJUeSGUoSceMFac1JNNNvplqXUqy/SUQeeUQ8g2z5WZ3NWURYAkh5174OmZH6EFt8MzUepS06XOI0c8e89Tp+SEyg6/Ugrx5FdfeQbwPqN32GrarkTOiYVAnccWA4alBw5ISWmplFdWaPAOlHpQjATyqA+gCAFC5n0y/hICnkp5vjRBQ9I98+ILfvDEzpNjjU/b/vnnR7SPg4FksLJIQDFeg4ehMxPi8JHDSgHi77s/J0fStm2TlWtWy5Lly5UCnDT1LZn42qsq+3v4yceV/X3w8cdlyAMPyJAH75dB9w9XqghXwifHjFaFGoFeAYNZ896X+Ys+EvyAAY/1aZsVWLan79FgvyxspdqgzvJydcGy6BH6K+jlYt+430fdYOfoAZZLCe3et09Z7N17M/zUESAAUHDs2bdPD69sr1i9XXv3KuVnQAIIAiZs9avgtzVN2XdYeGIWrN2wXlZ99pnKtqEQGe9Fy5fKwsWfKLWIwge7X4AfhdCUd97WYBCvTpmkO64+N2G8/sPFOPyRUSM0Vifa8TsGD5Qb77pDrrrpBvn3q66Qf/71vwlbM/zJX/6F/Mf//J/kP/6nP1Zq88c//2d5ZNRIfT8sOhZ8ssgPzrwvQZM5/IDIt2fuUyoXEKVfoaZVDosIotwDQ2XLgyiLTCFkskwDTM6NkiS1euQ9JZApftDGexpvALa+yTPb8QAS6rPFY68xVj/UJYDhoWNH1R3yOO6NuGOePi3kj506pXag2HwCoNV19Wo6VIp5UFmZlFdWaoqx/oGygx4gVlSoeyP/3JtbmtXioaWlWTo7OwQLCDig1M/rgcSBp2rbPTtP7OCMooCqADyhPI8e/VzfKhhQWpkBZiwD+PWZM+rvCxWIJhg2orCoSHbt2a1RXxYvXyaz5rwnk6dOldcnTxY0vsj9YHsHDR8udw0eJAOHD5N77huqO/rd9/BDShk+OeYZeW7iBHl58iS1KUQmuGDxIjV34Ts/3bxRNu/YLlt375SdGXsUtJRiycn2ZF3Z+5XlU2ouG1lXlrJ7ABiHUms+ig221Ra8ARnnduzwUUf+cx/lxLnda9cAPkK4ASaAnoEgLPG6jRv0IIQgY4ZiDwpwEVFuli2Vj5YuVhB8f8EHMmvu+/LOe+/K9NkzZQoKpKlT1DQI11ysLfjHOeq5Z+Wxp0dpJJyhf3hIKcG7hg6WW++9R66//Va55pab5Mobb9D9ruBUfnf1VfLbq69UrgVfZuTm1956s9x0911qekSA3Psfe0TlsbSPrSX2nGzRwD8g5OqAI4AIRVh8sFQ1ysgMkTvChhtliBII+SXKKcAOCtUOU/iYDJPUDupQ367ZOWWAJCkHFJwBJ4BZ46M2sblEJsn+O5g7GXWIf7j6dJ86qVvr4qqIVhsAhSLEhrIEW8mDB6X4wAGdwyVQuz4whDJExl1VVan/6HHtJH4EoR8PdXVd1DuHxoIfdm9CwBNHfWSe+Lbjnqng6XPPZHJjJI/QP5LAtN9+861Gl0YO2NzcoixDfmGB+vumbd0qq9auUUUIvr6vvPGGPP38cwIL/MjIETL0wQdlwLD75M7Bg+TWe+7WhXv3fUNl8EMPKJVCvEDY4ZcmvaEggEwQ7TAhsZDRAiJQVYAMwAMIGcVG6oId59t37/IDFvVZzJYCWnYYJWTnaT5A4zywPnWtHp4zdlBOHuD7dNNGlScjU+ZYzdYnsMCrVqldLQGoMfn5cPEnuo0rgMPOpgaCRMJ5c9o0dYGb+ObrqigCBJ8eO1Yw+cGO8g8jnpThjz6sIHj30CFy+8B7lSJE0w1ViHnaJddeo+AHCKLQYSNAHCauueVmueGO28+B4OOPyhPPPC1Qm4Ag28zyPrwf/3zoc/YmgpJGuww1iJwSjTyuiAZMUGwAEwoUgJBr1DH5pcotfZp8k2HCxgOiBqQGlm4KOAKMbhnnPNcOwJJYoQAcRvCAYceRw56b4fFj6rfd9fkRLec6MkzaKD5QKoUogTAPKimR4tJSKVLrhiKlCGGVyysqpBalSm2t1NXV+mSF7SruwusJwiL1S1wPJAQ8YdufmzBOF80z42DbP/TbeRp4sqj5L4lmLTMrS9lgkwO+O/d9efOtt+SFCeNl5JjR8sCjj8gAH9V315DBcsvdd8st99wlN999lwLifQ//QR4eNUJGjX1OF/zrU99SagQZGSBIbEAVFyhLvEU2bvXc9gCoHXv2CFSbUmVQdz4KD2pNWTwf2AFSm7dtFWRz3znStqgJDWY0GzmC1fGVUccO6pEHJAA+Dig/A0GAGxAxcQe2sYAfLPAHBIb4+CMFQdhgPGqgAqfOnKEBFIiLiPE3oISrLP/ERr84VkY+96w8+tRIeejJxwUKeuADw5WivmPQALnxrjvl2ttuUSWMB4JXKxX4m6uukN9CEV5ztQIjShqAkPqMB7JZTIKgMvknhPvh1FkzVE5J36/S7aY3KwUOEGbm5aj2GPmjgaFSgD7qDvAzEyW03NSBavS09AekoLRU3RjtXJVYBw8ICh3YbADS7jHFj4Glyj7Ly1QGCigCngaSAKLZUQKGuH8CeLDLeP4Agp2fH9Yy5JHUpw2oW0AwtyBfvZjyCgr0vLi0WKlCRD2lB0qloqJCXQkxrSH2JQoTqELC5KWAMHEgGO2TEgKeGMmjZWcBsg3H+wu/ayS/ZNUK9QSBYgEI7xl2nwCCyLlGPf+cjH2F4KgeOwwlCADjardk9SpZ4dPYoyBRhYOyntuVSgEQodAAvs3btytVBvABVNQ34IJSA7Q+27xJqTQAizyHXts76CcpAAAMfklEQVS8SSlkLQPcfNcstboGeErtbVjvsbwq9/tUVq5bp5Qf/zAAQdhfwO+jZUtl4ZLFeiCTgzIneAoAOGPOe/I2IDhrpmAjCQASEAJNOds547H11PPPacAIKEFAcPijjygVDSV424B75aa775Trb79NI2/D9kL5AYD/fuUVXgoYXnOVUoNX3nS9/P62W+WWe+4WqPGhD/9BWWLGAPabrV+nvztL5n30oZ8S/2zzZqWMkZMSbNhkhChiFAxdKs9npoOLHtc51EMFs52SYtXso70mj6kSB3mrY/dAdXJwrqCLzE5NnjwLAPKAJhSnn6IkUAaUoc/YHTD0A2JXp7dtbWe7Uo0AIW3g/57P+xQVSG5BnoJhdk6OwOUUwfqXlug/fYAQrTJUobLHXZ1KESIfT8kJo4Wnvn1fYsCzukpZMS8knQeeZqqEVpgDQEGjSjnad1h5wE3Zz82bFOSMMgOwuE49QMrytANLbQfXoXJomzzlJruj7kpffa7Zdepwzc55Hz3WrdV2yEP54YuvXi7Ll2lYL6UAlyxWhcS8jxYquEMBAoJQvAAOVOCkt6fLG9PeEoLEQgW++Oorfnng02OfU3YY0QIeM9goItNDtoqIATkfBt9X33KTXH49IHitEE3736+8XP7tisvk11depoCIfSP7RV11841a/9YB98iA+4fJ/Y8+qvJG7Dgx64EihzoFrKEI+TaAMG3nTtmVkeFpj/N8RtaFhWqKBOjhpWJmSmjuMWUyrxTkimq645gqcT3woI5rx2mAaSAJMBp4uiAJdQkgQ4HChmNLWYWbI541zU0KfOYdVN/SpHaPUIMAYUFJkSrXMnP2y37MoVAI5eVKPkbkBXmSX5DvA8NyDfhRX18vHFCGyApRmJw9iwl36pfqAZHEgefE8XKpyjzHKbAYCEGBcQBwlJFyGGtq10mtjNQtt2ukdj+p1gmoqyYvbAPgHMgyP1q6RIEPyo8DNhg3UrYAmPn+HHlnznvyznuzNfoNyhCTBb486Q0PBF95Wf9BEC5s1PO+6DmjRsgfRjyhIKjs8LChGrQC8cINd96uyhFAEJngb666Un4NAF5xme7V8qvLL1UtMhQh9rHX3HyjygfvGDRQAZV9ep4gPNm4F1UrPWn6dJnx/nvKuvNtqz79VP/xpO3YoYomlFCZGFnn5kp2QYHndVJUpGluAS56BUo1ch17S+raYXaWnv1lnraBll+9WqhPyLdC3Ps8TxfOA8HSPQcoDSwNGAHEgxibw6qjrPEZfNdCJba2KDBW1tdKSUW5GparHWhejmRhV5m9X9L37ZW9WZkKiHkF+VJUXKSUIVtAHCwrUzAkCEhHR7tqjnEdTVYTmhSwJaYHEgKenpH8BL+RvLHtBoYGfpwDbnbYdQW8VSv9gGfnRvl9vHSJgh8ACPsL+CH/g/Iz6g8KEEXI2+/O1i0BMA5/c/o0n1nMZJnwxmvKlqItR8SA5nbEs2M0cg5KEXZkRIww5KEHVLxAkAlYW+wI0RBfceP1comPHVYAvPxS+eWlvxNA8NdXXK7UIRQh1Df1oSKRDw558AF58InHle1+dvyLypJjrgPLDoDzjXjvQIEjfkCzjuYYTTzG2AZiZmgO+Hlgl6WUo9pkZmVJuh6YLO1TQ/OMTM/gHKNzs98k3bffZ+Sd5dloYrtoz1FzKJ8njIIsoIlcz7b3Lfa5AR4o9TTZsMwAIlprKER8tn1KHMoBTChN2seIPJ3vwrPGZyoEGGZl75cc4lMWFao8HMsIWGTYYw8MO+T4sWMKhCk5YWJAI/UUrwcSBp5oUK/w+bZj2wdr7FKQ5AE/AINjwSKPApyPHeCHH6gXjFKA770rM9gzBRCc+Y7KATGJQR5KxBxkgShE1J/aZxqDHeXjGJuPHCEYmA/1KUbuvm+I3IHGfcA9HgjefKO+4yXXeoqRX195ufzyskvkXy/5rfzrJb+TX156iYIhbPLvrrlK6yKjhZK8e+hgjeyDzBHQRSvN3i0oShQIHW09YgfkriihAEO084AGFBRAokf2fgVJgNKMzE2Ljwaf+zzTpQw1gidvmv6dGRnaJsqY9H2el4vmOTewxO0PQHXKAFp7PlQngJyLjWMJ8kUA8Ry7jBYb6hBKkcAR1AFEM31AiF0oijc2/dqzN0MBESqRLSCyc7I1BmZpaama0eBuh6sdShNTmKQWaKoH+noPJAQ8URgZeI4ZP04j4SBbNPCExYbVRAaHUoL9jlCEQP3hkaRs8OinVCv8yMiRah6DN4lnJzhMAEGPErxLzWSwA2SLUlWMXH2lAIL/dvml6q6Hy54dACNUIfWIyHPtrSir7lEZI20je3xq7HMadAJFCTLL2fPe9yjC5ctURIA2HFmsmRMZqAF0AJ8C3Z49njdN+h6/babZW6LIAkTtMNtLUtqy9gBHN6/AuTdddu/1DNs9IE2XXT6bUANFA8u92dmSmYNBPTJMQoqVSEGJF1uRTbgAQHW5PHBA5ZdQloC2gfKO3btlB2C/e5dGRiL4L95Rufl5nn0h7PHBg8JYA4YYVWNHe+LEiX7hatfXF2rq/fpeDyQEPGHboQTNtx2FCpSnySjJI3cceP9wZWeJvYjRNEFt7xwySO4dNky1xzfddaf86rJL5Be//Y264f38338tHIDhLy+7VOWGACGmM2iXbxtwj7LYaJ8xzNagFqoomeKFN8OI/ZNFuo0p3i94w8AeYyeJlh4zJQMwAzsDOdfu0mwrMV1SEyafraXlSQ0k1dzJZ+dpbbnP0Oc6wBkImIAyoKZBI7L3q3E9MkalELEN9IUcy1dK0HO3hIrMyMzUb+LbtmzbKshCt+/a6aMM98refXslC/fC3BwpLi5WxwFY4wZ2Nmxulq7OTvWsSrHGfW8Rp97owvRAQsATagS7QgyjPVMlz87TwBMqFFdEAA7Wmmg+AB2BbGHBYccx0YEyxS4RihB7UTTGFrgWY2qAcNGKZbJs7RrPkH3zJo8q3O6ZKilw+cyWFPx27FCK0cAP4DTTpVApVGbgYQbqRn3SHnUMhHkWB2Cpz/VRmwaaRqUiq4RtzvIpXFyNNCwxIAlrDTW4eds22eR7l01pWxQQAcOdu3dLBiZDWVmSk5sjKE+KS0qUPSYIA9vImuY4pTC5MIsu9dTk6IGEgadHeV6nIArladp2Y92Xrlmte7gg70TpAyUKK49yCLYe6hSzJGwxN6SlCdue4kqoh89YHcBz7S7Xb97kNzbHDvNTn8G5a7tp9QFOFzwBPysLBpZWBlACmhwGjlt371K/cXZyVDDMI6JQtlKJ6pOe74Ufg3oEQDekbZZ1G9bLBqjerR4QbsWraMd22blnt+zJSFfFCbEKcSQg2Cshujz2uNOvMEmOKZn6ilQP9I8eSAx4+uw8MdCG8gQ8oToBRsDTABQKlAOwBFwBTM5JObC9NHMm7DUBU7PRVHtPnxuia+CODSiHWwYomlG7pQaUAPCmrZ67o7HbJn+E4lMFDnEWfVQiAXwp25G+W7YQDAP7088+VTAErDdu2axeRrDKUIZsJ0FEdZQmaJDRHmNLiOaYDcVSCpP+sXBSb5nqgYSAp99UyQeeGGWbeZKbkudwwRPQdM8BTQDTAlYAmgAs8koXJDUPtYknEAC2NU3lkexFA+usgIiGep8XRQcAhH3euTdDtu3ZJRu3pcnajevVH3zt+k/PAeKGDbJh8yZJ27ZVA4nsy8o8pzRR7XGVNKnCxPMwwdWOoCapX6oHUj2QXD2QEPA8WHZQXnz1ZVUCwb5jqgQFaWDpAihAyeFSndTlUOrSR0nifaQsPJpu5ImY7uxNlx170zXdvmePwD7DTiN7/GzzRnWNXI4X07q1snrdOqUOoQzTtm/VyOpsMJa5P0vNaDR6dbUXvbqpqTFFESbXvE99TaoHYu6BhIAn7Ojs9+fIG1OmqJKH4BzGfhtQAoyf4WuOEoQoQYAeUYV27lBwJJoO4dwATO5dvHK5asmJ0Qggrvl0naxbv142bt4kW3fsUHMaqEJibRYWwh5XaPg5FCawxuy7nVKYxDx/Ug2keuCi7YGEgKf1bmNjg24VSyAPQBL2G6oTD6FPUBCtWK6h6VauXSOr1q3VbWY3bNqkVCFywty8PGETMs+esFLlhAaEqeAL1supNNUDqR5IRA8kFDz5IIIs7MnIkPS9GRqIoayszO9qh5cJG5URmzD1S/VAqgdSPdCXeyDh4NmXOyP1bqkeSPVAqgfC7YEUeIbbU6l6qR5I9UCqB5weSIGn0xmpbKoHUj2Q6oFwe+D/BwQedYDBKNsuAAAAAElFTkSuQmCC;" vertex="1" parent="1">
          <mxGeometry x="40" y="-80" width="335" height="292" as="geometry" />
        </mxCell>
        <mxCell id="KU7kqvRFh3p7BppwBaGI-26" value="&lt;font style=&quot;font-size: 20px&quot;&gt;인터넷&lt;/font&gt;" style="ellipse;shape=cloud;whiteSpace=wrap;html=1;strokeWidth=2;perimeterSpacing=0;" parent="1" vertex="1">
          <mxGeometry x="520" y="40" width="170" height="120" as="geometry" />
        </mxCell>
        <mxCell id="KU7kqvRFh3p7BppwBaGI-31" value="" style="shape=image;verticalLabelPosition=bottom;labelBackgroundColor=#ffffff;verticalAlign=top;aspect=fixed;imageAspect=0;image=data:image/png,iVBORw0KGgoAAAANSUhEUgAAAggAAAIICAYAAAAL/BZjAAAgAElEQVR4Xu2dBbgtR5W2338gaIBAcBmCDhDc3T24w+A6DDZYcHcbBhtk8MHdNWRwd3cLLoEIGmD+5wu1h5PLvfec013du7r7ree5z43sWrXqXbV7f12y6v9hkYAEJCABCUhAAjsQ+H8SkYAEJCABCUhAAjsSUCA4JiQgAQlIQAIS+DsCCgQHhQQkIAEJSEACCgTHgAQkIAEJSEACmxNwBmFzRn5CAhKQgAQksDgCCoTFhdwOS0ACEpCABDYnoEDYnJGfkIAEJCABCSyOgAJhcSG3wxKQgAQkIIHNCSgQNmfkJyQgAQlIQAKLI6BAWFzI7bAEJCABCUhgcwIKhM0Z+QkJSEACEpDA4ggoEBYXcjssAQlIQAIS2JyAAmFzRn5CAhKQgAQksDgCCoTFhdwOS0ACEpCABDYnoEDYnJGfkIAEJCABCSyOgAJhcSG3wxKQgAQkIIHNCSgQNmfkJyQgAQlIQAKLI6BAWFzI7bAEJCABCUhgcwIKhM0Z+QkJSEACEpDA4ggoEBYXcjssAQlIQAIS2JyAAmFzRn5CAhKQgAQksDgCCoTFhdwOS0ACEpCABDYnoEDYnJGfkIAEJCABCSyOgAJhcSG3wxKQgAQkIIHNCSgQNmfkJyQgAQlIQAKLI6BAWFzI7fBCCeS7/r8b+r7x348O7AHk76MB/wCs/v9fgD8DfwKOKH/HzO7sLRSx3ZbAvAgoEOYVT3sjgfzQHx84QflzPODEwGmAUwKnAk5e/tsJy2eOVQTC7p4HERd/BH4HHAr8CvgF8FPgB8APy5+fA4cBh5TP5bMRFjsTFUZLAhJomIACoeHg6JoEdkEgb/jHBo5bfuDPD1wCuAhwtjITsPpu54c9/zzGdz1trWYpVjMMEQdfBj4KvBf4VBEOvwV+X2YnDLQEJNAggTEeGg12W5ckMBkCq+9oxMAVgRsDlwfy1p/lgNWSwFQ6tFqyyLLFb4ADgFcA7yiCYceli6n0Sz8lMDsCCoTZhdQOTZxAvpPZC3DZIgYuAJwE2KssA0y8e7t0P8sXvwayRJHZhoiGA4EICosEJLAGAgqENUC3SQnsQOA4wFXLn3MBZy7LB/nYEr+jq2WKzDB8Ffgc8OYy25CliY2bLR1MEpDAQASW+PAZCKVmJbBlApkhODdwhbJckL0DWTJYqiDYDNxGwfCRIhTeBXzBPQybofP/S6A7AQVCd3bWlMB2CGQPwXmBqwD/XE4VKAi2Q/Bvn10Jhu8ALwHeWWYZMuNgkYAEKhFQIFQCqRkJ7IRAThqcAbglcCfgmAtdMhhycKzEwuHAfwIvAL5XNjwO2a62JTB7AgqE2YfYDo5MIEcQM1twb2D/srEw/80yDoFsakxSp4cCTy8nJdzoOA57W5kZAQXCzAJqd9ZGICLgesCjyvJBZgss6yWQPAvfAh4IvNHNjesNhq1Pj4ACYXox0+O2COwDPKTkKEimQkt7BLIMkUyP2dj4gJL90ZMQ7cVJjxojoEBoLCC6MwkC+d5cHfiXkq/gGO4tmETcIgqS2TGbGrNfIX8rFCYROp1cBwEFwjqo2+ZUCWRvwXXL/oJ9FQVTDeORfkcYJO3zk4HXlHsmJt0hnZdAbQIKhNpEtTdHAnsD1wEeVzIa+r2ZT5QjFJLB8c7A28o/z6d39kQCPQj4oOsBz6qzJ5CbEG8OPNEjirOPdYTCH4A7Aq8upx9m32k7KIHdEVAgOD4k8PcEciLhLsCjy62Jfk+WM0oiFJJT4R7A89yjsJzA29O/J+CDz1Ehgb8RyPfhNsDDAE8kLHtkRCgcBNwfeLmXRi17MCy19wqEpUbefu9IIKcSHgHksiSLBFYEIhQ+WYRCrqa2SGAxBBQIiwm1Hd0JgYz/cwCPBPYDzHjoMNkVgQiFnHZIhsYvi0kCSyCgQFhClO3jzgicEPg34H4lHbKUJLAVAsnOmGyZ/1H2Kmyljp+RwCQJKBAmGTad7kFgj3LF8iuAnFLwO9AD5oKrHlpmnXL99J8XzMGuz5iAD8cZB9eu/R2B4wNvBi6hMHB0VCCQZYekb74BEMFgkcCsCCgQZhVOO7MLAhnndy17DfaUkgQqE4g4uHu5atrUzZXham59BBQI62Nvy+MQOBnwJuD8bkIcB/hCW8kyw3vLjZ7JzGiRwOQJKBAmH0I7sAsCRwNuX9IjZ6+BRQJjEPgVcC/gheZOGAO3bQxJQIEwJF1tr4vAqcslPLlYyTG+rigst90sM7y4XOr18+VisOdTJ+DDc+oR1P8dCVwSeCVwctFIYI0EIhJ+XJYcctLBIoHJEVAgTC5kOrwLAjm++MDyx4RHDpNWCEQoJNfGk4A/teKUfkhgKwQUCFuh5GdaJ5A9Bp8FTt+6o/q3SAIRCZ8CLujlT4uM/2Q7rUCYbOh0vBC4EPBGIKcVLBJomcAPgcsA32jZSX2TwIqAAsGxMFUCGbt3KqcUjjPVTuj34gj8FrhzyZmwuM7b4WkRUCBMK156+1cCRweeAtzRUwoOiQkSyJJD9iQ8APjjBP3X5YUQUCAsJNAz6mbSJb+lpEueUbfsysIIRCQk7fctgeROsEigOQIKhOZCokO7IXDastlrbylJYCYEvgZcCvjpTPpjN2ZEQIEwo2DOvCtnA75guuSZR3mZ3TsMOB3wy2V23163SkCB0Gpk9GtFIGP0qsCrADcjOi7mSiCbFy8NfGKuHbRf0yOgQJhezJbkccZn7lN4MnDsJXXcvi6SwO+BfwZet8je2+nmCCgQmguJDhUCGZv3AB4NHEMqvQjs7Ari/Bjl1sFskMsU92/Kn/z3ZPxLnWSkzImRYwHHLX+SlOqEwF7AMXfilc+UXqE68lTDXYDn9DNjbQn0J+CXuT9DLdQnkHG5P/DI8gNVv4X5WdwoAo4AfgR8D/hB+Tv/nD9J1vOTIg5yRfHGsjMhsfH/b3xe5LbMCIXceXEqYB8gm0j/ccO/nwJICuwUnzVbH3OJyz2Bp5p5cevQ/GR9An5p6zPVYj8CeWPNwzEzB96psHuW+UE/pIiB7wMfAt4LfBr4XflxyXd8sx/+fhE7au1Ve/k7e0bOX3bpX7wIh4iJHFX12bN76n8B7lPyJYwZv5pjQVsTJ+CXdOIBnJn7eSu9F/AYf0B2Gtn8aGQpIKLg9cDzgc+tSQj0GXoXAG4N7FdmIbJ84bPo74lGGGSZLTMJib1FAqMS8Es5Km4b24RAMss9wh+Lo1DKj0TWpf8beEJZJsgSwhx+MDJDlCWILE08uFyNnP0mPpf+NgQS/7sBTx95JsiHlQT8IjoGmiCQH4T7Aw93WeHIeORH4aByz8S7yj6CbB6ce8lJlSxBXK0sM+WfFQt/HQ+5d+SZcx8A9q8tAn752orHEr1ZnVZ47II3JK7WmL8FPAuIKPjiwt8Ys9x0duAq5c6N0yxcLGTj4u285GmJj8j19VmBsD72tvxXArcBnrGLI3NzZxRhcDjwCuBlwAeAHU8WzJ3BVvoXsXBZ4CbAdYActVzisytLTTcFXr0VaH5GAn0JLPFL1peZ9esRuFy5eCnn7JdUsn8gMwQvLRvQ/rDw2YLtxP4EJU/AjYCzLnBJKptUrw78z3ag+VkJdCGgQOhCzTo1CORuhc9uOCdfw2brNiIEcp9EcjzkOKLH17pHLM+uKwGPKksRS0qmleRW5wZytNUigcEIKBAGQ6vh3RBIMp3vLOjtL8sGnwSuVZIUOTjqEcgzLOPpteVHM8sRSygRCdmXkRkFiwQGIaBAGASrRndDIFPEeYvOw23uJUsJBwA3B37mjMGg4Y4wiFB4MXDRhYjPHwNnUiQMOq4WbVyBsOjwj975PMTfCWTvwZxLlg5yEiFLCZ+fc0cb7FueaZl+/w/gEgvYzPgO4BpAcmNYJFCVgAKhKk6N7YZAxlpOK9xxxpQiDLKU8CDg3TNJZjTVcGW8JZ9CEm+da6qd2ILfGXNJS54x556WLQDzI1snoEDYOis/2Y/AvxSBMMf7FfJg/nnZMJdkNr7N9RsrNWvnxsncjnhfYO+ahhuylfF3s3IqpiG3dGXqBBQIU4/gNPw/B/CRcl3wNDzeupfJcPi6ks9hCdkOt06mrU8md8JLSuKl1Q2TbXnYz5vk07iYS1r9IFr7qAQUCI6IoQnsWY5j5WrguZUcM0vintye6PRu+9HN8+5CJdHQHNM4f73sv8hNnhYJ9CagQOiNUAO7IZCrm78CnHFmlFbrvg8F/jSzvi2hO5lBeHLZDzO3Ja9k47yUgnUJw3j4PioQhme85BZyO+MjZwbgYODS3pUw+ajm2XfhksnzRJPvzd86kKO12W+Rmz8tEuhFQIHQC5+Vd0PgMmUn/1wS1+TB+xzgXp47n9W4jzh4UslVMZfZhMxqZd/PV2cVKTszOgEFwujIF9HgKYCPzSgZ0i+Af3OX+GzHbp6DtwWeCBx/Jr38EXBO4Jcz6Y/dWAMBBcIaoM+8ybyFvRy4wUz6mfsibuzb2Eyiuftu5Ac1t2ruO4PeZp9MZrz+1XwcM4jmmrqgQFgT+Bk3e3vgWTPJYPfmInQ8vjjjAbtD13Kz6GuAq85gDEckRKinPxYJbJuAAmHbyKywGwLHBX4I5L6FKZdcrpS9BknXa1kmgWywffgM7nQ4FNgHyOVOFglsi4ACYVu4/PBuCGQsfRS44MQp5Qx5Nlh+3KNiE49kP/ezVHZZ4O1AjutOubweuK7jecohXI/vCoT1cJ9jq7cua55TPrXwA2A/s9HNcXh26lOejzkN8F5gyom+MiN2G+BFnShYabEEFAiLDX3Vjp8YOAjI+u1US25dTFbEb021A/o9GIGzAm+aeMKvXA19BsAsi4MNk/kZViDML6Zj9yjTr3l4XmXshiu2l6WRiIM8RC0S2BmBUwNvBM47YTwuNUw4eOtwXYGwDurzavPKwNsmvOM7+RquCGQzl0UCuyOQZYZ3AeefKKbcMhqB88WJ+q/bIxNQIIwMfGbN5Ya87wJTTFWbI2B5UOZh/8eZxcXuDEcgl49lxmmquRJ+A5wU+O1wiLQ8FwIKhLlEcvx+ZOw8GHjIRGcPPlVu9ssGLosEtkPgOMDXgCw7TLH8C/DsKTquz+MSUCCMy3tOrZ0F+MxENybmxrsruWFrTsNx9L5EJGT8n3n0lvs3mMRfmQH5dn9TWpgzAQXCnKM7bN/eAFxz2CYGsf5h4GomjhmE7dKMJiHYhya63PACIEeTLRLYJQEFgoOjC4HLAe+YYAKZ7DnIpspke7RIoAaBLDMcCJyphrERbeR20ksBHxyxTZuaGAEFwsQC1oC7GTO5wCgX20yp/AS4mNOqUwrZZHxNMqWcbjj5ZDz+q6PvKSd4IhYsEvg7AgoEB8V2CSRfwGu3W2nNn8+a63m8kXHNUZh385cE3jmxPTk5yXM94HXzDo2960pAgdCV3DLr7VGm508yoe7/qdwPkQ1lFgkMSeAaQPbmTOm5+rkiniMWLBI4CoEpDWRDt34CNyv53KcybvLQux/weC+qWf/gWYAHueAp4+0RExIJ+Y7cEnjxAuJjF7dJYCoP+m12y48PQGCvMnuQ411TKHnw5W0uSyIWCYxFILNsBwBZcphK+U65p8FZhKlEbCQ/FQgjgZ5BM7kN7rkT6keWFC4BJHOcRQJjEsilZV8B9hmz0R5tZZPijYFX9bBh1RkSUCDMMKgDdCk56POWkXPfUyi/Kke4vjAFZ/VxlgRyyuf9E/rO/Bo4pcnDZjkWO3dKgdAZ3aIqJqFKZg+mMF4yTXpT4GWLipCdbZHA3YEnAtmb0HrJ9ybZRd/duqP6Nx6BKTzwx6NhSzsjcAzgWxPKO/984LZuSnQwN0Agz9dXAtdvwJetuHAwcAovL9sKqmV8RoGwjDj36eXNgRdOZPYgN9TlAefVzX0ibt2aBLIs972JLDVkL8JlytJITQbamigBBcJEAzeS2xkfHym3Ho7UZOdmku/g3MCXOluwogSGIZCp+7dPRGTnKuuLDINBq1MjoECYWsTG9ffyJTvcFNZQnwLcAzBt7LhjxNY2J5Dvz1OBf52ASMhehKQkz4uBZeEEFAgLHwCbdP+twFUngMhz3BMI0sJdzEmgLDUcbwIcngfczn08E4jUwC4qEAYGPGHzJwa+Cxy38T78oVw4kyNlFgm0TCB5OXLz49FbdhLI3SWnB37cuJ+6NzABBcLAgCds/tnlLaLlMZLp0FcA/+zbzoRH2nJcz1LD+4CLN97lfK8eDjy0cT91b2ACLT/8B+665ndDIOPih+VEQMugDgFOZbbElkOkbzsQyLHhn03gVEMyQe6r8F72+FUgLDv+u+r9pYD/aXxDVd5y/q1s/jKKEpgSgUcD953A9+sqZZPylNjqa0UCCoSKMGdi6mjAV4EzNt6fLwIXKOuljbuqexI4CoFjAp8FztI4l3cBV3YWofEoDeieAmFAuBM1fZKyvJBb6VotmT3w7abV6OjXVghM4er03GlyUiA5RiwLJKBAWGDQN+nyXSYwbf/hcp3unw2fBCZKIBsWP9h4UqII8TwPnjFRxrrdk4ACoSfAmVXP1GeONuXMdqsliZDOAXy5VQf1SwJbJHBF4B2N70VI7oYzAIrxLQZ1Th9TIMwpmv37klTFn2r89rlPA+d3XbR/sLXQBIEPARdtwpOdO5GcCFl2PLxhH3VtIAIKhIHATtTsg4GHNez7H4GTA1kbtUhgDgQuWNIat5zOfH/gCXOAbR+2R0CBsD1ec/50srtleSEZFFstmd3IyYWsjVokMAcC+d7lRENyDrRaMnuwt9dAtxqe4fxSIAzHdmqWc0HLBxpeDz0CODvw9amB1V8JbELgvMDHgRwxbrFk30+OPefOE8uCCCgQFhTsTbr6kMZTq36s7Ph29sAxOzcCya6YzYBZPmu13AF4TqvO6dcwBBQIw3CdmtWMg8+XN/QWfY8ouA7whhad0ycJVCBwdeCNDc/gJXlalkG8Tr1CsKdiQoEwlUgN62cyuuXYYKvjIb5lecHZg2HHgdbXRyDfvYPK3SLr82LXLee7dybgWy06p0/DEGj1B2GY3mp1VwTuAzymUYGQB9ODgEcZPgnMnMDTgDs1/D28IfDqmcfA7m0goEBwOGQMvLWkLm6RhkcbW4yKPg1BYE/gp8BxhjBewebLgZtUsKOJiRBQIEwkUAO6mfPXPwdONGAbfUy/ALiNywt9EFp3IgTyPH47cKVG/T203M3wh0b9063KBBQIlYFO0NxlgQMantbMw/LdE+SqyxLoQuD6wCsb/j7mKvgch7YsgIACYQFB3qSLObp020YfSJlu3ccrnR2kCyKQxEnfbXSzYvYDPRB49ILiseiuKhAWHf4jTy0kO+F5GsXwAB9GjUZGt4YkkM2Kdx6ygR62swSyn0t+PQhOqKoCYULBGsDVlvcf5Lx1Lo/6wgD91qQEWibQ8rJf7kHJ5U3e7tjyCKrkmwKhEsiJmjlnyQPf4jj4DbAX8KeJstVtCXQlkJTLPyobArvaGKpelhkuXFJDD9WGdhsh0OIPQyNoFuHGvwN3b7SnLi80GhjdGoXAY4HkJ2mtRCA8FHh4a47pT30CCoT6TKdiMbFP+tQzN+hwpi9PD3y/Qd90SQJjELg0cGCjm4ffAlzDfQhjDIP1tqFAWC//dba+B/CTRvMf/K5cL5u/LRJYIoEsr+UUTy5yaq3kxeKsrTmlP/UJKBDqM52KxWRrOxg4ZoMOJ7Pj1Rr0S5ckMCaB1wPXGrPBLbYV4X5CwIRJWwQ21Y8pEKYauf5+Z6PRR/qbqW4ha5wXBT5a3bIGJTAtAlctadBb8zrf0Zy0eG9rjulPXQIKhLo8p2TtP4C7NejwIeXtxJsbGwyOLo1K4B9L0qTWntP5bj4JuPeoNGxsdAKtDbzRASy4we+ULIWtIfh6Wd/03vnWIqM/YxM4FnA4kGOPrZWPAxdqzSn9qUtAgVCX51Ss5da4vKknUVJLJW8mLwVu1pJT+iKBNRJodR/Ct4EzepJhjSNjhKYVCCNAbrCJUwI/aPAIVQRCNie+rUFmuiSBdRC4fKOXlWWDczIqOtO3jlExUpsKhJFAN9ZMjih9scEZhOyOzrXTv2+Ml+5IYF0EWj1tdARwPE8yrGtYjNOuAmEczq21cpWyO7q1+Od89dmctmxtuOjPGgm0nK8kp41aPAm1xnDNq+nWfiDmRbfd3jwYeFiD7iX/wdUVCA1GRpfWRSD7hL5RMouuy4ddtZurnx/VmlP6U4+AAqEeyylZyg9xzli3VLL/4HHA/VpySl8k0ACB5wK3bnDP0LuBKzbARxcGIqBAGAhs42azQfFUjfkYgXBt4I2N+aU7Elg3gWsCb1i3Eztp/5dlo6I5SxoMTg2XFAg1KE7LxnHLEcfWzlbnIZPEMBEvFglI4G8ETgDkx7i17+xvy50pbiqe6WhVIMw0sLvp1mlKdrbWciD8Ajip+w+WNyDt8aYE8pz+efkx3vTDI34gdzHkqONhI7ZpUyMSUCCMCLuRps4FfKbB9cxPABdshJFuSKA1Al9r8Gr2HHXMUmXEi2WGBBQIMwzqJl26DHBAgzkQXgHcxBmE5Q1Ie7wpgcz2fRC4yKafHPcDfy7Lgj8at1lbG4uAAmEs0u20kw1Pr2tMIGT/wROB+ygQ2hkoetIUgdcC12nKI8j3dl/gK435pTuVCCgQKoGckJnbAc9ubIkhD5rcLPm0CXHUVQmMSeCxwP6NfW/T/yRde6fCfsyhMF5bCoTxWLfQUuJ9f+CRLTizwYcIhBsAr2nML92RQCsEbgU8vxVnNvjxr8AzG/RLlyoQUCBUgDgxE08B7tqYzxEIFwc+3JhfuiOBVghcEnhvgzMImdkwuVkro6SyHwqEykAnYO5lwI0b8zMC4SzA1xvzS3ck0AqBfYBcsdzaM/vlZXNxK5z0oyKB1gZbxa5pahcE3gVcoTE6EQg5T51kMBYJSODvCRwbOBQ4emNwDgRyJbXZFBsLTA13FAg1KE7HRuKd29cu1JjLfwT2BHKu2iIBCeycwK+BZFVsqXwBOGdLDulLPQIKhHosp2Ap8f4ScNbGnM3MwYkb80l3JNASgXx3k4b8lC05BfwQOHVjPulOJQIKhEogJ2Im8f4ekHTLLZVvAWdsySF9kUBjBPLdzR6d1r4nhwAndImhsdFSyR0FQiWQEzLzs7Le35LLnwPO40OmpZDoS2ME8qzOdH4SE7VUsjx4HCBZFS0zI6BAmFlAt9CdFtcxsy/iolvw3Y9IYMkEPgWctzEA2Zx4LCBCwTIzAgqEmQV0k+4kp3tuXovib6m8D7h0Sw7piwQaJBAhfeEG/coJC698bjAwfV1SIPQlOK36uU/+8KL4W/L8PeWoVEs+6YsEWiOQC5su1phTmUE4LvC7xvzSnQoEFAgVIE7IRM5QRyAcszGfc7vkFd2D0FhUdKc1Ah8oGUdb8kuB0FI0KvuiQKgMtDFziW++wKs4Zyrw4AYFwkcbTP/cWCh1RwJHXrKWzbwtlTxfksPkty05pS91CCgQ6nBswcoqlnsDlwUuA5y9HEHKMaTjAREIrWViW7EzE1sLo0gfWibQ6vP6uUBmAZNV8RcFoN/nlkfSFn1rdcBt0f3FfyzxOz5wzbKGf37gTED2GqQY38UPEQFIYHACKzGQo47fBHLa4t3AG0p6aMXC4CEYpgF/QIbhOrTVvcqafa5Ivjqwh2JgaOTal4AEtkEgoiCp098CvAp4J5Aj1pYJEVAgTCdYiVWyqN2irNdn3c/4TSd+eiqBpRKIWMjm6KcBLyyzDM4qTGA0+APTfpCSuyCpkZ9aZguMWfsx00MJSGDnBCIMMqtwF+Ag4C+CapeAPzbtxiaeZZbgFcCVGt5c2DZBvZOABFok8CcgV8/fsMwutOjj4n1SILQ5BBKXJwK3LZsQ2/RSryQgAQn0I3Ao8DzgnuZB6QdyiNoKhCGo9rOZTGnPKVcyG59+LK0tAQm0TyDLDl8Fbgd8qH13l+OhP0DtxDrpSh8M3NvNh+0ERU8kIIHRCEQoZOb0YcBvRmvVhnZJQIHQxuA4PfDicqOhMWkjJnohAQmMTyAi4cPAzYFvj9+8LW4k4I/R+sfDBcsZ4eQ2sEhAAhKQwF9zJlwZ+Jgw1kdAgbA+9mn5RsBLNmQ+XK83ti4BCUigHQLJzHgz4OXtuLQsTxQI64v3fYFHeHxxfQGwZQlIoHkCOQ6ZvVmPad7TGTqoQFhPULMJ54FAkiBZJCABCUhg1wSSTOmRwEOENC4BBcK4vNPa/sBjPakwPnhblIAEJksgmxcz6/r4yfZggo4rEMYN2u2BZykOxoVuaxKQwCwIZCbhjiVPzCw61HonFAjjRSjpkt/qhsTxgNuSBCQwOwLZuHg14B2z61mDHVIgjBOUUwFfAk4wTnO2IgEJSGC2BA4B9gV+ONseNtIxBcLwgchGxC+W1MnDt2YLEpCABOZP4CvA2b0NcthAKxCG5/sa4NruOxgWtNYlIIFFEcimxdcD1/OSp+HirkAYjm0sXxp4t7kOhoWsdQlIYJEEkiPhCsB7F9n7ETqtQBgO8t7Ad4E9h2tCyxKQgAQWTeBwYB/gl4umMFDnFQjDgA3XpwB3Gca8ViUgAQlIoBB4GnA3lxrqjwcFQn2msXiBcsmIfIfhq1UJSEACKwLZj3Ah4BMiqUvAH7C6PGMtTA8ALlvftBYlIAEJSGAnBA4ELu8sQt2xoUCoyzPWksTjjd6zUB+sFiUgAQnsgkCyLF4TeIuE6hFQINRjuZo9+B/gUnXNak0CEpCABDYh8D7gMs4i1BsnCoR6LGMpgzPLC97SWJer1iQgAQlsRiCzCJfz2ONmmLb+/xUIW2e1lU9memu/rXzQz0hAAhKQQHUCb/MZXI+pAqEey72Ag8x7UA+oliQgAQlsk0DyIpwG+PU26/nxnRBQINQbFk8A7mlK5XpAtSQBCUhgmwRy5PGJwP7brOfHFQiDjYEIrW8Cpx+sBQ1LQAISkMBWCHwbOH2j99AAACAASURBVKObFbeCavefcQahP8NYOF5J9blHHXNakYAEJCCBjgSOAJLq/rCO9a1WCCgQ6gyFRwP3q2NKKxKQgAQk0JNAnskP6Glj8dUVCP2HwNGBnxTF2t+aFiQgAQlIoC+BXwCnAHLjo6UjAQVCR3Abqp0I+DFwjP6mtCABCUhAAhUI/LEIhIMr2FqsCQVC/9DvC3zB0wv9QWpBAhKQQCUCOc1wDuBLlewt0owCoX/YHwg8or8ZLUhAAhKQQEUCDwIeWdHe4kwpEPqH/DPAufub0YIEJCABCVQk8FngPBXtLc6UAqFfyI8NHApko6JFAhKQgATaIZANiscHfteOS9PyRIHQL16nKumV5diPo7UlIAEJ1CaQfQhJu/zD2oaXYs8ftn6RziaYz7lBsR9Ea0tAAhIYgEAEwrnKJvIBzM/fpAKhX4wvCnzA6537QbS2BCQggQEI5PrnSwAfHsD2IkwqEPqF+SrAW51B6AfR2hKQgAQGIJAZhP2Atw9gexEmFQj9wnxz4EX9TFhbAhKQgAQGInAL4MUD2Z69WQVC9xCH3Z2Bp3Y3YU0JSEACEhiQwF2AZ3izYzfCCoRu3FIr7O4NPK67CWtKQAISkMCABPYHnqhA6EZYgdCN20og3BfIrWEWCUhAAhJoj8D9gccqELoFRoHQjZsCoTs3a0pAAhIYi4ACoQdpBUJ3eGHnDEJ3ftaUgAQkMDQBBUIPwgqE7vAUCN3ZWVMCEpDAGAQUCD0oKxC6w1MgdGdnTQlIQAJjEFAg9KCsQOgOT4HQnZ01JSABCYxBQIHQg7ICoTs8BUJ3dtaUgAQkMAYBBUIPygqE7vAUCN3ZWVMCEpDAGAQUCD0oKxC6w1MgdGdnTQlIQAJjEFAg9KCsQOgOT4HQnZ01JSABCYxBQIHQg7ICoTs8BUJ3dtaUgAQkMAYBBUIPygqE7vAUCN3ZWVMCEpDAGAQUCD0oKxC6w1MgdGdnTQlIQAJjEFAg9KCsQOgOT4HQnZ01JSABCYxBQIHQg7ICoTs8BUJ3dtaUgAQkMAYBBUIPygqE7vAUCN3ZWVMCEpDAGAQUCD0oKxC6w1MgdGdnTQlIQAJjEFAg9KCsQOgOT4HQnZ01JSABCYxBQIHQg7ICoTs8BUJ3dtaUgAQkMAYBBUIPygqE7vAUCN3ZWVMCEpDAGAQUCD0oKxC6w1MgdGdnTQlIQAJjEFAg9KCsQOgOT4HQnZ01JSABCYxBQIHQg7ICoTs8BUJ3dtaUgAQkMAYBBUIPygqE7vAUCN3ZWVMCEpDAGAQUCD0oKxC6w1MgdGdnTQlIQAJjEFAg9KCsQOgOT4HQnZ01JSABCYxBQIHQg7ICoTs8BUJ3dtaUgAQkMAYBBUIPygqE7vAUCN3ZWVMCEpDAGAQUCD0oKxC6w1MgdGdnTQlIQAJjEFAg9KCsQOgOT4HQnZ01JSABCYxBQIHQg7ICoTs8BUJ3dtaUgAQkMAYBBUIPygqE7vAUCN3ZWVMCEpDAGAQUCD0oKxC6w1MgdGdnTQlIQAJjEFAg9KCsQOgOT4HQnZ01JSABCYxBQIHQg7ICoTs8BUJ3dtaUgAQkMAYBBUIPygqE7vAUCN3ZWVMCEpDAGAQUCD0oKxC6wxtCIPxvd3esKQEJSGAWBGr+LikQegyJmoHo4cYkq9YWCG8EHjFJEjotAQlIoB6BBwHXrGROgdADpAKhO7yaAiEzBy8AbtPdHWtKQAISmAWB5wG3Amr8PikQegyJGgHo0fykqyoQJh0+nZeABBoloEBoJDAKhO6BUCB0Z2dNCUhAArsioEBoZGwoELoHQoHQnZ01JSABCSgQGh8DCoTuAVIgdGdnTQlIQAIKhMbHgAKhe4AUCN3ZWVMCEpCAAqHxMaBA6B4gBUJ3dtaUgAQkoEBofAwoELoHSIHQnZ01JSABCSgQGh8DCoTuAVIgdGdnTQlIQAIKhMbHgAKhe4AUCN3ZWVMCEpCAAqHxMaBA6B4gBUJ3dtaUgAQkoEBofAwoELoHSIHQnZ01JSABCSgQGh8DCoTuAVIgdGdnTQlIQAIKhMbHgAKhe4AUCN3ZWVMCEpCAAqHxMaBA6B4gBUJ3dtaUgAQkoEBofAwoELoHSIHQnZ01JSABCSgQGh8DCoTuAVIgdGdnTQlIQAIKhMbHgAKhe4AUCN3ZWVMCEpCAAqHxMaBA6B4gBUJ3dtaUgAQkoEBofAwoELoHSIHQnZ01JSABCSgQGh8DCoTuAVIgdGdnTQlIQAIKhMbHgAKhe4AUCN3ZWVMCEpCAAqHxMaBA6B4gBUJ3dtaUgAQkoEBofAwoELoHSIHQnZ01JSABCSgQGh8DCoTuAVIgdGdnTQlIQAIKhMbHgAKhe4AUCN3ZWVMCEpCAAqHxMaBA6B4gBUJ3dtaUgAQkoEBofAwoELoHSIHQnZ01JSABCSgQGh8DCoTuAVIgdGdnTQlIQAIKhMbHgAKhe4AUCN3ZWVMCEpCAAqHxMaBA6B4gBUJ3dtaUgAQkoEBofAwoELoHSIHQnZ01JSABCSgQGh8DCoTuAVIgdGdnTQlIQAIKhMbHgAKhe4AUCN3ZWVMCEpCAAqHxMaBA6B4gBUJ3dtaUgAQkoEBofAwoELoHSIHQnZ012yKQsfy/O7i0s//Wltd6M1cCzwNuBdT4fbo/8NidjO+5sqvarxoBqOrQhIwpECYULF39PwJHA/YE9gLOB1wSOCdwGuB45VOHAj8APge8H/gUcAhwOPBnWUpgYAIKhIEBb9W8AmGrpP7+cwqE7uysOT6BjNfbAXmjOjlwdCBiYSslouBPwE+BRwLP9Y1sK9j8TEcCCoSO4GpXUyB0J6pA6M7OmuMQyBg9D/AMYN8NMwR9Wz8M+BJwJ+AzioW+OK2/AwEFQiNDQoHQPRAKhO7srDk8gYsCjwIusY2Zgu16lZmFD5ZZiQ9vt7Kfl8AuCCgQGhkaCoTugVAgdGdnzeEIZB/BE8omr2MM18xRLP8ReCFwbyD7FywS6ENAgdCHXsW6CoTuMBUI3dlZsz6BjMcLAa8vewzqt7C5xexRuDbwUZcdNoflJ3ZJQIHQyOBQIHQPhAKhOztr1iWQzYY3Bl4E/ENd09u29hfglsDLPPGwbXZW+CsBBUIjI0GB0D0QCoTu7KxZj0AEQU4mPLzSufEaniWnwkPKHogIBosEtkNAgbAdWgN+VoHQHa4CoTs7a9YhkDH4OOCeDcwc7NijCIMnAfdxuaFOsBdkRYHQSLAVCN0DoUDozs6a/Qlk/D2wvKlvNZ9B/1a3ZyGnHB5WcifsmKlxe5b89JIIKBAaibYCoXsgFAjd2VmzP4HrAi8BjtXf1KAWfg/cFHjtoK1ofE4EFAiNRFOB0D0QCoTu7KzZj8DewNeA/D2FcjBwJiB/WySwGQEFwmaERvr/CoTuoBUI3dlZszuBpEj+bMmM2N3K+DW/CJwXOGL8pm1xYgQUCI0ETIHQPRAKhO7srNmdwJWAtzd0YmGrPckehKsC79hqBT+3WAIKhEZCr0DoHggFQnd21uxGIDcw/gzYo1v1tdfK7MFJgV+v3RMdaJmAAqGR6CgQugdCgdCdnTW7Ebg98OxuVZupdQfgOc14oyMtElAgNBIVBUL3QCgQurOz5vYJ7Al8GzjJ9qs2VePnwOmBw5vySmdaIqBAaCQaCoTugVAgdGdnze0TyLHGV09w78GOPc1ehOt77HH7A2BBNRQIjQRbgdA9EAqE7uysuT0CGWuvAa6zvWrNfjo5ESISTJ7UbIjW6pgCYa34/9a4AqF7IBQI3dlZc3sEcoVzpuaPub1qzX76D2Wp5LBmPdSxdRJQIKyT/oa2FQjdA6FA6M7OmtsjcD3gVTNYXlj1OjMHNyizItsj4aeXQECB0EiUFQjdA6FA6M7OmlsnkHH2FODOMxMITwfu5jLD1gfCgj6pQGgk2AqE7oFQIHRnZ83tEXg3cPntVWn+0wcAV2jeSx1cBwEFwjqo76RNBUL3QCgQurOz5tYJZJx9sxwN3Hqt9j/5rXI/gxsV24/V2B4qEMYmvov2FAjdA6FA6M7Omlsn8A/AIUDyIMypJA/CCYC/zKlT9qUKAQVCFYz9jSgQujNUIHRnZ82tEzgR8IsZ7T9Y9TwzB7mN8ldbR+EnF0JAgdBIoBUI3QOhQOjOzppbJ5Csg1limNt3NQLhDMB3to7CTy6EgAKhkUDP7aEzJlYFwpi0l9vWmYGvzlQgnAX4+nJDa893QUCB0MjQUCB0D4QCoTs7a26dwGnLW/bcvquZQTgd8L2to/CTCyGgQGgk0HN76IyJVYEwJu3ltnX8sk6fzYpzKtmceELg0Dl1yr5UIaBAqIKxvxEFQneGCoTu7Ky5dQIZZ9nIlx3/cyq/BrIB02OOc4pqnb4oEOpw7G1FgdAdoQKhOztrbo/AV4Cs18+ppE9nm1OH7Es1AgqEaij7GVIgdOenQOjOzppbJ5Bx9mZgv61XmcQn3wpc3RmEScRqbCcVCGMT30V7CoTugVAgdGdnze0ReCyw/4xOMmRZ4fHAfbeHwU8vhIACoZFAKxC6B0KB0J2dNbdHIHcWvHNmAuFKQO6YsEhgRwIKhEbGhAKheyAUCN3ZWXN7BI4F/LBs6ttezTY/fTBwSuAPbbqnV2smoEBYcwBWzSsQugdCgdCdnTW3RyBj7TnAbbdXrdlP/xdwB/cfNBufdTumQFh3BEr7CoTugVAgdGdnze0TyHXP75rBMkP2H2TJ5D3bR2CNhRBQIDQSaAVC90AoELqzs+b2CRwdyNHAM26/alM1cq/EWYE/NeWVzrREQIHQSDQUCN0DoUDozs6a3QjkqGOOPE71e5vZgxxtzBFHiwR2RUCB0MjYmOqDpgV8CoQWorAsH44B/KSkKJ5iz5MR8uTAH6fovD6PRkCBMBrq3TekQOgeCAVCd3bW7E7gnMCngaN1N7GWmn8Gzgd8bi2t2+iUCCgQGomWAqF7IBQI3dlZszuBXNr0MuCG3U2speargJsAEQoWCeyOgAKhkfGhQOgeCAVCd3bW7EcgGxa/Xq5L7mdpnNrfBc7kxsRxYM+gFQVCI0FUIHQPRNjdB3hMdxP/VzObt14A3KaCLU0sg8DZgfdPYD9C9h1cCvjCMsJiLysQqCkQ7gc8zpwb3aKiQOjGLbXC7h7AE7ubOIpAyLTxTSvY0sRyCFwfeDGQTIstlt8DtwCyvGCRwFYJvKQsR9X4fboX8O8KhK2iP+rnagSgW8vTrxV2yQb3zApdyQzC64A88PPPFglslcAtgec2uGkxew2S+fGFW+2In5NAefF6NXCdSsd57wg82+dqt7GlQOjGbTWDcGfgqd1NHGUGIW9ZN6pgSxPLIpDv8DWB1wLZwNhC+QtwXeCNPphbCMfkfHgFcINKAuGuwNMdh93GgAKhG7eVQLgn8ITuJo4iEDKtdvMKtjSxTAIXAQ5sYLkhFzBdBvjIMsNgrysQyLJZlltr/D65xNAjIDUC0KP5SVcNu3uXDTB9O5JlhRcBt+pryPqLJnAy4L+B3Nsw9nc7Y/gA4GbATxcdBTvfl0A2bGfvSo0xnI3keYlz6bZDVGoEoEOzs6jiKYZZhHF2nci4zLTqfUvWwjE6mOyOjy3LbT6IxyA+7zY8xdBIfBUI3QNRewYh02rZcGaRQA0CewGvBy5dw9hubLwPuBbw64Hb0fxyCDy/PAtr/D5FKD/eGYRug6dGALq1PP1aYXd34EkVupK3rpeW6dkK5jQhgSOnZ3O8698GZvEf5bivMwcDg16Q+Zx8yX6sGr9P+5ej6I7PDgOoRgA6NDuLKmHnKYZZhHKWnVAgzDKsi+hUzTwI2Uj+ZGcQuo0bBUI3bqkVdjnn/ZzuJv6vZtTtG8rRMJVuBaCacAbBMTBJAnmu5phjcsLU+H3KS9x/KhC6jYUaAejW8jxqZRospw9qlDeVtVwFQg2a2nAGwTEwRQIZt8npkX0tNX6fbgdk06PP1Q6joUYAOjQ7mypRubXSyL4duBqQJDMWCfQloEDoS9D66yCQcZsEW1ev1HiO3WbJwtKBgAKhA7QNVa4KvKWS0n0PcEUFQr+AWPv/CCgQHAxTJJBsoHmmXqWC85k1SEbG11SwtUgTCoR+YU/GuPyw1+D4QeCSToX1C4i1FQiOgUkTiEB4F3C5Cr2IQMis7Nsq2FqkiRo/bIsEVzp9sXLlbo0c+J8ELrBkmPa9KgFnEKri1NhIBDJuc435xSu0F4GQl7jk6rB0IKBA6ABtQ5ULlpzzNQTCV4B9nUHoFxBrO4PgGJg8gU8A56/Qi+znyqzshyrYWqQJBUK/sJ8L+HSlW/S+C5xegdAvINZWIDgGJk0gv0lfAs5aoRcRCBcGIjgsHQgoEDpA21DlzMBXK+1B+BlwCjcp9guItRUIjoFJE8hv0reBfSr0IksM5wY+X8HWIk0oEPqF/TTA9yoJhN8Ae/Zzx9oSUCA4BiZNIL9JuQ30JBV6EYGQmYivVbC1SBMKhH5hzyDOTXY19iD8GTgRcGg/l6wtgSMJuEnRgTBFAhm3hwHHreB8BMI/Aj+oYGuRJhQI/cKeN/5DKgmEDOZsUsxmRYsE+hJQIPQlaP11EDgBcHClZ2r2IJwc+Pk6OjKHNhUI/aJ4NCBLA8fsZ+bI2hEI+wHJqGiRQF8CCoS+BK2/DgJnA75Yadk2AiGC4/B1dGQObSoQ+kfxW+X0QX9Lf72a9yk1DGlj8QQUCIsfApMEUDM77e+A4wFZvrV0IKBA6ABthyrJ+nWF/maOnEF4JnCnCrY0IQEFgmNgigTykpTrmWuUnIY4Qw1DS7WhQOgf+bzx37W/mSMFwruBK1WwpQkJKBAcA1Mk8AzgjpWWGPLy5vO0xyhQIPSAV6reAXhWfzNHWsja2zlNllSJ5rLNKBCWHf+p9j4vSbmHocZv01OBu00VRAt+1whCC/1Ypw9J5Vkr13emxM6oQFhnOGfTtgJhNqFcTEcyZr9QTnPV6PS/AM+uYWipNhQI/SOfZEnfAXKioW/JcZyTKRD6YrS+eRAcAxMkkN+jb1bc9H0JILfkWjoSUCB0BLehWn7QDwL26G/qyOM4x1cgVCCpCWcQHANTI5Axm8RzJ63geE4unK48myuYW6YJBUL/uOecbe5ROEZ/U0duVMyX4xcVbGli2QQUCMuO/xR7XzOL4hHAqcuzeYosmvBZgdA/DMcqmb+O3d/UkRauAby5ki3NLJeAAmG5sZ9qz09c7mGokbr+D2W5NpluLR0JKBA6gttQLYM5l4tkcNcoT6t0bLKGL9qYLgEFwnRjt1TPrw68qVLnkyRpbyB/WzoSUCB0BLdDtXdUPG+bu9DPXsctrSyYgAJhwcGfaNfzcnTnSr5nmTb7w5Ju2dKRgAKhI7gdqt0PeHQdU/wWOCHwx0r2NLNMAgqEZcZ9yr3OEcdaL0fJp3DFKcNowXcFQp0onA/4ZB1TRwqDXCPttc+VgC7UjAJhoYGfaLezyftXwHEq+X9f4HGVbC3WjAKhTuiPXm51rHGS4U/lDvMf13FNKwsloEBYaOAn2u0c704emBrP0CC4QMWXtoki7e+2AqE/w1gIxwzubIqpUS4FvL+GIW0sloACYbGhn2THTwF8H8jLVt+SWdjc4ugybU+SCoSeAEv1cPxGxZvDHg/cp45rWlkoAQXCQgM/0W4n62FS1tf4TfplWaZNXhlLDwI1gtGj+dlUDccPAxeu1KOvAmczo2Ilmss0o0BYZtyn2uvsF9i/kvPfAs7k87M/TQVCf4YrC08E7lFJAedoTk4yuFGxXnyWZkmBsLSIT7e/Gas53n3WSl34KHCRSrYWbUaBUC/8OVKTfAg1mGZqbF/gK/Xc09LCCCgQFhbwCXc3GxRzgqFGBsU8O58M3HPCPJpxvcaPWTOdWbMjSbmcN/4alzZlkF8FeOea+2Tz0yWgQJhu7Jbm+VmAL1d8uboy8K6lQRyivwqEelTDMmtfuUGsRsmSxb1rGNLGIgkoEBYZ9kl2Oj/ob6skEHJyYS9TLNcZBwqEOhxXVg4ALlfJpBsVK4FcqBkFwkIDP8Fu59RWrZeh75TTZJ5gqDAQFAgVIG4w8R/loqUaXDPATwWYMKlujJZiTYGwlEhPu5+1Nyi+B7iCJxjqDIoaP2R1PJmHlWsDr600VRaBsB/w9nmgsRcjE1AgjAzc5joRSIKkH1Z8Zj7d23A7xWGnlRQI9VjGUo4mJqPi0SqYjUB4GPBw1XAFmsszoUBYXsyn2OOa+w/yzLwu8PopgmjRZwVC3aiEZ24kyxHFGuVDQDKMuZ5Wg+aybCgQlhXvKfY2Y/RB5UWohv/JH3PicmSyhr3F21Ag1B0C4flc4NaVzB5R7jTPGWGLBLZDQIGwHVp+dh0EMkaTXjkvQTVKjkrmumhfqGrQrLTuU8mV2Zi5PfCsSmwz0G8EvGo2dOzIWAQUCGORtp2uBLIkm03Yx+xqYId6zwduq0CoRLPSj1g9b+Zh6RzA5yqyzYzE7eaBxl6MSECBMCJsm+pE4Hrl5afGTHZepu4IPLuTJ1baKYEagRHtUQlkg2J25Z6sEpjkKI/ocNqsEtCFmFEgLCTQE+7mcyq+/OT5eK6yB2zCSNpyXYEwTDwy1XWrSqaz8eb0wPcq2dPMMggoEJYR56n2svaG7pweOzmQ56WlEgEFQiWQO5jJUZtXV1pmiDJ+NPDAYVzV6kwJ5Lu9umF0yC7+O3AvZ7iGRDxL26cBvlvpgqYAekHFzeGzBN6lUwqELtQ2r/NP5fKRGreTpbVPAhf0Ibw5eD/xfwTy3U4ejRwjG7I8AniIY3NIxLO0vRqbNX6D8hJ1w/JSNktY6+pUjeCsy/eW2z068H0gWcJqlMNLEqY/1TCmjcUQuA3wX5VmsnYGLQ/mbKB93mKI2tEaBPK78zHgAjWMlWWFswFfq2RPM4WAAmG4oZA3q5rLAncAsqnHIoGtErgIkGRbQ33PIxAuBnxkqw75OQkAewC/BI5XiUaOSv4j4AtUJaArM0M9OCq7OUlz2VH7mYoP59zumAyNbsKZ5HBYi9PHBg4C9h6o9Tzks5b8u4Hsa3aeBJJIruasU/ZoPWCeqNbbKwXCcPxzJ3keoLX2Ify2pBH1YTxczOZo+X5lk+sQfbs/8JghDGtztgTym5OMh2ep1MPMYp0b+Hwle5rZQECBMOxw+GCZgq3VSrIqvrKWMe0sgkCuDP82cIzKvf1jOX6bnB8WCWyVQGa1fgbsudUKm3zO+xcqgdyZGQXCgHCBrAF/uGITuZMhl5G4zFAR6gJM1Tx2G1x5a0sWvNctgJ1drEvgBpVfcvJ8zT4YywAEFAgDQN1gMjnGk8Cj1macCIMzlPPDw3qu9TkRSHbP/Jhfo1Kn3gRcB/hzJXuaWQaB2llmI1QvCWSm1jIAAQXCAFA3mAzfzwLnrNjM/sATKtrT1DII5OH8euDqPbv7FuBaioOeFJdZfR/gWxX3ZeX4dzbgZrnLMgABBcIAUHcweRPgpRWbycbH0wK/qWhTU8sgkO/7o4B7dLhB7w9Asibm6K5LXMsYL7V7ec+S3bOW3S+Wly/vqalFdAc7CoSBwG4wmze3LDPkatMaJV+GKwIH1DCmjUUSuFA5fXAJIONzV8+BjLUsI3wAyImFjy6Slp2uQeA45cjtiWoYKzZuDvx3RXuaUiCMPgby8D0QuHTFll8B3LiiPU0tj0DGZTJ95hhkxmaO5R6rYPg98GvgfeWIZBLR+Ja2vDFSs8eXA95dMS9MxmeWF5zNqhklBcKANHdt+p+Bl1RsOQ/rrOclnbNFAn0JRCxkTK1mElb/rCjoS9b6IZBx9TIgx7RrlWxMzAZFx2gtojux4xLDgHA3mM7dDDkvftJKzeVL8VAg6Zz9glSCqhkJSGAQAtkz9U0gz8FaxeWFWiR3Y0eBMALkoqBfBNysYnPfK0cePWpWEaqmJCCB6gQeXF5oav3eJNFS7l7IxlnLgARqBWxAF2dj+vLAuyquwWXmIDnNXzgbQnZEAhKYG4HMGnwdOF3FjmW5tubLVkXX5mVKgTBePLNbPDnIz1yxyVyZmmyNLjNUhKopCUigGoFbAC+o/GJ05fKyVc1JDe2cgAJh3JFxL+DxFb8s2cGbO9U/PW43bE0CEpDApgTy+5JUyBfe9JNb/8A3gH/ypWjrwPp8UoHQh972656+TLdlNqFW+QRwwVrGtCMBCUigEoFceZ+Xl1o32mamNJlkn6RAqBShTcwoEMbhvGolvF8N5PKcWiVpRpN8xMyKtYhqRwIS6Esgz7osgWaGs1aJQDhjuZ20lk3t7IaAAmH84ZGbx95fUVWnB5nGu7iqevxg2qIEJLBTAskcmwRbubCuVsmFY7lF1D1XtYg6gzASya03k2x1OaJYKydCWj6iJE760dbd8JMSkIAEBiGQF89k4Uwq71rFmxtrkdyGHWcQtgGr4kdvCLy84mbFuPaGcgWv6rpioDQlAQlsm8Cpge9UToyU3AfJHvu7bXtjhc4EFAid0fWqeHzgJ8Cxe1k5auWcaMimoNxwZpGABCSwDgLZkPjaciV4rfbz0pNbcXMHjWVEAgqEEWHv0NR/Anes3PxrgMxOeIFJZbCak4AEtkTg7MDnKu+xyqzByYFDt+SBH6pGQIFQDeW2DYX9IcDxtl1z1xWitLPu96GKNjUlAQlIYCsE8kzLS8p1tvLhbXwmL1N32sbn/WglAgqESiA7mnkbkKxgNeNwAHBFd/p2jIjVJCCBrgTycvLeyrMHhwEnBnKc2zIygZo/TCO7PovmspknmcFysqFWyfJClhmi5C0SkIAExiCQ35K8nFy2YmOZEX0LcI2KNjW1DQIKhG3AGuijbxzgC/AF4NzuRRgoYpqVgAR2JHCDsomw5m9K9h6cBfi+uNdDoGYw19OD6bd6XuCjwB4VuxLlfX/gsRVtakoCEpDAzgjk2ZWUytmgWLPk5elaNQ1qa3sEFAjb4zXUp3MsqPbGnpwbTlrSrOFZmVuFtwAAFQtJREFUJCABCQxF4AHAIyrvpUryt9xU+6mhnNbu5gQUCJszGuMTue3sg0DNS5zi99uB/dywOEYIbUMCiySQXC4HAXtX7n1emq7vs6sy1W2aUyBsE9hAH08cklkxmwtrlj+V7GM/rGlUWxKQgAQKgQOBy1SmkSXSvDR9vLJdzW2TgAJhm8AG/Hjtq1FXrv4COC3w2wF917QEJLA8AtlA+PnK+6dC8WXATZ09WP+AUiCsPwYrDxKL5wK3HsCl3KH+hAHsalICElgmgSR4yxHtk1Xufo5pn6cIj8qmNbddAgqE7RIb9vOnKkd6ks+8ZslSQ05L5PijRQISkEBfAg8sGxP72tmxfl6Sbu/sQW2s3ewpELpxG7JW3vTvWXlHcPz9QMmw+Pshnde2BCQwewJ52fjkAM+oP5flUPdMNTKEFAiNBGKDG8cAfjTAruBs/Lkf8Lj2uqxHEpDARAgk62teNs5f2d88n5K3JflbLI0QUCA0Eogd3Lgt8JwBFHqWGs4KfLPNbuuVBCTQOIGHAPlT+7fjl8ApvXOhrejXDnJbvZuuN9mD8FngHAN04TPA+VzjG4CsJiUwbwJ5bnwYyCxnzZLZg5sBL61pVFv9CSgQ+jMcysJQyZPyZfwv4A5DOa5dCUhgdgTyW5FNzvsO0LO8DGVfQ55NloYIKBAaCsZOXHlxUda1vfwDcCXgfbUNa08CEpgdgfxOvBC4+QA9yzXOuSbapEgDwO1rUoHQl+Cw9XPsMUsCJxmgmSRO2gf4+QC2NSkBCcyHwFWAXJxU80K5FZ0XDJT7ZT7019gTBcIa4W+x6aE2LKb53CKZ+9tzrapFAhKQwI4E8pLy7QH2HaSdvJxkycKXlEbHnQKh0cBscCsbFj82wLGiNJE1v9zElqOPyWBmkYAEJLAikCONXwZONwCSPHtuCWQZ1dIoAQVCo4HZwa1/Kl/U2hkW00yEwfWA108DhV5KQAIjEXgKcNeB2srttZfyxWQgupXMKhAqgRzYTOJ0R+DpA5w/juuHAhcDvjhwPzQvAQlMg8AtgOcDQ72U5KKn3OVgaZiAAqHh4Ozg2jGBrww03ZemYvtCwGHTQaKnEpDAAAQuDrwd2HMA21layMvOswewrcnKBBQIlYEObO7UZakhN6kNUd4DXH4Iw9qUgAQmQSDZDDP9P8S+gwD4UknUlqPWlsYJKBAaD9BO3HsQ8NCBpv7SXFI8R+G7aXF6Y0OPJdCHQGYpIw5q37Ow8ilLmacHklbZMgECCoQJBGkHFxOzvOlfZiDXIwxuVxKjKBIGgqxZCTRGIHsN3lYSqA3hWp4l+wNPGsK4NochoEAYhuvQVvcuZ5OPP1BD+TJfETjQ9KcDEdasBNohkN+BHHW+90AuZd/BAUV8mE55IMhDmFUgDEF1HJs3Al420KmG9CApULMfIVe7WiQggfkSuDXw3AGfJUmEdGbg1/NFOM+eKRCmG9dMCWa67m4DfrEPBq4MfGK6mPRcAhLYDYHrAK8CjjYQpcwYXBN480D2NTsgAQXCgHBHMH2C8oY/xLXQK/cPAq5qjoQRomkTEhiXwH7Aq4FjD9RsxMFjgfsPZF+zAxNQIAwMeATzOY6UHAbZgTxU+W7ZFJm/LRKQwPQJXBJ4E5CXjKFKUsRfDvjNUA1od1gCCoRh+Y5lPVc3ZwpviNvWVn34Ybmz/Wdjdcp2JCCBQQhkxvF/gGx2HqocXvYd/HioBrQ7PAEFwvCMx2ohmcly8+MQqVFXfciXPueYvX1trKjajgTqEjg58NWBZw6OAM5dkrrV9V5roxJQIIyKe9DGIgzeByRN6pAlIuEMgDMJQ1LWtgTqE4g4+A6QWxqHKtl3kGRujxqqAe2OR0CBMB7rMVrKeuJHgVyEMmT5EXCJkothyHa0LQEJ1CGQZYUcWR5yz0HEwVvKqQXzHdSJ21qtKBDWin+Qxvct6VL3GsT634x+D7g68IWB29G8BCTQj0A2JL5u4D0H8TDHoZPh1U2J/eLVTG0FQjOhqOpIchdEyQ91tnnlbDYuXhfIbmWLBCTQHoEcZXzpwDMH6fX3gcsC32oPgR51JaBA6Equ/Xq3B5458KbFUEh2tGuX/Q9OK7Y/LvRwOQTyvXwJcJyBu5wZg5yk+tDA7Wh+ZAIKhJGBj9xcMi3efcBMi6vuZNdylhve7S2QI0fY5iTw9wTyXL95SZ989IEB5d6WawBvHbgdza+BgAJhDdBHbHJ1suFiI4iEzB7cCchxS2+BHDHINiWBDQTyTM8JgvuO9J2/A/BfRmCeBBQI84zrxl7lDSJTfxccoasRCS8CbjVCWzYhAQkclcAxgNcCVxsBTL7rTwXu4QvBCLTX1IQCYU3gR252T+A9I4mEdC35GDLteOjI/bQ5CSyVwElL6uQLjQAg4iBC5AZeBz8C7TU2oUBYI/yRm06SlHcA5xqp3a8BuZL6syO1ZzMSWCqBzA7m6vckMBu6RBzkOZIXgD8N3Zj210tAgbBe/mO3noud8uXO3exjlMPKcsPrnYYcA7dtLJBARPizRjjGuEKbOxyyhPHbBbJeXJcVCIsL+ZF3KWQJ4NQjdT0bFh8C5ETF70Zq02YkMHcC2W/wYOB+IxxlXrFMIqTLu3Q496H1t/4pEJYT6409HePClo3tZVoyKaCv6UVPyxxw9roqgZOUPUVJnzxWSQKk8yoOxsLdRjsKhDbisA4vsnHxByNOTaaPuejpKiUV9Dr6bJsSmDKBPK+z3+C9A1+4tCOjg4F9gCwZWhZEQIGwoGDvpKuZSfg4cJoRMfweeB5wF3dAj0jdpqZOIM/qJwB3Bo45Ymcyc3AexcGIxBtqSoHQUDDW5Eo2Lr4d+KcR28+SQ9YzrwPkPgeLBCSwawKnAl4JJOHZmOWTwOVcVhgTeVttKRDaise6vMn0YW57y5vCmCWzCfcsmdiSrtkiAQn8jUAuW7sl8GTgeCODyWmFaykORqbeWHMKhMYCskZ3kmjljUASrYw5LjKbkDzudwO+vcb+27QEWiKQU0Y5+XP9NXwf31luafUoY0sjYg2+jPlDsIbu2eQ2CRy3XLh0kW3Wq/HxHIG8HfAqwNmEGkS1MUUCSY2ePAO5hTHfx7FLZhKTW8Hv4NjkG2xPgdBgUNbsUqY13wVcZuQ3l1W3vwKcz5wJax4FNr8OAscq371LrKHxzOQ9o2weXkPzNtkiAQVCi1FZv09j3gi3s95mNuHxwCOAP68fhx5IYFACuXX1X4FHr2GvQTqWZGY5VZSMjN7EOmiop2VcgTCteI3tbW5lzPXNe4zdcDkC+fXy4DxwDe3bpATGIHBO4MVA/l7H8zhiPEsKbxqjs7YxLQLrGJDTIqS3Sa2aI1YnWhOKXAiTuxzuA3zX3AlrioLN1iaQTcGPBG4BJG3yOkqOGN8EeP86GrfN9gkoENqPUQsengV4DbDvGp1JFsbHAE8BfrNGP2xaAn0IRAzcGng4kJTJ6yq5ZTXXNX9jXQ7YbvsEFAjtx6gVD3MOO9OQl1rTVGg4ZCNV0r3mAfs2NzK2MjT0YwsEcjrhouV0Qo4wruvZm+9QNiHn+KSpk7cQuCV/ZF2DdMnMp9z3jJenAXcA8sBbV8lD7iDghsCnPJK1rjDY7hYI5FTQmYCXl30G2ZC4rpLluuRWuL+bEdcVgmm1q0CYVrxa8fYKwJtHzgm/s75nx3VyxecCqCRZinCwSKAVAnsDrwUuDkQorLMka+klS4rzdfph2xMioECYULAaczV3OCTz4tnXOF26QpKkLl8EbgZ8WaHQ2EhZnjsnBF5aluOO00D38924apl1a8AdXZgKAQXCVCLVpp8nAB4G3LUBkRBCyZmQHdnZAPY+hUKbg2amXuVZmqWEnEy4RgOza8GcGbVnliWFQ2bK3W4NSECBMCDchZjOmmrOUSdfwp6N9DlLDxEKOfGQWQ6XHhoJzEzdyObDJBq67ppyhuwMa079JPlSUjY7/mc68IbulgJhaMLLsZ9z3VlvzZW0rYyrPBi/Bjy0XGl96HLCYU8HJpBNujnRc1/gssA6Nx9u7GrGfK5pzlXqPxiYgeZnTqCVB/nMMS+mexlPyVWQt6kW1l5X4PPQzCatBwCvAH7iW9VixmTtjmZ/QTb7ZcYseQxaEQbpZ7IiPr98/5w1qB35BdpTICww6CN0+Z/KFH9mFVoqq4fme4CbAz/zroeWwtOsLxEBuVkx+21yLXmem609O39eZjKyIdEigSoEWhvkVTqlkSYIHBt4UJmCbXGc5Ux4BEIuyHmOuRSaGDOtOZFxe2ngqcAZgIzp1kpE73+WVORmGG0tOhP3p8UH98SR6v4GAhlf5yl3Kfxjw2R+CXwYeDLw3uKnU7QNB2xA1zJmc4Q3d39cEThtg7MFq+4fDFwb+KCJjwYcEQs2rUBYcPBH7Hruud+/zCa0+Ba2QhFRkBskk8Y5N+x9zr0KI46S9TWV5+DJgH8um/suWBIbtfp8/GOZ1cjmW2cN1jduZt9yq1+A2YNfaAczm5C39GzyannsrWYPPl02Nb4T+JJvabMbtacs6/a5lyCJhJLtsPVxmTF59zJr4CzX7IZkWx1q+cvQFim9qUUgYy53OTykvLVNYQzmQfzVstabJYjMMuQtzjItAhlrpwHOC9weuFKjGw53RjXLCf9eTgklz4dFAoMTmMLDeXAINrAWAscEXlnuUcgVuFMpeTj/AXg68FzgR2Wa17e5NiOYcXYi4MrAA8v+gng6lWdfsoN+BLg68Os2EevVXAlM5UsyV/72C04OHAicdYIw8vDOaYivlNMQSRQVoaBYWF8wV8+0cwL3A65W0h6v8/bRrjR+AZwf+L5jqitC6/UhoEDoQ8+6tQhkBiHZ6F4IJHfCFMdlREES1fy0bG5Mitu3bFiKUDTUGi1HtbMaK+cGblFOHmTDYRIaTXUcHQbcGXhNGVPDkNOqBDYhMMUvkEGdL4Fc/nRT4AlATj5MdXyuxEAEwzfLDEMuj3qX11L3Gryr8ZA7Py4D5NrxcwFnKVkNexlfc+WMmcxIPapcsBShaZHAWglM9QG8Vmg2PjiBvcqRyFw2c7zBWxu+gY2zB9mz8Jny5/NltuHbZnQ8ShDyXAqz/H3icqV4hED+ZMo9giAnDlLm8AzLMtV/A48AvjP8cLQFCWyNwBy+XFvrqZ+aGoGMzVOUN6rckpe3xjmN142iIVfx5oKdjwIRDblkJ3/yFnnEAtafE9e9S7xPDSRVd4TAhcumwlXc5xT/fB+z2TVHaJOUKZeKuQw1tafUzP2d2xdu5uFabPeyppx77ZPZLjnx51xWPxKrKecIho8BHy+5GHIjZdaof1v+REC0XnKXQZaMcoFXhF7+7AOcD7gQkMREqz0Dq5mDOT+bckQ28bxjianCoPURvFD/5vwlXGhIZ93t/Mi8upxf32PWPd1551YnJFZT8DlyeRDwhfJDk4t6vgF8r4iIWMln8mf1w7uysfHvraBc3VqYvzcuAaz+Pf8tJwVyKuVMZRYgSwLnKP+8YwbNfH5pz58sJXwZ2M+rmLcy5PzMugks7Qu6bt62X4dA1qVzdXOulV79QNWxPA8rEQT5MVodw8y/Z6Yhf+e/rQRDPpO32dWf/L/V22y4RoTlhMnqz4p11v/zzxEE+bPxn1d7A+ZBsk4vwvQdwG3KspGJjupw1crABBQIAwPW/KAETgUkTW42d2XpwfHcH/dqpqG/pWVbCMcIsNy0mOWx7DGwSGBSBHygTipcOrsLAscvl+wkR32mtB3XDpV1EYgwSIKjpEV+aVkCWpcvtiuBXgR8kPbCZ+XGCGQ8X6Xc9ZAz8i3fHNkYOt3pSSDLM9l4+ILyJ7MHFglMmoACYdLh0/ldEMi4zma55N7PhrB/dFbBsTIQgV8CHwAeCeSmRU8kDARas+MTUCCMz9wWxyWQDXSXL9dMn85ZhXHhz7S1zA78HHhiubTLmz1nGuild0uBsPQRsJz+r87i3w14ULnAZ3V0bzkU7GlXAqtjoa8CMoYyc5BlBYsEZktAgTDb0Nqx3RDI3oQzAv8C3K4c1fO74JDZkcBKFLy3nJT5HPArMUlgKQR8KC4l0vZzVwRyQVSy+d2oHJn0uOSyx8oqg2X2FTwPeH9JauTegmWPi0X2XoGwyLDb6V0QyHHJpHPOxsachsjV0yl+T+Y9ZPLjn30EBwJvK9d0f3feXbZ3EticgA++zRn5ieURWH0vsrnxxmWG4cxlKWJ5NObX49VswI/LyYM3AS8HfuMphPkF2x51J6BA6M7OmssgsPqO5Nhk9izkZsncMrm6XGgZFKbfy4iC3wE/AT4CPKPcnpmeuXww/fjagwEIKBAGgKrJWRNYfWeSsfFewDXL0cncSeD3qa3Q5zhi/uRGzMcDry9iQEHQVpz0plECPtAaDYxuTYZALjI6HnB64NZlSSJ7GVL8fo0Xxo3XZP8P8GzgQ8Cvy7XY43liSxKYCQEfYDMJpN1ohsDqyuPTAhcGrgZcbMP+Bb9z/UO1cQYg11u/HXg38K1y90H2ElgkIIGeBHxY9QRodQlsgcCxgGxyPCtwTuACwLmBXFu9Kn4X/x7kRiHwB+Ar5b6DzwBfLf+ejIYuGWxhEPoRCWyXgA+l7RLz8xLoRyDfufygJYtjZhkiFCIaIiCSCjr3RmRDZP7/6rNz/55u/IE/tMwCfAf4NvBFIIIg4iCbDBUD/caftSWwZQJzf/BsGYQflMCaCWwUA9nTkE2Q5y3i4QzAXsCJyn6H/P8sZaS0LCLyY756xqyyEv4WiAjI3oBDgB9tEAGfLeLgLxv6teaw2LwElktAgbDc2Nvz6RDY+CObmYWIg8w2ZMliX+AsZZPkKYFsmsz/z589ykzE0Xb4eyUsuhBY/dDnHoL8kOfv1Z8jyj/n5MDBwPeA7BH40oYlgQiDlNUsSmxYJCCBBgkoEBoMii5JoCOBiIeNF1BFGOQ7vvoT0ZBU0jllsWf55/x79khETOT/p/4q3XB+8JNhMG/92fh3OHBY+ZPp/lXJj3z+rKb/V//esRtWk4AEWiCgQGghCvogAQlIQAISaIyAAqGxgOiOBCQgAQlIoAUCCoQWoqAPEpCABCQggcYIKBAaC4juSEACEpCABFogoEBoIQr6IAEJSEACEmiMgAKhsYDojgQkIAEJSKAFAgqEFqKgDxKQgAQkIIHGCCgQGguI7khAAhKQgARaIKBAaCEK+iABCUhAAhJojMD/Bx1anb2t3+QMAAAAAElFTkSuQmCC;" parent="1" vertex="1">
          <mxGeometry x="747" y="80" width="80" height="80" as="geometry" />
        </mxCell>
        <mxCell id="KU7kqvRFh3p7BppwBaGI-33" value="" style="endArrow=classic;startArrow=classic;html=1;entryX=0;entryY=0.5;entryDx=0;entryDy=0;exitX=0.875;exitY=0.5;exitDx=0;exitDy=0;exitPerimeter=0;" parent="1" source="KU7kqvRFh3p7BppwBaGI-26" target="KU7kqvRFh3p7BppwBaGI-31" edge="1">
          <mxGeometry width="50" height="50" relative="1" as="geometry">
            <mxPoint x="710" y="510" as="sourcePoint" />
            <mxPoint x="760" y="460" as="targetPoint" />
          </mxGeometry>
        </mxCell>
        <mxCell id="FfI-ePWVMSBxA9gAXKT8-12" value="" style="endArrow=classic;html=1;entryX=0.31;entryY=0.8;entryDx=0;entryDy=0;entryPerimeter=0;exitX=1;exitY=0;exitDx=0;exitDy=0;strokeWidth=2;" edge="1" parent="1" source="FfI-ePWVMSBxA9gAXKT8-21" target="KU7kqvRFh3p7BppwBaGI-26">
          <mxGeometry width="50" height="50" relative="1" as="geometry">
            <mxPoint x="462" y="250" as="sourcePoint" />
            <mxPoint x="650" y="190" as="targetPoint" />
          </mxGeometry>
        </mxCell>
        <mxCell id="FfI-ePWVMSBxA9gAXKT8-13" value="&lt;font style=&quot;font-size: 20px&quot;&gt;MQTT&lt;br&gt;프로토콜&lt;/font&gt;" style="edgeLabel;html=1;align=center;verticalAlign=middle;resizable=0;points=[];" vertex="1" connectable="0" parent="FfI-ePWVMSBxA9gAXKT8-12">
          <mxGeometry x="0.1818" y="1" relative="1" as="geometry">
            <mxPoint as="offset" />
          </mxGeometry>
        </mxCell>
        <mxCell id="FfI-ePWVMSBxA9gAXKT8-14" value="" style="endArrow=classic;html=1;entryX=0.5;entryY=1;entryDx=0;entryDy=0;exitX=0.25;exitY=0.25;exitDx=0;exitDy=0;exitPerimeter=0;strokeWidth=2;" edge="1" parent="1" source="KU7kqvRFh3p7BppwBaGI-26" target="FfI-ePWVMSBxA9gAXKT8-20">
          <mxGeometry width="50" height="50" relative="1" as="geometry">
            <mxPoint x="600" y="240" as="sourcePoint" />
            <mxPoint x="462.18000000000006" y="65" as="targetPoint" />
          </mxGeometry>
        </mxCell>
        <mxCell id="FfI-ePWVMSBxA9gAXKT8-17" value="" style="endArrow=classic;html=1;entryX=0.5;entryY=0;entryDx=0;entryDy=0;strokeWidth=2;" edge="1" parent="1" target="FfI-ePWVMSBxA9gAXKT8-21">
          <mxGeometry width="50" height="50" relative="1" as="geometry">
            <mxPoint x="290" y="190" as="sourcePoint" />
            <mxPoint x="350" y="320" as="targetPoint" />
          </mxGeometry>
        </mxCell>
        <mxCell id="FfI-ePWVMSBxA9gAXKT8-19" value="" style="endArrow=classic;html=1;entryX=0.5;entryY=0;entryDx=0;entryDy=0;exitX=0.299;exitY=0.24;exitDx=0;exitDy=0;exitPerimeter=0;strokeWidth=2;" edge="1" parent="1" source="FfI-ePWVMSBxA9gAXKT8-16" target="FfI-ePWVMSBxA9gAXKT8-23">
          <mxGeometry width="50" height="50" relative="1" as="geometry">
            <mxPoint x="100" y="-70" as="sourcePoint" />
            <mxPoint x="150" y="-120" as="targetPoint" />
          </mxGeometry>
        </mxCell>
        <mxCell id="FfI-ePWVMSBxA9gAXKT8-20" value="&lt;font style=&quot;font-size: 20px&quot;&gt;[ 내측 ]&lt;br&gt;&lt;br&gt;투명 디스플레이&lt;/font&gt;" style="rounded=1;whiteSpace=wrap;html=1;strokeWidth=2;" vertex="1" parent="1">
          <mxGeometry x="390" y="-80" width="200" height="100" as="geometry" />
        </mxCell>
        <mxCell id="FfI-ePWVMSBxA9gAXKT8-21" value="&lt;div style=&quot;text-align: center&quot;&gt;&lt;/div&gt;&lt;div style=&quot;font-size: 20px&quot;&gt;&lt;font style=&quot;font-size: 20px&quot;&gt;&lt;br&gt;&lt;/font&gt;&lt;/div&gt;&lt;ul style=&quot;font-size: 20px&quot;&gt;&lt;li&gt;&lt;font style=&quot;font-size: 20px&quot;&gt;온도 센서&lt;/font&gt;&lt;/li&gt;&lt;li&gt;&lt;font style=&quot;font-size: 20px&quot;&gt;습도 센서&lt;/font&gt;&lt;/li&gt;&lt;li&gt;&lt;font style=&quot;font-size: 20px&quot;&gt;미세 먼지 센서&lt;/font&gt;&lt;/li&gt;&lt;li&gt;&lt;font style=&quot;font-size: 20px&quot;&gt;동작 감지 센서&lt;/font&gt;&lt;/li&gt;&lt;li&gt;&lt;font style=&quot;font-size: 20px&quot;&gt;환기량 센서&lt;/font&gt;&lt;/li&gt;&lt;/ul&gt;" style="rounded=1;whiteSpace=wrap;html=1;align=left;strokeWidth=2;" vertex="1" parent="1">
          <mxGeometry x="240" y="240" width="190" height="220" as="geometry" />
        </mxCell>
        <mxCell id="FfI-ePWVMSBxA9gAXKT8-22" value="&lt;font style=&quot;font-size: 20px&quot;&gt;[ 라즈베리 파이 ]&lt;/font&gt;" style="text;html=1;strokeColor=none;fillColor=none;align=center;verticalAlign=middle;whiteSpace=wrap;rounded=0;" vertex="1" parent="1">
          <mxGeometry x="295" y="265" width="160" height="20" as="geometry" />
        </mxCell>
        <mxCell id="FfI-ePWVMSBxA9gAXKT8-23" value="&lt;font style=&quot;font-size: 20px&quot;&gt;[ 외측 ]&lt;br&gt;&lt;br&gt;태양광 기술&lt;/font&gt;" style="rounded=1;whiteSpace=wrap;html=1;strokeWidth=2;" vertex="1" parent="1">
          <mxGeometry x="-80" y="110" width="160" height="80" as="geometry" />
        </mxCell>
        <mxCell id="FfI-ePWVMSBxA9gAXKT8-24" value="" style="endArrow=classic;html=1;exitX=0.687;exitY=0.342;exitDx=0;exitDy=0;exitPerimeter=0;entryX=0;entryY=0.5;entryDx=0;entryDy=0;strokeWidth=2;" edge="1" parent="1" source="FfI-ePWVMSBxA9gAXKT8-16" target="FfI-ePWVMSBxA9gAXKT8-20">
          <mxGeometry width="50" height="50" relative="1" as="geometry">
            <mxPoint x="570" y="190" as="sourcePoint" />
            <mxPoint x="620" y="140" as="targetPoint" />
          </mxGeometry>
        </mxCell>
        <mxCell id="FfI-ePWVMSBxA9gAXKT8-28" value="" style="shape=image;verticalLabelPosition=bottom;labelBackgroundColor=#ffffff;verticalAlign=top;aspect=fixed;imageAspect=0;image=data:image/png,iVBORw0KGgoAAAANSUhEUgAABLIAAAG0CAYAAAAmfQ5DAAAgAElEQVR4AeydL7SUThTHN/6i0Wg0Gj0k44tGo2mP0Wh70eg2o/HF19ZoNBpf2GA0Go38zh247AADC8wAM/DhHN19MH/ufObOAl/uDId859uPHz/yh4eH/P7+vvp3d3eXv3nzpvr3/Pnz/HA48A8G+AA+gA/gA/gAPoAP4AP4AD6AD+AD+AA+MIsPPHv2rNIhVJOwtYqvX7/momH8/ft310rOYQ+t//fvn+nsz58/5x8/fjSOgTiFMIc4iQ/gA/gAPoAP4AP4AD6AD+AD+AA+gA+k6AP//fef0Tbev39vgnK+f/++G4Frk0KWCFfSiZ8+fcpfv37dqZQ2O16UTlU4ReXUf79//96D3kcbIQABCEAAAhCAAAQgAAEIQAACEFiJgERaqQ6hn/YMsiGBOa9evTIBPI+Pj5sVtjYjZInYJEJUl3Al+0XYUqFq76F4K41LqoUABCAAAQhAAAIQgAAEIAABCEAgAAERu1TokiWSJFinGV2mwtbPnz8D1BhHEUkLWSJGffv2zYTTNTtLhSuJzJIILTYIQAACEIAABCAAAQhAAAIQgAAEILBlAiJYybJKLmHr5cuX5ljqs86SFLIkRO7du3cttVH2yTGEqy0PS9oGAQhAAAIQgAAEIAABCEAAAhCAwBACImzJ7LQXL17UorVE6JLAoBT1k2SELIErkJvwJfJKpgsyVXCIC5MGAhCAAAQgAAEIQAACEIAABCAAgT0SkKmIsji8PQVR3pQoyzSlpKlEL2SJgPXly5fcfsughMMJ6NTD4fY4cGgzBCAAAQhAAAIQgAAEIAABCEAAAusR0EChN2/eVFFaImhJ5NafP3/WM2xgzdEKWaIGilhlC1iySJlMHWSDAAQgAAEIQAACEIAABCAAAQhAAAIQ8CMgUVq2oCXRWvJ2xJgFrSiFLJkqKGqgLuAu0wcRsPyck9wQgAAEIAABCEAAAhCAAAQgAAEIQMBFQAQtWTdLdRgRtCS4KMY1tKISsn79+pWLaKXgRBUUmGwQgAAEIAABCEAAAhCAAAQgAAEIQAAC8xIQXebt27eVLiPrlH///n3eSkeWHoWQJdMIJXRNBSyZTigLu7NBAAIQgAAEIAABCEAAAhCAAAQgAAEILEtAgopkfXLVaUTcimW64epClkwZtNfBEkErpdXyl3UlaoMABCAAAQhAAAIQgAAEIAABCEAAAssQ+Pz5c7X0k0w3lL/X3lYTsmSe5YcPHyp1T6YU/vz5c20e1A8BCEAAAhCAAAQgAAEIQAACEIAABCBQEpBIrHfv3lX6jSwDtWZ01ipC1tPTUy5vIJQQNVH0vnz5goPESuB8zA+HLD9d1jTwnB8PhzwLbcTMbbucjnl2OBg/P57X5EfdEIAABCAAAQhAAAIQgAAEIAABPwIy3VBn1MnnWmuaLy5kPTw8VGFpMt9SFhJbbLucSmHhhjBjBI5j3qc9XE5Zh0BxyU/ZIT9kp/yW9nM+Wukq2wrhQ+ehmk9bBelKlx3z0/lWjQ3Sl3N+OmaV2GLqapYzs9jTsKjjzxFCVgefLDvmLTxzts2Ufe1Luws7GsluCEAAAhCAAAQgAAEIQAACEIBA1ARkKSj77YbyZsOlt8WErOZUQglLW3wtLFvk6BOabgpZpVgl0TaOcgqR64ZYVtpSRRnZtpVRPJWYZasgfekOh9xO2udMKsRVddTqtES8OcWePgNrx/yFrKKdjT7xbJswzBz9L6YbkfLgEM9q7eIPCEAAAhCAAAQgAAEIQAACEIBAegRkrSzVE5aeariIkCWClTRMGilTCb9+/bpOL6l4lBXRVJWI1LTmlpBVK6chjkhZerxnKlxL7Crz3BSiOtJdzuU0tg5hxW5iJWKV0Vd2HNfFRGmdrtFonmKPXe/07+OFrDrHS15N87MPeLatFlFXa1wpdNp11Y7zBwQgAAEIQAACEIAABCAAAQhAIG0Css65TjV88eLFYjPuZheyfv/+Xa2HtWTDnO5QiUAaUeUQoSTjDSHrGm1TTlVsCRZavhXZVDOoPG6LTpVttYTtP3rSFQJVV51lUWV+VyRZuzJl0cHJmWGOnb5CVmFTiw9C1hydRZkQgAAEIAABCEAAAhCAAAQgsBMCduDSs2fPFnmJ36xClqx/JeKVRGLJ4u4iaq262SJQn6DTK2QVosrBiFc9gpUpo2Oqn+uYbVsfpL50A4SZSoTrq8M+1lnmJT831tfKjqfWOlTdUUsFx7YGWKzbpSGKB7O2VRghqyVQdrTNRLfJOmc63VIi1+ywtbL/quNlOmlLFe2mec2nLS4O41bYKgJikd7UpbAqu61jshj+Uddlu+RnmfaoNjTtt/uX7xCAAAQgAAEIQAACEIAABCAAAQ8CspSUvtVQZuE9Pj56lHY762xClqxeL2qc3IDLtMLF18Nytb0hAqno0JpiaIQCW3ywCitFDNUUCsHBJVjZgpeV314/yd7dsM0+VPvek64VcVTLKH+UwltlfCtBe0clmtiHzvnRFnpUMGmJNuVaUXbkWVWMS8gqmdXKuwpKrX6qyrK+9PBpiXiutpX5myJV7c2NpQ8009wWsoZzUyHreDzmx+Yq9aXdmasPslN+kpcItBh2+LOFjq8QgAAEIAABCEAAAhCAAAQgAIGpBD58+FDdi3779m1qMTfzzSJkifomKpzcTIsqJ+pcFFtL5NCIqsbUOSMUuG78Nb19rBRfHGJNSzgxEDoErk4BpSGStdoghRYROMK7X+xxiUc3esYh9hTtkgigs/VmxqsNRbRaUe6YiKyq3JNV7uUq/vS3rWxHF5+jY100R9tkfbOjtMuKwJL1tVxsu9vmFgyr9g3gpgKps83GbhGrsuubKmVtM0vYuua79ssY/fKGV3AYAhCAAAQgAAEIQAACEIAABCDQIiBvMdTAirneaBhcyJJILBWxPn782GrUqjtcIocKSPZdfpeQVaa9igRFawqBoiGGyaFScKild4knklbtaEXSuIUsdQz7U4Sl/i2EkNUhxJUVFyyuQl+32NO0pafcDu7OtvZwbK0L1tUXrYILYarWjxpZ5xAw3ZFvPe3TsuQth1p36TvOLu06Vu63hcSiuKLupv1aFZ8QgAAEIAABCEAAAhCAAAQgAIFQBCQaS7WKOV72F1TIkjWxdDphdCKW9EgpcjTFAZ1iWO03goAlKpS9eUuwagsIZWROJXY0/7bcpMM2K0XxtUOoGSZSTBA0DAtLpLtlZ4PdYCGrt9wRdjv5ZPnRjvJSqM226X5Zl+p0zGVaX1a+4VIGYZNxd9scEVm97VPR0/K5LtvExq5jnXW4hThtLp8QgAAEIAABCEAAAhCAAAQgAIGQBGwxK/SaWcGELFnIXRd2l+mEUW43bvQPGhHTEGOKtpQRNY6IKVUaq/xW4wuRrBSCyvqbgohJ3mmbVZh8baW7Th1zllvL3iOk1dJZfzRFk1b9Vlr52mDXLfYUPCvxsLfc8UJWVW7DvNqfzbYZvMUUxGufXtebavLtbhtCVo0zf0AAAhCAAAQgAAEIQAACEIDA7gh8/vzZRGbJrL3v378Ha38QIUsWcn/58qUx8O7uLp41sZqY+sSS8piJqmqIMaYYs+8qariEDtnXElCscmui1hjb7LQdbTCiiqyZZK3tZGfT7xp91hRl9HjrsyX2lIJeq6FFzqa4U9hlRRppBSXPazE95ZZtHmRzBx+ttvbZ1bZM3r54yS/yTzJ01N9s67Vsh5CV97RPpxZWkXsqCHb0Z8vusubOthORde0bvkEAAhCAAAQgAAEIQAACEIDAUgRktp5oJTJ7T2bxhdi8hSxZyF3eSiiGvXr1Ko63E3aR6bzRLzKoyCNTyurRVaUw0ScUlWW31mHSNwVmx+JNf1flpm7lDduqxJ3pSqHEFkOqTPYXbcshP2RHI9jUjprF1U+NtZrqgkohTnUv9m4LTspUBELV2C7nU56VkW1XHFe77Lf0XWTx9TKtXa5tc+17J59aquKPpiBU5q3V07PYfCXSacOqKsq2XBtnjozh1jl9UEpq2q31dra9sKfWLs3DJwQgAAEIQAACEIAABCAAAQhAYEYC79+/N5rR8+fPc5nN57t5C1lqkEwrDGGQb4N683fe6Guuq5hSE7LKfO01sDRf8VkIFXXRxxwxwkMRzdXQNq4FaB3OqYtWRFNfG7SMzkq0uuubAN2RZVZ9TtGkFM1ctraEtI60x6MRqGqmqv3NcrPMCF+DhJg+Ptp8/Wy1ze7/a/RddireCNisvxLpSnuvbXELWblGZTXbJ383ubVsU6MRsiwSfIUABCAAAQhAAAIQgAAEIACByAlIAJTM3hP94fXr196z+LyELF28S+Y7Pj09RY7uOkXsKjg4TK7ElKuYUwgWDoGqmV3ztipQMedaZjOrTl+7KSzdEGpUXGmZ0K4wv5xlMfOrYCN1Z80orU5B5ZKfjvZ6Ulkub01sBSdJvRJVZdWTHU/5pRR1Wna20kqZBb+mkNRqUlmXRHu1ynUldrXtIqLVtV1Fm7oimuoMrnV2CVnGwGHcXLZpG7qOdfpGl/1aIJ8QgAAEIAABCEAAAhCAAAQgAIH5CIiYpeuq+74ccLKQJcKVCFgifoigxQYBCEAAAhCAAAQgAAEIQAACEIAABCAAAReBnz9/VjqSz5sMJwlZoqTp4u4ytZANAhCAAAQgAAEIQAACEIAABCAAAQhAAAJ9BL58+WIComTx96nLU00SsnRdLBGzRNRigwAEIAABCEAAAhCAAAQgAAEIQAACEIDALQJv376t1su6ldZ1fLSQldy6WK5Wsw8CEIAABCAAAQhAAAIQgAAEIAABCEBgcQJ///6t1su6v78fXf8oIUsqk9clsi7WaM5kgAAEIAABCEAAAhCAAAQgAAEIQAACEMjzXNbLEm1pyssDRwlZHz588Ar/orcgAAEIQAACEIAABCAAAQhAAAIQgAAEIKAa05s3b0bBGCxk/fr1y4hYopjJdzYIQAACEIAABCAAAQhAAAIQgAAEIAABCEwhMHXW32Ah69WrV0bI+vjx4xT7yAMBCEAAAhCAAAQgAAEIQAACEIAABCAAgYqArsMuy1iJsDVkGyRk6esRpWDeUjgEK2kgAAEIQAACEIAABCAAAQhAAAIQgAAEbhGQqYUy+0+mGg7ZbgpZf/78yZ89e2YKfXh4GFImaSAAAQhAAAIQgAAEIAABCEAAAhCAAAQgcJOALF8li74PXcrqppAlUwmlsLu7u5uVkwACEIAABCAAAQhAAAIQgAAEIAABCEAAAmMIqPb09u3bm9l6hSyZRqjRWCzwfpMlCSAAAQhAAAIQgAAEIAABCEAAAhCAAARGEpDZgEOjsnqFLF0ba+yrEEfaS3IIQAACEIAABCAAAQhAAAIQgAAEIACBHRMYGpXVKWRJNJYs7i7TCh8fH3eMkqZDAAIQgAAEIAABCEAAAhCAAAQgAAEIzElgaFRWp5Cl0VivXr2a007KhgAEIAABCEAAAhCAAAQgAAEIQAACEIBArlFZfW8wdApZRGPhPRCAAAQgAAEIQAACEIAABCAAAQhAAAJLEtCoLFkvS767NqeQ9fDwYKYUEo3lQsY+CEAAAhCAAAQgAAEIQAACEIAABCAAgTkISDSWLHP16dMnZ/FOIUtedyiZPn/+7MzETghAAAIQgAAEIAABCEAAAhCAAAQgAAEIhCbw48cPo0m9ePHCWXRLyNIwLhGyusK4nCWxEwIQgAAEIAABCEAAAhCAAAQgAAEIQAACngT05YMiajW3lpCli7zf3d010/I3BCAAAQhAAAIQgAAEIAABCEAAAhCAAARmJSDTCiXA6v379616WkLW69evTeJv3761ErMDAhCAAAQgAAEIQAACEIAABCAAAQhAAAJzEnh6ejLalCz6Li8ktLeakNWX0M7EdwhAAAIQgAAEIAABCEAAAhCAAAQgAAEIzEVAXkAoUVnyQkJ7qwlZfaFbdia+QwACEIAABCAAAQhAAAIQgAAEIAABCEBgLgJdS1/VhCxVu1yLac1lGOVCAAIQgAAEIAABCEAAAhCAAAQgAAEIQMAmIC8glIis5vTCSsj6+/evM4FdCN8hAAEIQAACEIAABCAAAQhAAAIQgAAEILAEAVfAVSVkPT4+GiHrzZs3S9hCHRCAAAQgAAEIQAACEIAABCAAAQhAAAIQ6CTw8eNHo1Xd399XaSohy3WwSsUXCEAAAhCAAAQgAAEIQAACEIAABCAAAQgsSMAVdFUJWa5wrQVtoyoIQAACEIAABCAAAQhAAAIQgAAEIAABCFQEXMtgGSHLdaDKxRcIQAACEIAABCAAAQhAAAIQgAAEIAABCKxAoBl4ZYQsV6jWCrZRJQQgAAEIQAACEIAABCAAAQhAAAIQgAAEKgLNpbCMkPX582ezeNanT5+qhHyBAAQgAAEIQAACEIAABCAAAQhAAAIQgMCaBDT46u3bt8YMI2S9e/fOCFkPDw9r2kbdEIAABCAAAQhAAAIQgAAEIAABCEAAAhCoCDw9PRnNSqYYymaELJ1v+OvXryohXyAAAQhAAAIQgAAEIAABCEAAAhCAAAQgsDaBw+GQ//fff8YMI2Q9e/bMqFv//v1b2zbqhwAEIAABCEAAAhCAAAQgAAEIQAACEIBAReDly5dGtzLRWX/+/DF/vHjxokrAFwhAAAIQgAAEIAABCEAAAhCAAAQgAAEIxEBA1seSqKzv37/nB/Pf4ZDf3d3FYBs2QAACEIAABCAAAQhAAAIQgAAEIAABCECgIiAvJxQh68uXL/nh69ev5g95nSEbBCAAAQhAAAIQgAAEIAABCEAAAhCAAARiIvDt2zejXX348CE/3N/fmz9E0GKDAAQgAAEIQAACEIAABCAAAQhAAAIQgEBMBH78+GG0qzdv3uSH9+/fmz9E3WKDAAQgAAEIQAACEIAABCAAAQhAAAIQgEBMBJxC1sPDQ0w2YgsEIAABCEAAAhCAAAQgAAEIQAACEIAABPKfP3+aIKxXr17lB1nkXRbMEnWLDQIQgAAEIAABCEAAAhCAAAQgAAEIQAACMRH4/fu30a5evHiRH8z8QoSsmPoHWyAAAQhAAAIQgAAEIAABCEAAAhCAAARKAjUh6+XLl0bVkp1sEIAABCAAAQhAAAIQgAAEIAABCEAAAhCIjYDMJjT/TFjW4ZAjZMXWRdgDAQhAAAIQgAAEIAABCEAAAhCAAAQgIAQqIevZs2fmj79//0IGAhCAAAQgAAEIQAACEIAABCAAAQhAAALREaiELP0SnYUYBAEIQAACEIAABCAAAQhAAAIQgAAEIAABOyILIQt/gAAEIAABCEAAAhCAAAQgAAEIQAACEIiZgOpXB/0Ss7HYBgEIQAACEIAABCAAAQhAAAIQgAAEILBfAqpfIWTt1wdoOQQgAAEIQAACEIAABCAAAQhAAAIQSIIAQlYS3YSREIAABCAAAQhAAAIQgAAEIAABCEAAAghZ+AAEIAABCEAAAhCAAAQgAAEIQAACEIBAEgQQspLoJoyEAAQgAAEIQAACEIAABCAAAQhAAAIQQMjCByAAAQhAAAIQgAAEIAABCEAAAhCAAASSIICQlUQ3YSQEIAABCEAAAhCAAAQgAAEIQAACEIAAQhY+AAEIQAACEIAABCAAAQhAAAIQgAAEIJAEAYSsJLoJIyEAAQhAAAIQgAAEIAABCEAAAhCAAAQQsvABCEAAAhCAAAQgAAEIQAACEIAABCAAgSQIIGQl0U0YCQEIQAACEIAABCAAAQhAAAIQgAAEIICQhQ9AAAIQgAAEIAABCEAAAhCAAAQgAAEIJEEAISuJbsJICEAAAhCAAAQgAAEIQAACEIAABCAAAYQsfAACEIAABCAAAQhAAAIQgAAEIAABCEAgCQIIWUl0E0ZCAAIQgAAEIAABCEAAAhCAAAQgAAEIIGThAxCAAAQgAAEIQAACEIAABCAAAQhAAAJJEEDISqKbMBICEIAABCAAAQhAAAIQgAAEIAABCEAAIQsfgAAEIAABCEAAAhCAAAQgAAEIQAACEEiCAEJWEt2EkRCAAAQgAAEIQAACEIAABCAAAQhAAAIIWfgABCAAAQhAAAIQgAAEIAABCEAAAhCAQBIEELKS6CaMhAAEIAABCEAAAhCAAAQgAAEIQAACEEDIwgcgAAEIQAACEIAABCAAAQhAAAIQgAAEkiCAkJVEN2EkBCAAAQhAAAIQgAAEIAABCEAAAhCAAEIWPgABCEAAAhCAAAQgAAEIQAACEIAABCCQBAGErCS6CSMhAAEIQAACEIAABCAAAQhAAAIQgAAEELLwAQhAAAIQgAAEIAABCEAAAhCAAAQgAIEkCCBkJdFNGAkBCEAAAhCAAAQgAAEIQAACEIAABCCAkIUPQAACEIAABCAAAQhAAAIQgAAEIAABCCRBACEriW7CSAhAAAIQgAAEIAABCEAAAhCAAAQgAAGELHwAAhCAAAQgAAEIQAACEIAABCAAAQhAIAkCCFlJdBNGQgACEIAABCAAAQhAAAIQgAAEIAABCCBk4QMQgAAEIAABCEAAAhCAAAQgAAEIQAACSRBAyEqimzASAhCAAAQgAAEIQAACEIAABCAAAQhAACELH4AABCAAAQhAAAIQgAAEIAABCEAAAhBIggBCVhLdhJEQgAAEIAABCEAAAhCAAAQgAAEIQAACCFn4AAQgAAEIQAACEIAABCAAAQhAAAIQgEASBBCykugmjIQABCAAAQhAAAIQgAAEIAABCEAAAhBAyMIHIAABCEAAAhCAAAQgAAEIQAACEIAABJIggJCVRDdhJAQgAAEIQAACEIAABCAAAQhAAAIQgABCFj4AAQhAAAIQgAAEIAABCEAAAhCAAAQgkAQBhKwkugkjIQABCEAAAhCAAAQgAAEIQAACEIAABBCy8AEIQAACEIAABCAAAQhAAAIQgAAEIACBJAggZCXRTRgJAQhAAAIQgAAEIAABCEAAAhCAAAQggJCFD0AAAhCAAAQgAAEIQAACEIAABCAAAQgkQQAhK4luwkgIQAACEIAABCAAAQhAAAIQgAAEIAABhCx8AAIQgAAEIAABCEAAAhCAAAQgAAEIQCAJAghZSXQTRkIAAhCAAAQgAAEIQAACEIAABCAAAQggZOEDEIAABCAAAQhAAAIQgAAEIAABCEAAAkkQQMhKopswEgIQgAAEIAABCEAAAhCAAAQgAAEIQAAhCx+AAAQgAAEIQAACEIAABCAAAQhAAAIQSIIAQlYS3YSREIAABCAAAQhAAAIQgAAEIAABCEAAAghZ+AAEIAABCEAAAhCAAAQgAAEIQAACEIBAEgQQspLoJoyEAAQgAAEIQAACEIAABCAAAQhAAAIQQMjCByAAAQhAAAIQgAAEIAABCEAAAhCAAASSIICQlUQ3YSQEIAABCEAAAhCAAAQgAAEIQAACEIAAQhY+AAEIQAACEIAABCAAAQhAAAIQgAAEIJAEAYSsJLoJIyEAAQhAAAIQgAAEIAABCEAAAhCAAAQQsvABCEAAAhCAAAQgAAEIQAACEIAABCAAgSQIIGQl0U0YCQEIQAACEIAABCAAAQhAAAIQgAAEIICQhQ9AAAIQgAAEIAABCEAAAhCAAAQgAAEIJEEAISuJbsJICEAAAhCAAAQgAAEIQAACEIAABCAAAYQsfAACEIAABCAAAQhAAAIQgAAEIAABCEAgCQIIWUl0E0ZCAAIQgAAEIAABCEAAAhCAAAQgAAEIIGThAxCAAAQgAAEIQAACEIAABCAAAQhAAAJJEEDISqKbMBICEIAABCAAAQhAAAIQgAAEIAABCEAAIQsfgAAEIAABCEAAAhCAAAQgAAEIQAACEEiCAEJWEt2EkRCAAAQgAAEIQAACEIAABCAAAQhAAAIIWfgABCAAAQhAAAIQ6CHw9+/f/MePH+bf/f19Lv/evn2bv3nzJn/+/HluXUzx/XCAQWAGz549M74m/qb+9/j4aPzx9+/fPZ7LIQhAAAIQgMA2CVjXXsWFR+rNfHp6Mid2OcHryf7u7s5cALx48YKLq8AXV5YDwRa2+MCGfEBuzuWmyb5xenh4ML+vv379Sv1Ugf0QuElABIIvX76YMcC5DnEqZh949eqVueblt/nmsCYBBCAAAQhshIB1Xk5XyBLxSkSrly9fciO9oRtpyznpV/oVH4jMB+TBwIcPH4ywtZHzIc2AQC7XE58+fXJeT4ioKw/G9CEZETE4zFIE/vz5Y35rJSpQ/e/du3dGZJVoLft6id/mpXqFeiAAAQhAYE0C1rkvLSFLnjp9/Pgxb0ZZafi1nOD1ZP/9+3dzASAXqGwQgAAEIHCbgESjNKdSvX//3tw4NX93JXpLjsmNPRsEUiQg1xQyVdC6KMrlekKuJSQSUaYWskEgVgJynSsPFprTXF+/fs3Dhlg7DbsgAAEIQMCLgHXNloaQJSdrCaG2DDcnbjmByzE2CEAAAhCYn4A+TGhGwsqNlEzHYoNACgREsBURVq8p/vvvPyMIcD2RQu9ho4uA/DZLVKEtakkkoexngwAEIAABCGyFgF67HfRLrA37+fNnbZ0KOUFLRJbsZ4MABCAAgfUISLTr58+fa9OxJGqLCK31+oSa+wnIVC25htBrH/mUB2Kynw0CWyAgUYQyM8GeeigRhiwOv4XepQ0QgAAEIGBdw8UZkSUnXDvcX07IcsP0798/eg8CEIAABCIjIOKVPfVQImhliiIbBGIhIJEpto/KNQY397H0DnaEJqCirUQbykW/XEfzmxyaMuVBAAIQgMDSBKIWsuRJkhooJ2AJlWadiqVdhPogAAEIjCfw9evX2tQWEQv4/R7PkRxhCYjQqhEqIrIy3SosX0qLl4CItTLFUK+rmQIeb19hGQQgAAEI3Cag57OophbKzY4dhSXrVxDuf7szSQEBCEAgJgISOWtPbRHhgMiXmHpoX7bIjbte9Mg1BpHd++p/WlsQkIfCOg5kOi3jAM+AAAQgAIEUCcKNaeQAACAASURBVOi5LBohS25ydDF3eWrKGispuhU2QwACELgSkDW0dFF4prVcufBtOQJyw64XPLI2FhsE9kxA3sSpUw3lzYZEy+7ZG2g7BCAAgTQJ6HVdFEKWzNnXkH+56ZGbHzYIQAACEEifgNwo6bQWuYGSqYdsEFiCgIpY4nffvn1bokrqgED0BORlSfpmQ3mATGRW9F2GgRCAAAQgYBGIRsiSi0s15s2bNzwdsjqJrxCAAAS2QsB+U5wIDGwQmJOATicUEev79+9zVkXZEEiOgMyC0BcfyBsN2SAAAQhAAAKpEFDtaNWILLm4VEMI+U/FdbATAhCAwDQCEo2l01rkLbRsEJiDgCxNoNcWRGLNQZgyt0BAXnjA7/EWepI2QAACENgXAb3GW03IkqdBOp0QEWtfzkdrIQCB/RKQNVr0BMRaiPv1g7labt+cy+LWvtvllBl/PZ57Srqc8uyQ5adLTxoOQSBCArboy+9xhB2ESRCAAAQg0CKg9xGrCFmyZoouACxrp7BBAAIQgMB+COjbsyQaQIQHNgiEICBvOdbpUvJ2Qv/tkp+yQyG8Zqe8U6dCyPJHTQmrEZDoWLkpkN9j1qhdrRuoGAIQgAAEBhJYVciSC0wxQMSsVd6Ycj7mh9Wfnp7z4+GQZzzCHeiyJIMABLZEQM8DIjyIAMEGAV8Cug5bsAWsjUB1yLNMorJ6Iq4Qsny7jvwrE5B1suS6XMYOGwQgAAEIQCBmAqsJWfokXqYVzvLk53LOT8cszw7lU1T5zI756Ww9S01NyPK4SD4fLQ42E/t775wJhxsPYezIxi4IQAACSkDelCU3TXIyktfA8+YsJcPnFAIS2acXNqGi/Irz5zE/l4LWoetc6XGOntJW8kAgNAH5/dU3GTLFMDRdyoMABCAAgZAE9Hpv0amF9oXmHG8R0rUsrMZVF7aHwzGvlrhAyLK4HPLOi3OHxw1m7MjLLghAAAI2AVkrUW+e5C1zbBCYSkAj/MK9ga2Imi7OjzrF0LqOsA1FyLJp8D1RAvqmT6KyEu1AzIYABCCwEwKW1lNE7CzRbr3QnGNx90pgKaOvrPir/GIiiE67FLKa/WqeMHc9VW4mbvw9inEjL39CAAIQcBHQxYZF0CIqy0WIfbcI6EMyWeMn2DRV88DrkFeny+bftlEIWTYNvidKwI7KkpdysEEAAhCAAARiJLC4kPXz508TBRT0QlPJath/32KsmlY+dxSRZTe7aPq4CKwq/1jGVUa+QAACEOgnoFMM7+/v+xNyFAIOAuEfkrkisMoILdd1BkKWo1fYlSKBb9++mWt1Hiyk2HvYDAEIQGAfBBYXsvRGJcTrsJtdVK1j0TzQ9XenkHXJz431tbLjKbeX15IiTX2ui9m8uNCtnuBq/eWaUhX0TNbcGLHYe+dF8jB71YzK9paBdgr399GMTTED7av6o0hvONVstPa71jxzm8xeCEAgEQIy1VzG/SwPOhJhgJnTCMwSjVU+uGm+jKU4DzoWfe88R09rE7kgsCYBvV7/+vXrmmZQNwQgAAEIQMBJoNJU9IszVaCd804dKZ+c1oSPG4ZXwomd7pwf9TXb9kLo5nt9XYxxQlb5FLdVZjGls3mhbFtUfXdeJA+3typHRbgxrEzmCYxF1BvIUyPkjsdjfmyqhrk+GW8vWj+6GTYIvkMAAlERCB9VE1XzMGYmAvqmwpBLFnQKVubawRHV7DxHz9RgioXAzARkWqHcG7x582bmmigeAhCAAAQgMJ6A6lezL/Yuc+716c48i/l2REH1MXEIWcWF6yHPjuf8ur7WJT+f5LXb9QvXMUJWVe7JKleisUqRZ6qQVZU7wF4bhck3WgEaz3iUfeXNgYuFrsuVufg5o+Ls1vIdAhBIhcAskTWpNB47JxN48eKFOUfL8gVhtv6HT8XFU/3hVo6QFQY9pURBQK7bJTpWfD3YmnNRtAwjIAABCEBgCwQWE7J+/PhhTobzzbcfL7JoBNCpUqzKC9cOgacQZa4XruZvp4jStKWnXHPhe8hd4k3LwVoXyT3latSV/ZZGq8BlhKyR9pVCVht/UY6Tkclz7ROriXyFAAQSJaBRWayVlWgHLmz209NTdX0RrOryfGRdJJk6mn/Xzletc3QwaygIAqsQuLu7M34va2axQQACEIAABGIiYF2TzfvWwg8fPpiT4Xw3Jj1iRxdxc6FqrXNRikq1C1M7b0M0GSxk9ZY7wu7mRXJvubqYvVvk8RGynIKSzUm/j7Wv2R9aTrnmmOWsjRsKqw+rPHyBAARSJaAPPiSKlw0CtwjIdYWcH96/f38r6cDjOpW959xSnt8O9sOs5jl6YG0kg0CsBHTRdxG02CAAAQhAAAIxEbC0gXmFLInEkspk2sg8W3nhaV9U3qqoKZyMFF72J2SNZDySZztCTjuwjOzqWF/scOi52dAi+IQABJIhIFNanj17Zs4Zv3//TsZuDF2HwOvXr42vyDqcQTYVqTqfahW1mGsA+/yDkBUEP4XEQ0CmFMq1u0wxlN9lNghAAAIQgEAsBBYRsmTNCqlI1rCYc7uuo1TNFeyvrilkaeRPx8VrU7gqLmIdEU+m3EN+LaYUYq47rnaVF8yDopxaF8k95erUwg5hz9jusudqmfPbOMYj7Wv1h5pQlDOIkWbhEwIQSJrAu3fvzHljnjUVk0aD8RaBOW60i/PcgAckTcGrdY62DOUrBBIlIIu9yzW8LP7OBgEIQAACEIiFwCJC1qdPn8xJUD7n3XQ6wCE/ZMf8fKkLWhezuPopP6sRDuGkEKe6F3u3xRQVdQ7WQuuX8ynPysihq050tct+G9/lcsqPZVq7XDWv9em4SB5jr13eVCErt98eOIDxKPsc/aE2F+VkjbcZXvLL2fWGQ83FJwQgkCoB3piVas8ta7dOQ2Xq07LcqW0/BD5//myu4edbGmQ/LGkpBCAAAQiEI7CIkKVvE5ILzvm365sArcaZk3DxtxVB5RROyigi1zS2VnRTR9rj0QhUVyErz4u3GRXTN2t2ZZkRvqYKWblGkQ2y90p/upAlZYxgPMY+Z3+UNuuTb0c7B7G7Np1vEIBAAgT+/v1bvTFLvrNBwEVA1/AJtz6Wqxb2QWC/BHSMyVq3bBCAAAQgAIFYCFiayjxrZOmr1GWNrOW2IlIny+rCUdaMIOoUTi756ZhZ4leWZ1bUVa0dElVl1ZMdT/mlFG9qQpZkaqU9V2kHiTGOiKzClhH2lsb7CVmmMSYa6iZjU99A+zr7ozTaRNQ5+qUeeFcm5gMCEEidgL69kCktqffkfPbrQu9Ei8zHmJL3TUCjHuX3mA0CEIAABCAQC4HZhazv378bQYgTYCxdjh0QgAAE0iCgIoVMbWGDgIuAvhFZokbYIACB8AT0gbS8VIENAhCAAAQgEAuB2YWsr1+/GiGLkORYuhw7IAABCKRBQKe0fPz4MQ2DsXJxArI2llzIyEMzNghAIDwBfaHC3C9sCm85JUIAAhCAwJYJzC5k6RN1wv637Ea0DQIQgEB4AhrRK28wZIOAi8CrV6+MkCVRI2wQgMA8BORm4b///puncEqFAAQgAAEITCAwu5AlC7BKJYT9T+gdskAAAhDYMQGd0iKvf2eDgIvAs2fPzDUGLwRw0WEfBMIQ0HEWpjRKgQAEIAABCPgTmF3IIuzfv5MoAQIQgMAeCTClZY+9Pq7NehEzLhepIQCBMQQYZ2NokRYCEIAABJYgoOemg34JXSlh/6GJUh4EIACB/RCQcxNTWvbT32NbOte1y1g7SA+BLRNgnG25d2kbBCAAgTQJ6LlpNiFLw5HlyTobBCAAAQhAYAyB58+fm6ljY/KQdj8E9CJmPy2mpRBYngDjbHnm1AgBCEAAAv0E9Nw0m5ClFfSbwVEIQAACEIBAmwDnkDYT9lwJ4B9XFnyDwFwEGGdzkaVcCEAAAhCYSkDPTQhZUwmSDwIQgAAEZiOgJ6nZKqDgpAngH0l3H8YnQoBxlkhHYSYEIACBHRHQcxNC1o46naZCAAIQSIWAnqRSsRc7lyWAfyzLm9r2SYBxts9+p9UQgAAEYiag5yaErJh7CdsgAAEI7JSAnqR22nyafYMA/nEDEIchEIAA4ywARIqAAAQgAIGgBPTchJAVFCuFQQACEIBACAJ6kgpRFmVsjwD+sb0+pUXxEWCcxdcnWAQBCEBg7wT03ISQtXdPoP0QgAAEIiSgJ6kITcOkCAjgHxF0AiZsngDjbPNdTAMhAAEIJEdAz00IWcl1HQZDAAIQ2D4BPUltv6W0cAoB/GMKNfJAYBwBxtk4XqSGAAQgAIH5Cei5CSFrftbUAAEIQAACIwnoSWpkNpLvhAD+sZOOppmrEmCcrYqfyiEAAQhAwEFAz00IWQ447IIABCAAgXUJ6ElqXSuoPVYC+EesPYNdWyLAONtSb9IWCEAAAtsgoOcmhKxt9CetgAAEILApAnqS2lSjaEwwAvhHMJQUBIFOAoyzTjQcgAAEIACBlQjouQkha6UOoFoIQAACEOgmoCep7hQc2TMB/GPPvU/blyLAOFuKNPVAAAIQgMBQAnpuQsgaSox0EIAABCCwGAE9SS1WIRUlRQD/SKq7MDZRAoyzRDsOsyEAAQhsmICemxCyNtzJNA0CEIBAqgT0JJWq/dg9LwH8Y16+lA4BIcA4ww8gAAEIQCA2AnpuQsiKrWewBwIQgAAEuIHCB3oJ6EVMbyIOQgACXgQYZ174yAwBCEAAAjMQ0HMTQtYMcCkSAhCAAAT8COhJyq8Ucm+VAP6x1Z6lXTERYJzF1BvYAgEIQAACQkDPTQhZ+AMEIAABCERHQE9S0RmGQVEQwD+i6AaM2DgBxtnGO5jmQQACEEiQgJ6bELIS7DxMhgAEILB1AnqS2no7ad80AvjHNG7kgsAYAoyzMbRICwEIQAACSxDQcxNC1hK0qQMCEIAABEYR0JPUqEwk3g0B/GM3XU1DVyTAOFsRPlVDAAIQgICTgJ6bELKceNgJAQhAAAJrEtCT1Jo2UHe8BPCPePsGy7ZDgHG2nb6kJRCAAAS2QkDPTQhZW+lR2gEBCEBgQwT0JLWhJtGUgATwj4AwKQoCHQQYZx1g2A0BCEAAAqsR0HMTQtZqXUDFEIAABCDQRUBPUl3H2b9vAvjHvvuf1i9DgHG2DGdqgQAEIACB4QT03LQZIevp6Sm/v7/P3759m7948cJ+LSPfD4dkGTx//jx/8+aN6dvv378P93BSQgACSRPQk1TSjcD42QjgH7OhpWAIVAQYZxUKvkAAAhCAQCQE9Ny0CSHr8+fP+X///ZesWGN1Bm24Ibq9f/8+//v3byTDCDMgAIG5COjv4lzlU27aBPCPtPsP69MgwDhLo5+wEgIQgMCeCOi5KXkhS6J1tDHv3r3Lv337lv/69WtPfbnptkqk3cPDQ/7x48dKrJSIuz9//my63TQOAnsnoL/re+dA+90ElvSPx8fHKuJbrjmePXtWXXeoHXymG/k9d9+Jz2hkuVyjpvQwTtm4RyF7IQABCEAAAssT0HNT0kKWTCWUhshFpVxosm2bgIhaL1++NH1+d3e37cbSOggEIPD7928j7osQbIv+1glglzfkr1+/zj98+JB//fqVBx8B/GyNItSH56pbHojJwzGivRGo1NdCfsrvcQrLJWib5xpnlAsBCEAAAhAYS0DPTckKWXKRqReYiFhjuz/d9BKJpU/D5ckmGwQg4Cbw5cuX6jfS+sHfpXB1q/0i9P37988Nkr1REtA+DW2cnGNkCruWL5+vXr3KP336ZISHHz9+EBEcGvqGy5PfFfEZ+SfLYMhDONu3RNCSh3SxbmprrPZhFwQgAAEI7I+AnpuSFbLkolIaIU9M2fZFQG7Qpe9lYX82CECgTkCmrdg3SzqlRW6kUprSUm9VuL/0xlJuKuX8oSdDifZkWno4znOXpP0Wsp6fP39WD0qkfBE4JaqRDQIhCcjvsESDystsxM/koawsoRDjNsc4i7Gd2AQBCEAAAukQ0HNTskKW3qgRjZWO04WyVJ5eigPLWllsEIBAnYBOIZTIRaIW62xcf4l4oVOW5cYSsc9FKb59ehETyjK5ltAob5l6ioAViizldBGQ3xo7+k+Wy4htCz3OYmsf9kAAAhCAQHoE9NyUrJCl08u42EzP+UJYrDccIcqiDAhshYBGK8rvI7+Nw3tVorRUACTKdzi3NVPqRUwIG0TM1HOK9D/TTENQpYyhBPR3W3xaIrVi2kKOs5jahS0QgAAEIJAuAT03JStkaQPS7QIs9yFA//vQI+8WCUikot6MxzpNJWbuIvwpPyJ9Y+6pwrZQ5wDpd30whogZf79v1UIRsMSn5TdIhNVYtlDjLJb2YAcEIAABCKRPQM9NCFnp9+UuW6AOvMvG02gIOAjoU33WjnPAGbhL1s2S3xZ5oyFb3ARCnQNkvEhZEpFHJFbcfb516+R3R3xRXi4QyxZqnMXSHuyAAAQgAIH0Cei5CSErZF+ej/nhcMzPIcucs6yA9l5O2aJtVweeEw9lQyAlArrWighabNMIyIL48tsiaySxxU0gxDlAFveXciQKRt5WyAaBNQmIkKoLwMeyvmGIcbYmU+qGAAQgAIHtEdBzE0LWkL69nPNjJkLNofyX5cfTOb808/YKQ+f8WOXXcm59+ohiRX3HPlWtx97z8ZAfslO7jXmeu0Qr174mnpB/a1+ELJOyIJAyAXmKL+MipmkpqfGUxZeFoUw1Y4ubQIhzgEZjydsJ2SAQAwERsMS3Y3mZTYhxFgNXbIAABCAAge0Q0HMTQtatPjVijwhXl6uoY4Qth9DTIwx1VVMIQIc8O7Vksa4sA/cjZA0ERTIIbIKA/qgzPcqvO3WdLL9SyD03AfX3qfXIONG+JhprKkXyzUFARCzx7xgeSviOszn4UCYEIAABCOybgJ6bELJ6/aAQg9wik+PYGCHrcs5PR4nyyvLT+ZRnh0OeHR1RXr329R1EyOqjwzEIbI2A/qhvrV1LtweOSxOfVp9vP8kLEaQMWRuLDQIxEdC1su7v71c3y3ecrd4ADIAABCAAgc0R0HMTQlZf194Qpkw0lT397kb6/HLJL+dTOU0xawhXl/xshK1DnmXH/HS+SHKPDSHLAx5ZIZAcAf1RT87wyAyGY2Qd0mGObz+pWCAL/LNBICYCEokl/h3DWn2+4ywmrtgCgVgJyLIGskan/BMBW/7J1Hd50KIRmjoW+by1LM/+jsvaiuIrd3d3lf98//7d+NNWI86tcVB0eOjBrRWELlfLm7t8qefWuk+t4z1CVpE2u4pU2pDW51XskiitQ+8iV63M1x2XMsqrb8pij72skXVFyTcIpEBgid/EFDj42ghHX4LL5PftJ7ngkzLkYi/KzZyfs7zvFB6l3Ska1XMttEZz5MZDfDOGdbJ8x9ka/KgTAikQkHH+9etXI1jpOONzfyLUEn0ua+jKQ7unp6cUhsYgGy1uCFmdxG5c3IyOyOqsaIYDxvb6Ol6FmNb8kXAvKG+ErEUXpx/HQB14XC5SQ2C7BBgTYfoWjmE4zl2Kbz+9fPnSiAWrXNiVSwuYh1V6ni0jsStuqQhZlyKa3G5LdnS/KKZqW2xfblzrrWGurt+2Rt12nb7jzC6L7xDYO4Hfv38bQUFfzqPjSz4lAtOOqHl8fDQRNauco/beUYm1X/xKovnkwVwzok/PJepr8oBEXnATwxqMPpi1PUwt7KXoWAerSu84FtHF0FWI6nmi22MvEVlVR/MFAkkQ0B/1JIyN2Eg4Rtw5lmm+/aQXdzKlY8nN/UBJHzBZD5ZSELLKyG/tC/vTvbbokqRH1NVzLTSilKBJ1T+DFjqhMO3TCVnJAgEIlAQk+ur9+/fm4YmOKRnj7969y+VNpUufh+iY/RCQF9uIKCr+J1MQ1f/kU6Yj/vr1K0kYVjuIyOrtwfMxzw4+by285KdML1InftrrcPUaqwd1fayy7q7piT0XbwhZypJPCKRBQH/U07A2XivhGG/f2Jb59pNvftuWod8rEUvXwbQyXkyU1ik/674EhKzigVnj+iiX5RGO5k3P2pToP3uuhdayfYx/yk2w3AzLum8S1aF5+Zx4za1RknyO9iWJdBVx5suXL7lEiex9k7H56dOn6g25MiZFUBBhgTdM79071mm/RGJJRNazZ8+q8S1jNrXxap3fELJuutLlXC7QridFuXBzvGEwkouh2pTH8ompU8vqsRch66ZXkAACURHQH/WojErQGDim0Wm+/eSbfzQljV4a+mAqeiHrxoOy0YBWzNBzLbSWVUP9U6aSNJ+ya14+9ZqdzzV8QSKO9voyDRGppO22WCCLt6cmFqz1+0e98xMQkVUELY3+lU/5O5XoQOs3DSErmLvEcDHkEK6Kp8COKYY99iJkBfMKCoLAIgT0R32RynwqifwGPRmOPn2wgby+/eSbfyzCInrJmjp4q4DOceJek+psveW4u662+CTRU5kdNS7RYlZZ3Wa2y+pKW1yDSNuvb2c2/DvrcqSzG1hVNCLdyW5nlmf2w8jqWuiSn09ZXq331WlfZcBsX4b4p9x0aDqJxJK1UWSdFCI9ZusWCr5BQPxPorEkwsP2zT35pEwjtCMjZfpW6usR3eh2DidMQMRVe7zKGlopTDfU3xfWyArpfNXF0I1CdaFX++JRQpizLJdFUp3XazeKNIf1ia8j/MopZvXYi5A1BDhpIBAPAf1RD2KR/pY0p1aUU6K86ui8QfcqNVjmoByDWUVBTQK+/eSbv2lP/9/DRZ+qHOc4kejwrugSSyQzeQ9561Kgub9rnB8cD74qw6wvZXk1Ucg6rF9VyDoe3bbX7SxZNX97Ds32+Kaz2mjacczd9lnptEELfN7yz4eHByMU7DnqZYFuoAoPAna0oIiue9hEsNIISREEon0r7h46gzaOIiDilQqwcl6Rc0zMm54jEbKG9JK52BtwMVNeDFVrXDjKVkHJTE1sPvUs3/4jnTN6oVS9IO2ZtiB1Z/bxHnuLJ7rui87CeayL5jzP9UK1r+0OHJN3qQNPLoCMENgYgaBjQn9PHDeTUk/9xnMkSPO7M+D3dGSxoZIH5RjKKMppEfDtJ9/8LYN6d+i6lb2J6gcd40TPy9nRXtqgiCIy7akGZlHfofq7KLoVqXU55Ucpy7oWuZyORiAZeg0i6U0EU5blx46ncMX1gVxPZPnJSmOiwcxDvOtbDjVtTRwzyzu438I8NN0hsx8SCjMr8sywbtp3jfYayqLegX5/9fmnRHzozfLXr1/9KiI3BGYkIBFa6svyfcubjEWdpiVRWKlM0dpyn9C2cQQkctJ+KUHMArT+riBkDenjUEJWeXPYuLZsWTBJFDLTA64Xg61CXTt6hCxX8r59k2zuK/DGMXXgG8k4DIHdEAg6Jjp+q1w3nqMBO27QR5cxY4agHGe0c+9F+/aTb/5x/EMIWW5xSu1oilTNv/O8yH9blCkinW6n05rlSdY5Px2z4obVMR2vuD5wi9f1a4ceG2vXK0PTlVFb9gM8y+zqaylkta/N+plX+Wf40uefMnVLjsvNMhsEYicgi52Lv8r0pa1u9jRfeenCnqZSbrVP99wuPcfIuJW13WIUZfUciZA1xFOHClm3yhpaztB0t+q7dbx2YXgrcf/x+sVof9oQR9WBQ5RFGRDYAoGgY6JDyBJO3mMdIWsL7rZIG2RahlxQuW4KfP3dN/84AD3CS1dBzXHSMyZNEc3zufnbip5slqf1SiT4SabVyRpSpRg1JSpcyqsELYnO0gpu/GbU7CqFo45IUBPRZaLHxqW7KcrVbLjaneelEGY3xj484/c+/9Qn5jI22CAQOwGZsiT+/OrVq9hNnWSfilgSjUWE5CSEZIqQgERQ6ssK5KGJ6zpsTbP1HImQNaQXQglLty5ES1u8bxSHtEnSmIu3+hTBoVmb6RazuaxYHbhpB39DYK8Ego6Jvt8qx02fif5wRj0UN5y1+0BH/qLPrlN5TFuc63HNvxhzUI57dcZA7f727Zu5AZJpVE1By7effPOPa+LAyCC70OY46RuTkq91Pq+LMK4xWpy33UsI3BR/bFsb35t19V4f1No5TqDSPmx/avSX4/enYav5s8VOE9UZ6t4lPrVNrrpevnxpxgULSLvosC82AnIDLCKP/NvaJsKVjFVpG+thba13ac/T01M1jT22aYZ6jkTIGuKnoYSsKpohy2+tkVW78Rti45Q0nRdv4wvrvVAdX9zNHOrANxOSAAI7IRB0TPTcNLvGevPG9YrccSNZu3HVlOUNoyMSw/4tNPU009gJtDiPz6AcPewga56rkKV9Ygtaum8qJ9/8Y+tV0WiwQNQaJ6XI0+HvrjFYjdVyPNfrLssza0dd8svlkptgJ2faca2t6i2zFX+ruFQvqxjT+kCtsKluZz198de4dM21wloldl4LxSlkqe/G9oS8xZUdECgJqM9uCYgIySJgSduIxNpSz9IWm4BEZsXo5/qbgpBl91bX9/LCzoJmfri6/r55ETbXWwu77O/a33nx1pWhe3/zwrU7ZZgjyj5MaZQCgfQJBB0TTiHruqh08zfOdRNdEC1uOGv33q0bdJ16JC+5sBaxbi3wXN542wtdS5qTNYcpQDcqRz7dkToxcNGFrsWWqZu2Y2r+8fkssTY75md7hXV5yGX8/ZRX3uwYJyrkdi323hyXuYpSZsqgikWl5XrsZK/0fn0rYqusVoMv+el4NIu3WyXkF1lAvmMB94NptxZ0/T2xhaaijc2F4y+5rM9nLyY/Lt0hbzNrLvbe4GPMjFvIUpJ8QiB2Asv/3s5L5Pfv39FGqszbckrfIwE78jCWSGD9TUHI2qNHbqDN6sAbaApNgEAQAkHHRI94LzeEzc1PyOqJrqiJ7T3pmgZ5/K0c+YxXyLL7ZmpXaxlT80/LdxWKtP76pyWmOIQsXbC9nqfsJ+fUXks8a41b65gV5Shi8ikb8uZkd361za5OI7KyzOVTVpsFat9vPuCdHgAAIABJREFUT010OxVvS7Rs17rrIlwXcytCrPY7Y/csQpZNg+8QmEpAx+bU/DHlk0jI169fm4CGGNcOiokVtmyHgK4FJw8SRchde9PfFISstXuC+icRUAeelJlMENgggaBjouNmsn6DeIUYQshS+9uf9RvOzNy4ltOzryYE+6b1ByuQgiYTaE4tlL6RN+jo4sHy99RtvX4uoouaok7WjNJyClnSWomEui7KLgug16ON6kQKEcla9N0+LNHh9gLvJtqxEG+6xrqdXRd3L8ZkIVJJO05nO0ZLIy5FsKrbnh1PeSNpUbyJTnO0sV6sWVz+aNlfsWimy4v19652yu+HlQghq9at/BEJga5x0DSvPF/b4nEzyai/O8fDqFJqidf7va2ZEeSPz58/GxHrxYsXUb7NLUgjKQQCDQIi4Ipwq9dhjcOL/6m/KQhZi6OnwhAE1IFDlEUZENgCgaBjonVhfJ0G5LrBXUzIMh0lthzLaIzmFCT/ngzK0d+cXZdgC1kqYCkQ337yza928HmbwNJLD9y2KP4Uff7Zdyz+lmHhIALlObg23b4UZA8HdxRjt5DVHz15fRtoaRlCVmcX/fnzp1ovKNji7qavrQd2UrvpA1cE6yGXqdjF1OqO4xqlOkO6TjAc2AUB2//lgeKam54HEbLW7AXqnkxAHXhyAWSEwMYIBB0TLSGrgFVcPDUuuMw1l1xQNS6uJUt5MVa7wDb77DKmTxmc4wY5KMeN+djSzREhqylgqQ2+/eSbX+3g8zaBOcbp7VrTTtHnn33Hkm1167yQbEsCGN43pdVxrON8PcgQF3ezz3E+H1SgO9FWfFanV8l5KdiGkBUMJQXNT0DHgERnrbnpbwpC1pq9QN2TCagDTy6AjBDYGIGgY6LzwrhccL2xHo9OX5InhTph53K+rmHTL2SJ3iVCWDO6qrnA8zk/SflagfUWWHuWkG+3BuXoawz5Own49pNv/k7DONAigJDVQnJzR59/9h27WXBPAv0dr/1e96QPesgpqBTnEHuR/6B19hVWnr9Wqbvz/FsYbPrJPgffSN/XzOJhk/1gSR9AIWQ1uc0WjdIpZDX6pWmQ9be5hhowcEOns0zg604I/P37t3rRwePj42qt1vNgskKWvgpSgLLtj4D2//5aTosh4CagP+ruoyP39l0Yl8fsN411LkJ9PJo3mNWur1w3LFqmhsRbn9epjKWIZh0zbbYv6Ec205U8KEdXBewLQsC3n3zzB2nETgpByBrf0X3+2XdsfE2aw5p+Fvg3VWvo/XSdFxYQk8Q3M1d7F6i7k0ff+Vcf4Ng2t86fTRHK6tvm+dP83RBMiMhydo1EYcnYCxqNJTWZ/nP1QWOf06piZ2iBamh5PSZxaMMEvnz5YsbCq1evVmulngeTFbIEnjQi2Bzl1bqCiscSEPFS+v7Zs2djs5IeApsloD/qQRo45EL60FhA+nLKj9ZbyWQh50teiE83hSwxumthWzsC66xrYxURXH2LXE/lEJTjVCPId5OAbz/55r9pIAkg4EGgzz/7jk2usvzNz8zi+cNvoCfX18zoErKaaWb429yw26LQDHWML9IxfbAqxHHsxvnavCBi0JtIy0oQsira+kVfMCIP0SUyK+iGkBUUJ4XNT0AWfpe3F8q5aK2oLD0PJitkffjwwQC8v7+fv8eoISoCIl6KA8vrb9kgAIGCgP6ow8OPABz9+C2V27effPMv1U7q2SeBPv/sOzaVlhF0ZJ3DUhSpR9xOLXVEPoSsOiwVFk/X6foiSJ3NG0sbEVcIWXV2M/wl95oy7uTeM/iGkBUcKQXOT0Cjsu7u7uavzFGDngeTFbL0bUYSlRNcHXcAY1c8BETAEgf+9OlTPEZhCQRWJqA/6iubkXz1cEyjC337yTd/GpSwMlUCff7Zd2xae8tp2yZ0VqehNcSSsuDrNFEVVco3p2XHvLlW4Zi0zrWaXDf4xo7yzbVVBHCW19/uJwG+xzyrjh/yQ9M+I5yVtlvT7aro4b66j1n51twiv0Qfn63IYWNiFdVUvPE30zqadvR1WFeUcjMPQlaTSPC/X758ae47fvz4Ebzs7qmFbf9svWGytGboVMDQ6cLDoMRUCOjsKIlSlAitpTc9DyYrZAkwWTFfGiKfrJW1tAutU5++LUFCGunzdfqAWuMkoD/qcVqXjlVwTKOvfPvJN38alLAyVQJ9/tl3bFJ7S1GnEnGaf1uFqjh1NC/oaN9oV2XoWk6HYz4k7XAhS4W2Zt3WdMhS2FFO108rzSQh61ybPn8tV2xpCH+lkOVuu2WHxXby14FCVt3eJr9DXkXhlbafJxvUzqh1t4/Ev+f379/mXlMCJ2a5YXeJph3+iZAVv7/syULVYR4eHhZvtv6mJC1kSSSW/LBIY0TYEJCIG4v70iIVynRCjcSS/mZttEWwU0lCBPRHPSGTozQVjlF2S8so337yzd8yiB0QCEigzz/7jo03QYUhW4hxv51Wyi6ELBFBsvxkhSGZCCiJOrLWmxqTdqiQVZWZ2VFQRYRWFREm6zW23nB7NPcK15eHFKQ618hyiAvF9MtDXl+bsYi4Mn1iq3iVEGFzkii2QkBq2jG+32bMgZBVg/v582fjO+/fv6/tD/aHw9ec46GnwtCRVkPL6zGJQzsgMPvY6GGo58GkhSxp39PTU03gsBpmfnj42/HURUOcE/hUoVL7UQRLRKyekc2h3RLQMbJbAIEaDsdAIGcuxreffPMHa14ZTaH2VJ8yBckSCoLVF1NBY98MNzZ9TG0daYv6gStb3zFX+t59pf81hZVCcGlHDhVCUnu/1FEcuwpiY9I6b9xbN/il6GaJZb1tqx0s8jrb6SqvVbc9/bJWsPmj4HVte9GexgtRipTmTb5V9FO7qNqeotxh1/G2jlYrZOwfCFk1YrNHnbR8Lc+d46FmVf2PocJT6HR1K/hrbwRmj1bsAarnweSFLG2jLMQnPzYyV9NqHN8TEKuG9JdEY8kii0TcqcfzCYE6AR1H9b38NZYAHMcSWye9bz/55g/W6lJIUHuan8FuToMZHLCgDmFKBJDMJS50pA9oUTRFqR+4DOo75krft68QShzClEYUNRywKVbVyjZ5rmWNSeu8cW/d4BdiUlOMqtmgf1yKKK3jUdbKyqp7gWZe036XrzXrLsdpA4fWVgoPTSHryuKasBTjOgu6phz87ZZtgwuaL2FIn53PynbJMvNHbJ91HaCmr4kZjbHUtqy+J7RANbS8uhX8tUcCs64f1wNUf1M2I2T1tJVDEIAABDZPQH/UN9/QmRsIx5kBByret5988wdqhoSxmIWjm/e1rqlaweqMvKBOcSFyu0Oa1+effcfG2VBGGfU+8LTEGUfUVa2+xs33XEJWc6zUbKhsdEcxLStk1dkVdq4pZJV19/a3cnPZ3iQ9/O9wPju8zhApZXF3sV0CJWbbELJmQ0vB8xOQF6/JGJG3GC656W8KQtaS1KkLAhCAwEwE9Ed9puJ3Uywc0+hq337yzR+MUoeQJeX3CgHBDIivIISsvIogcvVOMN/VqKsbwoYtHBU+6Yo0kiASEUGuAsiYtM4IlNYNfv/0voJVmcasoXXJL5dLbl4oWI6zyUJW3l93y2cN2yuLaz+OE7IKpiou9X/a/XStz/5W1N1kYKcw3zttb6UcvCOYzw6uMUzCb9++mbE42/pYYmbLz4nICtN7lLIEARGwZHyLoLXkpr8pCFlLUqcuCEAAAjMR0B/1mYrfTbFwTKOrffvJN38wSj1ClvPmPpcFo69TpQ6da2kVU6uyTG9+szw7nYub+sr4oqzMEjKyo72IdpUwzy/n/NSo93wpbu5rN8bVTXCxCHZVtthpFAW7TIlGs0SRDmGlukF33fCZ4ga2Y4xtlplrfO3zz75jw23V6ByLfzNz6ZvOBdyzY35dws294HkhZMkC8LfTOn3d0d8q7LQXXC/9q7S55pPip+U4qO03ekEpvt3yzSpt92LvtbIrX2tBzU9iS+XUzeP1v1sCWf3wyL8QskYCy2XZGhlv8jnb5vBz53joMcD4yQCfCp2uxyQO7YTA4+Pj/GKvg6WeBxGyHHDYBQEIQCA1AvIiBPlh//XrV2qmR2OvvFpb11mMxigMcRLQixjnwQE7ffMPqGJYkvLG23UP0o7IUvFBxanrZz1/VzpbtLje3CuL62czkqSMRrEEr2vaQ+66gT+Wb2ez07VeHd+8gZskZI1oRykuDLJtWO/Nlkq5uSroO+ZK79xX+t0tQaUQjq5+o1FWV4H06oN2NJbUOSat88a96R+mIV39rTa6fV9EXBGQar5a2XhtQzWOuuruGAO22FeYKW9JbI4jQwUhywBK4z9Zm1fG29evX9MwGCshsDCBnz9/mjEy6/RbR5v0PIiQ5YDDLghAAAKpEXj79q05mUgoPNs0AiICysnx1atX0wog12IE9CJmaoW++afW28pXCgrVDbRJcI1wsW+8NcKlFlml0SbWgtWaTm6u61Ez16ioQqDoji6xBY4qrR3RpfUeGuJAJUZl1lsXJWKqEAvs9jin1Gjki9WeiplDXKjKPdrRZld+djsKsUTsGGBbVek6X/r8s+/YUGtVZGpFyTULKP1TORb5RKC51CL0XJF8Y9IOF7LEwGYEXpYf7YZI9KC9wLvxja5opHo7qnHo8LUCTT29+FI9OqwESERWzZNC+GytwIX+uLu7M9cEvC19IeBUkxwBfXOhLPq+5Ka/KQhZS1KnLghAAAIzEdAQeHmCyDaNgDx1lZPju3fvphVArsUI6EXM1Ap980+tt5VPhQJHpIfcIF83xzQ+PVi7aS4jUlxCkKYfst5PFU3SszZQaXtNnCqFrJrppl5HOR1igRGnXPa30jvKrNrYXrNJhaxBtlnlrPG1zz/7js1t61Wcul3TmLS3S9tnChVqtc97P11jpobNHa3mLtMVTVYrbNQfWseoTBEklodaYjuR7hF0BiZES0DGyLNnzxa1T39TELIWxU5lEIAABOYhIE8M5YddpsY9PT3NU8mGS5Vphfoa4aXfvrJhrLM1TS9iplbgm39qva18HUJWTRwymUrRxiF4FW3RqVVFunZ+q+ayzragU6axhbHetI66TF61xapTIniaawO1hKki/WAhq9c2XTDZuiEfY5tt+grf+/yz79jcpo4Rp8akndtuyl+XwJo+69NyuTkX2//8+eNTDHkhsGkCOk6WbKT+piBkLUmduiAAAQjMSECnF75+/XrGWrZZtL5CWMQsEbXY4iagFzFTrfTNP7XeVr6WGHOdFlcXo8YJWZ0ilRjQqrNhlbeQZYlHVdGxCFkDbavsXudLn3/2HZvb2jHi1Ji0c9tN+esSWNNnfVqeqt0+bSYvBMYSWGOcaJ0IWWN7i/QQgAAEIiUgTw110XeZHvf3799ILY3HLBGtVMSSE6MsXMkWPwG9iJlqqW/+qfW28nWISsWUIjuyyRH91CpMdpSCV6+S1Z+mHhHVU29pe01ws0Wwmn0zCFk32lpvhyNCq7LPYVt1bJ0vff7Zd2xua8eIU2PSzm035a9LYE2f9Wl5qnb7tJm8EBhLYI1xonUiZI3tLdJDAAIQiJjAjx8/zFx1+ZEXUUsWf2d9h3aHyfTLh4eHajqh8GJKYZtTrHv0Imaqfb75p9bbytchZFWClLXujYpbx+sK7mbh68v5mNv7inSuhdyHL/Z+FadKkccs6n5dUP1yPuVZOc3xmnakWGTabot1BZ3C/qO1UH1JzZG+u62ZmRI02bZWRy27o88/+44tayW1QWAYgVR9NlW7h/UKqSAQhsAa40TrRMgK04eUAgEIQCAaAvIWEZleaP3Q891aW0jWEbPZyHRCIrGicd9Bhmj/DUrsSOSb31HktF2dQtZ1CqC+MU6nBKrt9mdNsJFIJVmPyvL54rstGpVRWa00h1zednixW1Pa2Covy4yYVas7QERWEclztb8KLnMIWZXgN6QdY2yz27/Cd2XtqrrvmCs9+yCwNoFUfTZVu9fub+rfF4E1xonWiZC1L1+jtRCAwI4IyFv4ZN0sXcTc+uF33ORebxz3kO7Fixe5vFpborBYEyu9QaE+OtVy3/xT623l6xOyjJZVRBZdxRwRqYp9RRuyXN5ueKkpT1LLJT8fC6FJ0x1PzUSX/HR0lNUyshDVbHHM1FlO7QstZInttl3XtksUmC3GqaH19IdDyUQP6ydClpLgEwKLEojm93Zkq1O1e2QzSQ4BLwJrjBOtEyHLq+vIDAEIQAACcxDQk9QcZVNm+gR8/cM3f/oEA7TACEOHvBKaAhRJEQWBPv/UN0RJ5C0bBFIgoFHQKdhq29g3Du10fIfAngmsMU60ToSsPXsebYcABCAQKQE9SUVqHmatTMDXP3zzr9z8Rau/nI758XRdH0sqv66R5XoL4KLmbbKyPv+USFI5Lmv8sUEgdgIiuIq/ypqdqW194zC1tmAvBOYisMY40ToRsubqVcqFAAQgAIHJBPQkNbkAMm6agK9/+ObfNNxG45prVik7+axNK2zk48/pBJSxq4T7+3sjDHz48MF1mH0QiIqACK7izyLAprb1jcPU2oK9EJiLwBrjROtEyJqrVykXAhCAAAQmE9CT1OQCyLhpAr7+4Zt/03BbjWuut3XIs+yYn2pvT2xlYocHgT7/lBdTyHGZrsUbaT0gk3V2An/+/DGRWOKvnz9/nr2+0BX0jcPQdVEeBFIlsMY40ToRslL1GuyGAAQgsGECepLacBNpmgcBX//wze9hOlkhcJPALf+UaCxJIy/yeHp6ulkeCSCwNIG/f/9Wb0+Wtyin+FKVW+NwaabUB4EYCawxTrROhKwYPQKbIAABCOycgJ6kdo6B5ncQ8PUP3/wdZrEbAkEI3PJPEQX0bbQSmSXRLiz+HgQ9hXgSEAFLphPKmljix/JyglR989Y49ERFdghsgsAa40TrRMjahAvRCAhAAALbIqAnqW21itaEIuDrH775Q7WDciDgIjDEP0UwePfunRELNL2+HU7/5vNQ4wOPeXnoGzWVs0RipRwxqO1wjVH2QQACBYE1xonWiZCFF0IAAhCAQHQE9CQVnWEYFAUBX//wzR8FBIzYLIEx/vnt27f8zZs3VQSM5uVzXtEGvm6+IqaKP3769CnJ6YT2j4r2sb2P7xCAQJ3AGuNE60TIqvcFf0EAAhCAQAQE9CQVgSmYECEBX//wzR8hktEmnY+H/HA8t/NdzvnpmOXZwbpRdS3ufnEsAn885Re7xMupXo6W6SrvfMwPh2PusMgucRffY/HPWOzYRafTyOgI4P/RdQkGRUhgjXGidSJkRegQmAQBCEBg7wT0JLV3DrTfTcDXP3zzu61KZ+/llOWHrCE65Xlu9qvY1Pq0RKYugepwyLOTJWX1pJM+aOponeJaOmiDWBqLf8ZiRxCoFAKBkQRC+v/379/z+/v7/O7ujujJ1rnFemjCsVmnQ9sRk7KWnUxR991CjpOhtmidCFlDiZEOAhCAAAQWI6AnqcUqpKKkCPj6h2/+pGA1jS3FpaaIVIlYZbSUJUflFxOldaqipYzgdMjy4+liRWBd8sv5aPZVVXbVdT4WkVotMe2cHx0CV1XeTr7E4p+x2LGTbqeZkREI4f9//vyp3t6o5fGJcBWLD7x48SL/+fOn18jTtngVMjKz1omQNRIcySEAAQhAYH4CepKavyZqSJGAr3/45k+RmdpsRKimgKSRU839mqn2eclPWce0xFo6E+JlBKumaCbJCuHMivIq8zrta5a78b9j8c9Y7Nh4d9O8SAn4+v/j46N5a6OUIwvhy7phEgWT8gL4kXYVZg0kIG8Q1ehAffOt+Ke8+Xbq5jtOptSrdSJkTaFHHghAAAIQmJWAnqRmrYTCkyXg6x+++ZMFl7sjnooIq7ao5G5nGCErN2tiZbk9E9HUZ0Q1x363MZvcG4t/xmLHJjuZRkVPwMf/RTDQtzjK4vcSmcUGgZgI/Pv3L//48WM1lVEErimbzziZUp/k0ToRsqYSJB8EIAABCMxGQE9Ss1VAwUkT8PUP3/zJwnMuqD5CmNKGm3JkPayzNbVQD1qfHVMLJUVXRFbeIbZZpW7+ayz+GYsdm+9wGhglAR//f/36tbnZFhGLDQIxE5BoLPH158+fTxJcfcbJVC5aJ0LWVILkgwAEIACB2QjoSWq2Cig4aQK+/uGbP1V4RjxqTR90R2ndauPlpOtcZfnxbK+oZeV0ClmX/CyLzTcXhq+yFcJabdH46tg+vsTin7HYsY9ep5WxEZjq/zJ9UPJKRBaRWLH1Kva4CKjwKtNfx25Tx8nYeuz0WidClk2F7xCAAAQgEAUBPUlFYQxGREfA1z9880cHZKBBZgpha8GqaUKWqdIsAl+IUgdZJL6pZ+naW443UWUtO66NcNt5Pb71b7H4Zyx2bL2/aV+cBKb6v07XkrcUskEgBQKynpv4u7xVc+w2dZyMrcdOr3UiZNlU+A4BCEAAAlEQ0JNUFMZgRHQEfP3DN390QAYa5BaICiHLKwKqErQkOssypkPIulWX206r3I1/jcU/Y7Fj491N8yIlMNX/ZTqh5BVxgA0CKRCQNd3EZ2V64dht6jgZW4+dXutEyLKp8B0CEIAABKIgoCepKIzBiOgI+PqHb/7ogAw0yC0QlWtktaYcDizUSmbKt8tpTS28Na2wKMxtp1XRxr/G4p+x2LHx7qZ5kRKY6v+6yDvTCiPtWMxyEpjq71PzOY0YuFPrRMgaCIxkEIAABCCwHAE9SS1XIzWlRMDXP3zzp8TKttW9RpYuvC6LtzfnBtq5b39vLeDeErKKMoxQdeh6MyFrZMXin7HYcdvzSAGB8ASm+v/UfOFbQIkQGE5gqt9OzTfcsnZKrRMhq82GPRCAAAQgsDIBPUmtbAbVR0rA1z9880eK5bZZzrcWSrYyKkvWssqO+flSF7Qul3N+zE55MWvwkp+Ox/x0vtTeWHi5nPKjyX+67u8QsvTNhAc7equy3mPNrqqMtL/E4p+x2JF2b2J9qgSm+v/UfKlywu5tEJjqt1Pz+VDTOhGyfCiSFwIQgAAEZiGgJ6lZCqfQ5An4+odv/nQB9olEIlYdzDoZyqf+ebwKWT3pXGtk1fYpPF0/q3nQ7O+K1tLM2/5U7mu3MhY71uZA/fskMNX/p+bbJ2VaHQuBqX47NZ9Pu7VOhCwfiuSFAAQgAIFZCOhJapbCKTR5Ar7+8eLFCyPYyAKne9v615+65JfzMc8aQlXWjNIqF3fPrLcRShqJ0qptnRFZRapiKuKhtkB81/THWrkb/0PX2Fm7mb7jbG37qR8CPgSm+v/UfD62khcCvgSm+u3UfD72ap0IWT4UyQsBCEAAArMQ0JPULIVTaPIEfP1D3yr148eP5FmMboCZXhhrxFNfxNjoliaZ4d+/f5PfHhW6wb7jLLQ9lAeBJQlM9f+p+ZZs27i6bvwu33hgMa6uGVPXptbfaNMIM7by8GWq307NNwJxK6nWiZDVQsMOCEAAAhBYm4CepNa2g/rjJODrH+/fvzdiwbdv3+Js4MxW9UdlzVx5T/FbuSHoaeLNQ09PT8Y3X716dTPt3Al8x9nc9lE+BOYkMNX/p+absy1+Zd8QfQYJWUUZyqb/U6ex+1ndyj1SyGpGJ2fHU94MOpY6tnLe0j5pcbuxY2q+G8X2HtY6kxay/v79mz88POTv3r3L5enq8+fPzcnfahx/W2H/cKmv/SGh++I3d3d3+devX3Nek9v7mzH6IOOz7m9bGH9LjhnlNdrxyLALAr7+8fnzZ3N9IILWPrcbNyZrQKndZKxhQBx1xuSbvuMsDqJYAYFpBKb6/9R806ycI9cw0al6y+0IIau5JGLL+knngVv2lsJYrez+c6ARp+TNupVypS9EaYtsCFnF/U6rL2fcoWMsWSFLnqLqGgJWYxCuEK68fODTp0+5hPWz+RFgfG5PxOr6nZ1rzGh9fp5I7q0S8PUPWRtLypDrCH7zt+olabZLp73Kg9q1N99xtrb91A8BHwJT/X9qPh9b583bL/rkqwtZdutLwcmlmA0Vsjrb4y4bIQshy/bA3u8SNSMRNPojISd8iaaRdS72uGhrLywO9hIQXxK/0ag+9amXL1/mP3/+7M3LQTcBxqeby1b2LjlmdDxuhR3tCEsghH/Ib72U8/j4GNY4SoPARAK/fv0yPvnff/9NElglEloeJH348CF//fp1da2s44XP/TxkWrOv5bdVZst8+fIl6XszZTh2OE/NN7aexdKXwk4VgdWsuFP4sRPeEMM0aU1s0p1jPt1ikymhVna3PX3CVBGpVY/K6ks/xvK1007126n5fNqrdSYVkSVClUZhyTTC79+/+zAgLwRqBES80hsbGSDc3NTw3PyD8XkT0eYSzDlm9CS1OWg0KAiBEP4hN/xSjqxFRFRWkG6hEE8C+qD248ePo0uSa2KW2ECo0t/GWD5FlJXpsiluynCs7VPzja1nqfSFeHPID9kpb7yXtjChFLK03YdDXegpEnULR7V21MSm2pGBf/gLWb1rSJq21l+WgpBFRNYg59Rw67dv3+by1IkNAqEJyM2MXEDKj7FcEOJnwwkzPoez2lLKucaMXhBtiRVtCUcglH+IiCVlyRRZNgisSUAenokvygNbiX4ds+l1i+SXSKz7+3sTcY5AO4YiaUMRkNkOEo0lUVn6Wy1+mZo/qu1juUzNN7aeRdJX0VaFQOSMyqrS9FlUCFnKpv/TJYT1lW0fawhZRhizBW4tu0tY62mnVNMS7cqyu0Q+27TIv2ufjDVzar6x9djptc5kIrJk+qAYjbhgdyPf5yKgosx+FwIeR5bxOY7XFlOHHjN6ktoiK9rkTyCUf8gNl5YVw5pE/mQoIUUCdkSznE/HbOK34sMpR76MaS9p0yJgRwpOiTRcs7V6bhhrw9R8Y+uZPX0p2lzFq0L8uf5dWjBIyJrd2qKCSmhSwcqqtxbt5SNkEZFlUa2uoex9c3/XMZaEkCVrVkTfAAAgAElEQVRPpuQELUYznXBu16B8ISAXlepzsmYFWzcBxmc3mz0dCT1m9CS1J4a0dTiBkP4hkQNSnvzmM6V8eB+QMgwB+e3UZQ1kxsGYTc6/Op1wrAA2ph7SQsCHgP3AQL6nsk09z0zNFw+XS34+Zua82BatSjHreMqvL/Q75dnhkLvWV1+6TWaa3/GUnzKHPYOErDxnauG4XlvD37XOJIQsXcdC1g5gg8BSBDRUXxZNZesmwPjsZrO3IyHHjJ6k9saQ9g4jENo/JPpWyxRhiw0CSxCQm3pd+3XKWm0qwkpELBsEYiYg07flN1amG6ay6TlhrL1T842tZ7b0EtWUHfNTpVQ1a7rkp2OWVyJXNBFZxbRAEdQKQetcN3ygkNW35pXrmGtfveI0/prqt1Pz+VDROpMQsuQJlRgsN8xsEFiKgL49SJ6UsnUTmG98doX9Xm0JevKoneCudYz+5n1CvzE/XwwKZauZ7p91L+A5svEhx4yepEaaQPKdEJjDP2RdIS1XRAUiwHfiTCs08+npqfYG7qlrv6oAi/i6QidS5SgCen0gv62pbHo+GGvv1Hxj64kmfed1b7le1cFeo2rk9xFrT9XvCeQeoj4FsH7t3HOP0dmeMhrtVF/yvl5vNL0y2pCpfjs132gDrQxaZxJCli7GKid+NggsSUAGikw3YesmMN/47DnJlOYMP3ncLqt+gqu319TTcyKuhVN3ngDrZXb/la6QJW0KNWb0JNXNiSN7JjCXf8jUQp2qJXXI75sIXDL9iw0CPgTk5TEy/U/fTCj+JdFYPiKUTkmUN8iyQSBmArLQu1xPp3RNPfU8MzVftP13ueTn0zHPsqYIlZnIrfOlLuwMb8eAa/OhhZlr77pw1bpHqD0E7q+7uO7PrlFpl7OZruh6c2OrnqE2R5Zuqt9OzefTfK0zCSFLw655g5xPl5N3CgH1vSl595JHGQUfnwMEoeEnj/4Tlumr2gluYO+ZPPUTp77RpCZuDSyuSOYnZBUn3+bFhvV34+nWcIbDGqH+MCx1dyo9SXWn4MieCczpH3LDJa+LV1/WuuRT9rn222n4bv3e9DwA2AMnuWl/8eJFFelnt1mWLRj7dsLmmNfyUnsbXLMd/L0PAuqvqbR2qr1T80XJpbwWz8yaWA3BSgWuwyHPJl30Drg2HwLlUpRTTXWs8pQRYWpb7Tr/dt2Xc128kzY2CJiaQl9HV+Yv/GWq307N59M8rTMJIUuN9WkweSEwhQC+d5vabIz05NkI4bUtGn7yuH3C6ovIsuu0v5sFIQ+NN6MMEODsMlT4Uo6dn7YAVTsZ10rr/cPYa5cTeGqhVK729xoy4GCocgZURZIECSzlHxKhJYKDRp5qvXwiVo31ARG0ZH0gWSYj1IMftSHBIYzJOySQmr9OtXdqvvhcoiEEdRk45LrXpGk8+M0HXJt31WnvN4LTySkymWtsve6tXTsHqnuG62i7aUt+n+q3U/P5tE3rRMjyoUjezRPQgbL5hno0cC5GVWSRnoAcNq4rZBUnwdYToCEndEdbrrv8IrKu5bS/IWS1mbAnTQJz/e6kSQOr90qAcbDXnk+z3an561R7p+aLr1eHij0DrlvnFLKGgkPI6iU11W+n5us15sZBrRMh6wYoDu+bgA6UfVPob/08jEqR6Fi80rclFpUmDRaySnGpqxxTXO0E199mOeqMxpIDCFkmKus2wf4U8/hVf50cTYcA/pFOX2HpfAQYB/OxjaZkpwAQjXWjDEnNX6faOzXfKJiLJJ47ImuRRlwrqV3nDxXprtm7vg2+F+kqIJL9U/12aj6fZmudCFk+FMm7eQI6UDbfUI8GzsGoiMYqp+yZE88h1ynutqmDTx5lGQdXIVpg7QSnO92fhX1um1TIUi6H5tRDd5HW3gEXDiNstQouxLdGhNtghnZBPd+13T1JBh0KVc6gykiUHAH8I7kuw+AZCDAOZoAaosiQ4lPIskK0zaOM1Px1qr1T83mgnS9r+XDWe42sGPy4du2MkNV0mql+OzVfs/4xf2udCFljqJF2dwR0oOyu4SMaHJqRLK54aLwy1yy4KItJnuoLLQ4VYYroKVnTpbGeld3O2gnOPlD/riJWZ3RXedLv08zqJTb+KvPXbK322evSuNui9mm/tD4RshrA+TNFAurXKdqOzRAIRYBxEIpk4HIm3bSXD7HGvCChcT4P3IrgxaXmr1PtnZovOPBgBfa8tdC1CLyrXud1rH1NW//eeY3tKnvSPoSsJrapfjs1X7P+MX9rnQhZY6iRdncEdKDsruEjGhySUSHCZM7oq1zeSpKJmHV9Z8gwIaucpng65cdDRxSVtPemkHXJT8fMiGzH89WGFqryZD1VyLqKbvW21urpsbVg6Ba5amWUfwxj6Mrp3hfKH0KV47aSvakTwD9S70HsD0EgqXHgEnfMuax+A6ttkghq+3xY7W8KPTOkG9w3ffY37bT+HnN9UDHoeGPaYFsjSKh9GIEpg0yYau/UfIOMIhEEZiIw1W+n5vNphtaJkOVDkbybJ6ADZfMN9WhgMEbnU55lx7xPI2qaOUSEsYWd3vSd4lD5JEouQrNjbuloTXOKvz2ErMJWEdsu5QV88w0vZZWdtsoSXSK2IWS5O4e9WyEQ7HdnK0Boxy4JJDUOtihkzel1l3N+ykTky/LTuXiQJ9cgY66R5jRvStlJ+avHW5hTa+eUviTP9ghM9dup+XwIap0IWT4Uybt5AjpQNt9QjwZGzaglKvW8WaVLHCovvo+NaY2dyFp1dqasHSimVNpRWDrNwHHh2mWrvgYYIavGlj+2RyDq353t4aZFkRJIahx0ClkdD2wczE100oBwptDpHKa0d4nwdMzyzIhPVpRZluXF+kLtLK49FxN9Lg+kDnlWi8K6PlSTh36n8yXviQ13Fb36vqT8FSFrdX/BgGUJTB2fU/P5tE7rRMjyoWjnrd286lSmAKeYnhtWu/oh33ujUYYUcCtNaFtH3IzfMm3qcR0oU/PvId8sjMrxpGX3fnatESEXgxJF1bzoLS+mm7tvTy0c2Ju134IheST6qrxobYV7qZiV5ceTddHaM9aIyBrCnDSpE9DfhNTbgf0Q8CGQ1Dgoz72105w5l6UvZBXnXTlPn/NL89L/cj3H9y1LUJRxMJHp/SLVJb+cT/lRBDLXNY6PQ82cNyl/Rcia2RsoPjYCU8fn1Hw+7dc6EbJ8KNp5azevQ4WsIl3rhtout+eG1U425LufkOVnq3k61iE4uG68XfuGtDF0Gh0oocvdUnlrMur0aRWxOnyuEK0aF88Dxtqgp7y134IBPS3pM1kXrHn1e817OR2LaZe6q8fWsWOnk6HWNfIzlD+EKmek+SRPhAD+kUhHYeasBJIaB1sVsoae83vO27M6SUSFx+yvv3//bpGaau/UfC0D2AGBBQlM9dup+XyapnUiZA2gaG5erUUaLXjXRalrJ7IlhCyN1LDClx02jl8YuwsIQlYXmb3v1/GwBocuEca85bBLxCoNbaUZcJE5i5A1BVyPrYWQ1f+7IH2mvw1dDKeYJXlC+UOocqa2g3xxE8A/4u4frFuGQFLjYKtCVs/5uOYFrvabBMOu57WvnZ83rndqdqz4h9q+ogmdVYtt79+/z21Ba6q9U/N1GscBCCxAYKrfTs3n0yStEyFrAEX3zWtD2FlcyGoaXpwI9ea0eVT+9rthbbTXVUHPydww7DjRFjfe9cWpXftcVc69TwfK3PWkXP4sjMrxpGX3fnb41WimPf6rZbl/C/Togp8DbB1qjd/vQrsW7av2kXF7QpUzrlZSp0IA/0ilp7BzTgJJjQOXkGPOZa4HL42I6RLi0HNw6HS9fVi7/u9JOfW87eLWU03Mh2L2V7VNPj9+/Jj/+fNn8oM5Levfv38xdwe2QaBG4L///jM+X9s54A/19wFJgyXROhGyBiB1nxAbwk7tRFYc6xOVimobZbhsGXziQ8hy4fPdpwPFt5wt55+F0RoXbgPGmvu3YIXeHWDrUKsQsoaSIl1MBGb53YmpgdgCgQEEkhoHrvO6OZclLmTpg+KD3xpZnd3t4taZOO4Dtr++e/cuf/PmzeR/kv/+/t7r3+PjY/7jxw/zT23TT72pl7/Hbq9evTKCwM+fP8dmJT0EViHw9+9f47Pi92M3HTNj8/mk1zoRsgZQdN+8NkSoKUJWmadX8Bp8w3pbPPO6YfW01TDsiJxxRV+59g3oquBJdKAEL3hDBc7CaI0LtwFjzf1bsEJnDrB1qFVevwuOSkL5Q6hyHCayawME8I8NdCJN8CaQ1DhwndfNucwdfeWCM/QcHDqdy5bWPn1rYWuZjzFvLSyu5bVf+z/rMxla9kS4Q9sjpr148aKKeNL9sX5++fJlFE2ZoihtGZtvVCUkhkBAAiLois++fv16dKk6bkdn9MigdSJkDYDoPiEGELLMCdzxVjXbpqE3rKXQ1HpDm1WW1w2r2mqJUYXY1HyS5j6xGoatk3szb/Nvd1lWk2b/qgNl9ooir0Ceeola79pmYaT+PNBnel+Y4DLatW/AWBvlx9ZYcVXntW+ArUPL9/pdcFQSyh9CleMwkV0bIIB/bKATaYI3gaTGwdaFLLs3XW21j/t+D3gN4GvKmPy2v2ok1NTPh4cHr2gsua69u7urIsLUNtdn1/VvV9tFwJJyJOKMDQIpEJDptOKzHz58GG2ujpnRGT0yaJ0IWQMg9glZFkjjAMUN9e3oKKn2elPcI9gMPVmZdCIEdZflc8N6tbXnyVmPrSZ/x419IYjV7XbtG9BVwZNo/wYvOLEChcOzZ8/MRUPzhA6jxDpzZnND+UOocmZuLsWvRAD/WAk81UZFIKlx4BJ3zHVjz3Vlg7b7eryRSK+vBzzhGlpeu4Ybe1xtvZFl1OGe6+1R5SycOGZ/Vdvk8/nz5yaaSveNxSQLxss1s+T//Pnz2Oykh8CiBGQKrPq6CMtjN807Np9Peq0TIWsARfeJzjciS8WuU348HK5vP2zaM+hkVb7x5Nhf1nQhS9uq9ZybVhZ/99iKkOVGlspe6wejJWjpsVTagp3zEgjlD6HKmbe1lL4WAfUPFtNdqweoNwYCOg5isOWmDS5xByGrga243tZ+7f+sPwBuFBTln9qeGI0T22S647dv3yrzfOyViDHJL2sO2WVWhfMFAhEQEBFLp/l++vRpkkU+42RShdYb0hGyBhCcQ8iyI456BaYecagy3boQ6Cur71hVluNLLZ+5EOkQ3npsTV3I8lmQcgt59UfK/tQILd3ncB127ZBAKH8IVc4Ou2AXTdYLL/tV6btoOI2EgEUgqd/JTQlZ5YPdgcsfaD/VPp2zFPTBsdXJG/qq7Y+xSS6xyddemaalZcg0Rol24eFLjL2/P5tEwBLhSv1TXlAw1Te1jCUpap0IWQOoBxeyWmJQzxsHe8ShwnSN7LqULekuqyZIDWi3SdKyNc9NOQdHKHiPrakLWdaAqQY9+4rphsphqEuRbtsEQvlDqHK2TXu/rZMHBOIjU8Lg90uNlm+NQFK/k5sSsubyJISsuchOKTfE+BKBTKcZanl8NtdE5u+lfMJ+G6fWKYLWVBFLxpWWM2WMTc2jdSJkDSAYVMi6lGHDzbn75Qm+uTvvEYfyvHwi1Hyq47pY0NcDN9P2tb8UsVwLyDvFrB5bUxeypi5GuZV81g+G+cHSaCx9XascZ4OAEFBf8aURqhxfO8gfJwF9K5TrKXqcFmMVBMIT4HcyPNN1SyzvEQZGevW+9XzdhjhrT81fQ9n79PSUyzlLH8BouXwiYK3lAxKB9fbt2/z79+/OsTpmp7ZhTB7ftFonQtYAkkaE6TipVMJTKfoUfzejpMpKVMTqEpOMENSIdOoUhzSsuWOOvKOsURFZKmJ12VoKY5l9vNNWe2H7rh+tejsKoay+b0BXBU+iAyV4wYkVqBxsAUuboMf079189vj7WAax+PtYu13pQ/lDqHJcNrIvfQIaEs9Cuun3JS2YToDfyensyLk8gdT8NTV7l+9RaoRAuAfYY1jq2ETIGkOtL+0AIetyPuY14cdRXitN182yiGLZMT/rjMIBZY0SsgbY2qqyy9ZWwts7Yrmx14Fy2+Jtp3AJWNribTIaEN7f4++pRiBqn/p8hvKHUOX4tIW88RL4+vWrif6TV0azQWCvBPid3GvPp9nu1Pw1NXvT9AqsTp3AGuNE60TICuU9A4SsSVX13CyPLW+UkDW2cEkf2tYDEVlTumGOPDKFsGvTH5Ou42nuR8ia2m+h/CFUOVPbQb64CTw+Phoh6927d3EbinUQmJEAv5MzwqXo4ARS89fU7A3eYRQIgQEE1hgnWidC1oAOGpQEIQsha5CjbC+R/phsq2UIWVP7M5Q/hCpnajvIFzeBX79+GSFL3l7IBoG9EuB3cq89n2a7U/PX1OxN0yuwOnUCa4wTrRMhK5T3IGQhZIXypcTK0R+TxMy+YS5C1g1AnYdD+UOocjoN5UDyBETEEj8RUYsNAnskwO/kHns93Tan5q+p2ZuuZ2B5ygTWGCdaJ0LWLJ5T3AQHeZtI6Ol69uLsodse2lamFobuoVnK0x+TWQpfq9BSmO4dwz3+zhpZ/m+x3KRfreXPG633w4cPRsi6v7/faAtpFgT6CfA72c+Ho3ERSM1fU7M3rt7Gmr0QWGOcaJ0IWXvxMto5iYAOlEmZd5Jpk4yMSHXID5bwW7yAoPnWTfc6bn1vOlVe7U93Wam5kbbL1+5Q5fjaQf54Cchro8VP5DXSbBDYIwF5EYuMgd+/f++x+bQ5MQL//fef8ddUzOY6JJWews41CawxTrROhKw1e566oyegAyV6Q1c0cIuMrkJUlp+63gxKRJbT60L5Q6hynEaycxME/v37l3Mjv4mupBETCdzd3Rlh4OHhYWIJZIPAMgREbJXz+vPnz5epMEAtXIcEgEgRmyewxjjROmcTslR173vb2dCeVWOHpicdBEIRwPduk9weI10f65KfskN+OJ7dEBCynFxC+YMKFM5K2AmBkoC8tVB87suXLzCBwO4IyLRa8X+ZZssGgZgJiNgqviriaypbqOuZVNqLnRCYQmCNcaJ1ziZk6SKsT09PU5jU8qixtZ38AYEFCOB7tyFvjZGZQqhTCmsvcWiwQMhqACn+DOUP+jDEWQk7IVAS0JsjmV4oEVpsENgTgZ8/fxpxQH4veenBnno+rbb++fPHRGLJ9cHnz5+TMT7U9UwyDcZQCEwgsMY40TpnE7LevHljTq4/fvyYgKSeRY2t7+UvCMxPAN+7zXhTjBzCVbE2lmOKIUKW0zlC+INE8ko58kCEDQJ9BES80gdnRGX1keLYVgnoSw9evnyZh3h4vFVOtGsdAnI+f/36tTmny2dKDxxCXM+sQ51aIbAcgTXGidY5m5D1/v1786P17ds3b5JqrHdBFACBkQTwvdvANsOoFLFcUwmdYhZCltM5QviD3IxJOXLRywaBWwQeHx+Nv8jaKyndJN1qF8chMISA+LyIWPKbKZFZEvHC4u9DyJFmTgIiYEnErPwui2/KcgGp+WWI65k5GVM2BGIgsMY40TpnE7I+ffpkfrhChJCqsTF0FjbsiwC+d7u/N8FIRSydUuhotohZmX38lpB1aL7h0P67/obCQiir73OYkMSuEP4gkbxSztu3b5NoM0auT0CmForPEJW1fl9gwfIERDTQ9eL0N1inZ+vffNrnYL7P6Q+6xqXWIQ+lUowWVPuXH9HUCIF0CKwxTrTO2YQsuZiUSj5+/OjdE2qsd0EUAIGRBPC928A2weh8rItUt5ud5z1C1pDsdhqELJtGnkskr/gVCxjXufBXNwE7KkvWY2GDwB4JyG+nLO2hUTB6fuYT4WppHxAhVXxRAhtSjZRVZnv8LaHNEBhKYI1xonXOJmTpAqzyhMh3U2N9yyE/BMYSwPduE9stI4Qsp3OE8AeJ5JVy5I1cbBAYSkDX5kQAHUqMdBAoCHz9+tX85jI9F4+AwJVAiOuZa2l8g8A2CawxTrTO2YQsfZOKhPv7bmqsbznkh8BYAvjebWK7ZYSQ5XSOEP6gixfLzRUbBIYSkLe26XQqfGcoNdLtnYBM5dZxE2Jd273zpP3bIRDiemY7NGgJBNwE1hgnWudsQpaEkeocad/F/dTYVENT3d3O3hQI6MVdCrauZeNuxydCltPlQowZPXekuKaGEwo7FyOg01LFD0O8NXkxw6kIAisQkOtznYYYYimQFZpAlRCYjYBe385WAQVDYAME1hgnWudsQpb0iy486bvgu75a21cQ24Cv0ISFCYS4KV/Y5MWr2+34RMhy+prvmNGF3sWv2CAwhYDckMtFTopvyZrSXvJAYAoBeTisL0mQabk8LJ5CkTxbJqA3y1tuI22DgC+BNcaJ1jmrkKXrZMkJ0mfTdS++f//uUwx5ITCKgCwYLANFnlaydRNgfHaz2duREGNG33grn2wQmErg7u7O/H6/fPkylze6sUEAAnUC8lZYucaRhwaMkTob/oKAENCbZWhAAALdBNYYJ1rnrEKWPN3Rp/M+bxGSBX/FYBZw7XYijoQnoIufyg0RWzcBxmc3m70dCTFmNMKPaWF7856w7ZUbcxGx5NpBok6I6A7Ll9LSJSDX5jpjQq7RZW05NghAoE1Ab5bbR9gDAQgogTXGidY5q5AlDdSnoj4LSMpJVgyWaQI+gpgC5xMCtwjIhZ7eBPn47q16tnCc8bmFXvRvQ4gxI2ti6W+9v0WUsHcCIl6pMCqRtfISGjYI7JmAjAmdTigiFjMd9uwNtP0WAb1ZvpWO4xDYM4E1xonWObuQpQuv+ka16NMj33L27Gi0fTgBjTKSCz65QWfrJ8D47Oezh6Mhxoyspygnp/fv3+8BGW1cgIBEZun0Z7lx58HEAtCpIkoCIuTqwu4i8BKJFWU3YVREBPRmOSKTMAUC0RFYY5xonbMLWXIRqdMLfU6aEomlJ2Beqx2dD2/KILnYU5/lCf6wrmV8DuO01VQhxowIxvobT5TAVj1lnXaJb8nSBHrhw9vZ1ukHal2PgFw363WNCLusibVeX1BzOgT0nJGOxVgKgeUJrDFOtM7ZhSzBqW8QkugWn00Xjxfj5Yk9J2IfmuR1EZCIEL3Y42bHRah7H+Ozm82Wj4QaM6HOE1tmTdv8COgabnINIREp8pvFBoEtE5C1Bl+/fl2JuCLoEmW+5R6nbSEJ6M1yyDIpCwJbI7DGONE6FxGy7Cftj4+PXv335csXs1aWNEDWzJKbKBZx9UK6+8wiiMp0E10TS3yLi71pbsH4nMYttVyhx4xE9KmATBRkat6Qlr1yY6/rZslvvTxgIwIwrT7E2tsEZAaErlErfi7Rrkyrvc2NFBCwCcjYkX9sEIBAN4E1xonWuYiQJU2XG1yp1DcqS8qSmx77BC3lyk2QTkuxGlc9hWJf8WMMhysHEULln81ExCxupLt/rIYcYXxefcz2rS18n2vMaDSWvA6eDQJLEJDoLPuaQaZbIWgtQZ465iQgApauWSnnHPnNlvULmcEwJ3XK3ioBvW7bavtoFwRCEFhjnGidiwlZdlSWiFohNonukhO2Psm3GlUTJ9i/3RvrUH0rNzFyY0PIfYiRWZTB+Nz2uAs1ZuTGS8exzzqK4TyXkvZCQH7vJarbfqAh32XpAvn94nywF09Iu50SZSgPA+xIQ7kuln3yYIkNAhCYRkCvTablJhcE9kFgjXGidS4mZElXyoWhVCxPQTm57sO5aSUEIACBPgIiiMl5QR5KsEFgDQISrSKClj29XHxSxADxS3n4JmKB/COyZY0eok4hIMKq+qFME5QlEOyoQr2+lv0suYHPQMCfgIwp+ccGAQh0E1hjnGidiwpZgkAXnZRPnnZ2OwVHIAABCGydgE4plCgYHm5svbfTaN/T05MRrmQZBOtCqfWd5Qy2HXHa1/dLHpPfxqZY1axfIrHkt5SI1jR+Y7AyHQI61tKxGEshsDyBNcaJ1rm4kCU3Kxr+LE+N2CAAAQhAYH8E7DfIsTbR/vo/hRbL9Yr4qawxJOtySvTgLYHLurhqiV8cQ/zy8QG5dhYflH+fPn0yUYQivLJBAALzENDxOk/plAqBbRBYY5xonYsLWdJlspi2rmsVar2sbbgCrYAABCCwfQIyPYZzwPb7mRZCAAIQgAAEUiWgN8sh7JcHdvpQ5FaUpdbLJw8/QvuAXHvrw5CHh4cgyyWojSHGydAytM5VhCwxUuCpETyNH9ptpIMABCCQNgFZu0UX1yYqN+2+xHoIQAACEIDAVgnofapP+ySyV5fV0fL4RKCKxQck0lcCjHw2bYtPGWPzap2rCVli8P/t3StwFEsbBuDIXx6JRCKPpKKQSCQSlUIi45BI4pBIJA4kEolEIJBI5JH71zvJt5nZ7G52ei/ZyzNV1N6mZ6af6Q2ZN9096RqdA8lFTf5CbyFAgACB4xVIiFVDyzNUy0KAAAECBAgQ2EeBulhuPbbc5Kz+cJfHXPemI4chwa2iyq0rkN/Dq3dg/wY3ueFN67Lu96Rlv7XPBw2ycuAvXrzowqx0dctcFBYCBAgQOD6B/LGifqHLPEPu/nZ851iNCBAgQIDAsQjUxXJLffq9zzOUyw1tWhSV2aZAbrpXN11KW28dIbfO96S1frXPBw+yUoEML6kDCqiFAAECBI5HIH+kqDmx8gudEOt4zq2aECBAgACBYxSoa9OWutVwwvzOYyGwzwLpjZW2nrnbWgLXdb4nrS61z70IslKJ/h2sXOi0nlblCBAgsF8C/b/2mBNrv86NoyFAgAABAgTmC9TF8vxPF79b80CnF3pLMLB4yz4hsB2BCl4z/HXs0vo9Gbuf/vq1z70JsnJw/aEnGbdp3qz+KfOcAAEChyOQbvWZB6v+s3GH2sM5d46UAAECBAicukD9/jLWof6Al7sUWggcgkDmc0t7b5m/tvV7so5L7XOvgqxUKBPg9ScfC+iPHz/WqauyBAgQIHVcy1gAABpbSURBVLAjgfz1sX6Jy380+Ytk67j7HR2y3RAgQIAAAQIEBgJ1sTx4c4UXGVmUsgkHLAQOQSB/fE6bzfDCsUvr92Tsfvrr1z73LsjKQWb+lHRtqzlVcrCvXr3SPbN/Bj0nQIDAHglk0sj89bEmdM/P7dzMI/85WggQIECAAAEChyRQF8tjj7l+DzKscKyc9R9SoLW9t5Zbp661z70Msqpi+QHQnwg+wVb+0q+HVgl5JECAwMMKJKjKsMH8Faf+Y8lfI/2cftjzYu8ECBAgQIBAu0D9TjN2C63lxu7H+gQ2KdDablvLrXPstc+9DrKqgrlQyl/2ewc9efz4cRdymUerlDwSIEBgNwIJqdL76t9//x38XM5rP5N3cw7shQABAgQIENieQF13jt1Da7mx+7E+gU0KtLbb1nLrHHvt8yCCrKro9+/fu/Cq/5f/VCRdODP0MBdWuYjKP8NZSs0jAQIE2gTSK7Z+pub2vOkhmz8i9P4D6YaAv3z50lwQbcRKESBAgAABAnsoUL/rjD201nJj92N9ApsUaG23reXWOfba50EFWf0Kp0dA5tHqTwzfq9TgQmv2wmvRet4/G7jx4KENnF4byM/L/vyE89pA/piQUMtEpv3/lTwnQIAAAQIEjkWgfv8ZW5/WcmP3Y30CmxRobbet5dY59trnwQZZ/crnToeZoyU9stIzIPOz1B0jehUV0pyd3kW58++cawPtbSBDBfOzNEO78/M1/8x91f/fx3MCBAgQIEDgGAXq98exdWstd99+vlycTc7Orya/5q74a3J1fjY5v5r/6dwiS978dXW+ZF9LCo756MvF5OzsYvJlTJltrfvranJ+dj655vsyuTjbnGV3yIO6Xm//YgMV3+R5am23reXWOZW1z6MIstaBUJYAAQIECBAgQIAAAQIECJRAXSzX61UfW8vdt/3DCrJWCGsG4c59tV/j8y6kWvBH3QoG9yzI+vXlYnJ+fnvM5xdXky9zMkpB1k0vnTWah6IECBAgQIAAAQIECBAgQOAoBFoDqdZyA7Rl4cvMCJvrnj3Le2R1gcdMuTrO7rECnZuDWD8g2VKQNQicBmKLX9xYLu0BNdjumB5Z1+sOLAfONz3OBqHdcpvrc3U+uZomV9fndl7vtfXP0y1b1eH2ndWetZZbbevz16p96pE138e7BAgQIECAAAECBAgQIHCCAnWxPLbqreXG7me4/vIga7ju8FXX02sm5Vk/IFke1nRHMAh3hse08NUgcFq41vCDrQZZ/V3dBE4zlt0ag7ousVl4rPO3vf55uj3+1nbbWu52z+Of1T4FWePtlCBAgAABAgQIECBAgACBIxWoi+Wx1WstN3c/v75Mri7OJ+eDXj7nk7tDzVqDrPnl1g9IloQ1VdFBuFNvLn/sjmvs/FULw6HevgYB2fWxj59vbH7Y1O1lUNfFNsvcr+s+nFNs2fq92q30tLXdtpZb6aAWrFT7FGQtAPI2AQIECBAgQIAAAQIECJyeQF0sj615a7k7+7kJYM4vvkx+DeZH+jX5ksnYp5OTp+T8QOrONmffWBDyrB2Q1LEvm3x+EO7MHtic17XN89m6z1m3/9ZNuTov9ZiOU11vtGlIuO5k7+sHWfN6x02r0tWjjvH63bXP03Tjk+lN8XpvrfS0PFdaeUMr1T4FWRsCtRkCBAgQIECAAAECBAgQOHyBulgeW5PWcnf2szTomQ2uZl/f2drcNxYFIYven7uReW92x342OZs3zK7WX1q/Wqker3sx1fauA6hh76Ra887jTZC17FAmg5BoQz2yymAalNXxLuqRdc85XBDILb6T5R2JpW+0ttvWcksP5p4Pa5+CrHugfEyAAAECBAgQIECAAAECpyNQF8tja9xa7s5+boKLxT2yzia34cxNb6BpaDLsuXNn290biwObdYOs255OFd7MOYJVg6xfXyYX52eTzmG6mV+TLxcr9szaVZA1DZrm1HlQ13WCrOF5Xfc8TTknemT1LTwnQIAAAQIECBAgQIAAAQIHJ9AaSLWWmws0d46ss8n5+cVkelO7ruA9vXnmbLwLm2buVlirrReQVEB2Nbk464dttfWbx0G4M/NZXt7UPUMoL4aVna7868vVTch1NeMxXWVy3dtqyXF0+7qanE+HatbxD8Zz9jY4/2lndnE1uTqfs69BXRcFWTdDHW/TyeGOuqBMkBWU+o7pkTVsIl4RIECAAAECBAgQIECAwAkL1MXyWILWcvftZ1nwNHaOrC50mQY3d/e8TpB1ve3rXklLtzMId/rHcNPb6vw6wFolTvr15WJyfqfX1s02pz2lzvoByM3zm95Tg5CoJci6DhKTQXV1ng2jBnVdHGQt85r32bz3+pJjnre229ZyY45tdt3a5zTI+u+//2bX8ZoAAQIECBAgQIAAAQIECJyUQF0sj610a7n79rOpIKsLP5b1lEpnqEwmv6C31tLjvAmNbnOcJT3FBuHO0q1u/8M1g6yhV4KqYc+pyaCui4Osxb3H5odrw/2ux9TablvLrXO0tc+zx48fd4nk79+/19mesgQIECBAgAABAgQIECBA4OAF6mJ5bEVay/X3czvH1LxeRDPvdYHTksBouuGaVypD35b3c2oKSDKXVebouk2xrvd8ExLNvj0Md6YHeXhPBiFYVXkmCFw1yKoQMUFYnaMMsTw/mxssNp2nBcKt7ba13ILDWOnt2qcgayUuKxEgQIAAAQIECBAgQIDAKQjUxfLYuraWG7uf4frLg6yaSyrzTV0tz7C6zY4OSCrEWtSLqwtyZvY9CHeGtdnOq2ujOj/3PZ6vBDW/p1QN9ZyGeoO6LumRdVPxGipZxzic6P5WZ/R5ui1651nt684H97zRWu6ezS79uPZ59uzZs65H1vfv35cW8CEBAgQIECBAgAABAgQIEDh2gbpYHlvP1nLz97M8oLots3y93OFvURhyu43bZ2MDkuvg5WqyLCO7s84g3Lnd9/aeLTe63e+icOp2jemzbm6uBfVOT60K9gZ1vT/Imm7/nidjz9OyzbW229Zyy45l2Wd//vzpsqtHjx5NpkHWt2/flpXxGQECBAgQIECAAAECBAgQOHqB1gv01nLzQVcNX+aXbn13kwHJwmMYhDsL19rgB6tajgiyVj26QV0FWauyzVsv02HlO9ZNj/Xy5cvuxdevX+et6z0CBAgQIECAAAECBAgQIHAyAq2BVGu5+bCrhi/zS7e++3BB1nV9y7DpsXpB3an8qpaCrDt0S96oc7RklY1+9PPnzy67evLkyeTs1atX3YuPHz9udCc2RoAAAQIECBAgQIAAAQIEDk2g9QK9tdx8n1XDl/mlW999uCCr9YhXKbeqpSBrFc1aZ7Ptvba6+DGjCLPPbnqsy8tLQdZiK58QIECAAAECBAgQIECAwAkJtF6gt5abTzu2h9LF5Mv8DY1695iDrDo/9z2uNNn7KNVa2dDCkmh5HARZ796964KsBFoWAgQIECBAgAABAgQIECBwygIVdIw1aC03dj/WJ7BJgdZ221qu9dg/f/7cZVfd9Fj9F60bVI4AAQIECBAgQIAAAQIECByDQOsFemu5YzBTh8MVaG23reVapaoT1tu3bydnNWHWv//+27o95QgQIECAAAECBAgQIECAwFEItF6gt5Y7CjSVOFiB1nbbWq4Vqm5U+OnTp8nZf//913XP+t///te6PeUIECBAgAABAgQIECBAgMBRCLReoLeWOwo0lThYgdZ221quFerp06dddvXjx4/JWTbS3b7w7GyS3lkWAgQIECBAgAABAgQIECBwqgKtF+it5U7VWb33Q6C13baWa631P//80wVZXWesbOTFixfdG1+/fm3dpnIECBAgQIAAAQIECBAgQODgBVov0FvLHTyYChy0QGu7bS3XgvXnz58us3r06FFXvOuR9ebNm+7N9+/ft2xTGQIECBAgQIAAAQIECBAgcBQCrRfoVS49RiwEDkUg00yl7Y5dqr2PLdeyfjpdZX/Pnz/vindH++HDh+7NV69etWxTGQIECBAgQIAAAQIECBAgcBQCrRfouYFayn7//v0oHFTi+AX+/v3btdmWOdNbvyctqul0lf2lE1aWLsjqJss6O5s8fvy4ZZvKECBAgAABAgQIECBAgACBoxCoHiq5yB+zpGNILraNdBqjZt2HFPj27VvXZjOR+til5qwaW65l/ZoO6/Pnz13xaf+xOojfv3+3bFcZAgQIECBAgAABAgQIECBw8AKtN0OrXiPPnj07eAMVOA2Bmmbq9evXoytcge/ogg0FKq+qcHkaZFXC9fHjx4bNKkKAAAECBAgQIECAAAECBA5fIEFUelalt8qYJZ1C6oL73bt3Y4pal8DOBTIEtoYHjm3rNfn6Lkb11QjCDN2tZRpkVXpsnqyi8UiAAAECBAgQIECAAAECpyZQQwRbOnl8+vSpCwfSW6Wl/KlZq+/DCCTESgiVIOvy8nL0QVS41DIkcezOKquq+bFSfhpk1YHsIlEbe+DWJ0CAAAECBAgQIECAAAECuxB4+/Ztd4Hf2qsqw7Sqp0vuspbeLu5kuIszZx/3CSTASnBV7TO9nFraZt1F8OXLl/ftcu3Pa/RgzY+VDU6DrLyobpDmyVrb2gYIECBAgAABAgQIECBA4AAFPnz40F3ot8wbVNVNb6y6vq7QwOPZNEBhsVuLms+q755AqyXEShtP+862+r2kqu1v+rG+RzU/VrY/CLKSpuVg3GVh0/S2R4AAAQIECBAgQIAAAQKHIFC9TdITZJ3l58+fkwxTrDm3+iGC57sNcnhfe6cHVtp12vg6y7q9Flfdd3ph5dz158dK2UGQtWilVXdiPQIECBAgQIAAAQIECBAgcMgCCaBy8fzo0aNDroZjJ7A1gQpnMyfcNpcaVpjgrL8Mgqx0K8uXNV/afHktBAgQIECAAAECBAgQIEDg1ARqIuyxd3M7NSf1PT2BDPHLUMX86w/327RE7Sf51Oz0V4MgKzvOGMes2DJz/aYP3PYIECBAgAABAgQIECBAgMCuBVwX71rc/g5FoO7MmV5Z21xqrrp5+7kTZNXdC3Wj3OYpsW0CBAgQIECAAAECBAgQ2FeB9MRKB48nT57s6yE6LgIPIrCrudWfPn3afQczsfzscifIygqZSCtf2nUnAJvdmdcECBAgQIAAAQIECBAgQOAQBOpuabPDmg7h2B0jgW0IZDqqXXwvap66DF+cd2fFuUFW7lqYIGvduzRsA842CRAgQIAAAQIECBAgQIDAtgVyx8FcF797927bu7J9AgchUD0VZ+8iuOmDr7si5js4b5kbZP3586ebuCtf2gw1tBAgQIAAAQIECBAgQIAAgVMS+Pz5cxdkZdqdeb1CTslCXQlEYNFdBDep078J4aKbLcwNsnIQNbmdXlmbPCW2RYAAAQIECBAgQIAAAQKHIlDT7mTUkoXAKQtk6ql0dspwv3R+2tZSIwSX9fpaGGTplbWt02K7BAgQIECAAAECBAgQIHAIAv1eWX///j2EQ3aMBLYiUKHuNofa9ntj5bu3aFkYZKVAjQnOrPQWAgQIECBAgAABAgQIECBwagLPnj3reqJk1JKFwCkK9APdbQ6zXaU3VvyXBlmZH2sXXcdOsSGoMwECBAgQIECAAAECBAjsv4Dr4v0/R45wewL9XlLbHGLb38+y3lip6dIgKyvUZF7S5+01DFsmQIAAAQIECBAgQIAAgf0VqOtic0jv7zlyZNsRuLy87Do4LZuzahN7XrU3VvZ1b5DVT5/dwXATp8c2CBAgQIAAAQIECBAgQOCQBH7+/Dn5559/ugv6XNhbCJyCQA0pzEi9RXcQ3ITDmN5Y2d+9QVZWev36dfeFzdhgCwECBAgQIECAAAECBAgQODWBumtbLurvG/p0ajbqe3wC6ciUOxSmvW9zSGHkMgIw+1m119dKQVbuYPjo0aNuw58+fTq+M6RGBAgQIECAAAECBAgQIEDgHoHcsS0X3LnAN2LpHiwfH6xAMqDHjx93bX3bN//rB2arfqdWCrKi/+HDh64SCbS2OUv9wZ5pB06AAAECBAgQIECAAAECRy+QC/uEWbnQzwW/hcAxCSTvqTt1Pn36dOv5T/aR79OYedlXDrJyYlp2cEwnVF0IECBAgAABAgQIECBA4LQFcqGfIVC5+H7y5Mkk82dZCByDwN+/f6chVjox/f79e6vV+vjx47TDVPa96jIqyEo3L90oV6W1HgECBAgQIECAAAECBAgco0Au8BNi5fo4k8CbM+sYz/Jp1Sl5Tw0nTJtedZhfq1KCq9YprEYFWTnAmoQrX1pDDFtPmXIECBAgQIAAAQIECBAgcMgCuRB/8eJFF2Yl0Nr2hNiHbOXY91sgQWxN7J7ehtvuiRWN+u603FRwdJCV8KqS51evXu332XB0BAgQIECAAAECBAgQIEBgiwJv376dhlmZP2vMEKktHpZNE1hJYLb97qLDUs3Bnp5fLaHZ6CArEhkDXGldxjRaCBAgQIAAAQIECBAgQIDAqQr0e7RkuFR6Z+0iEDhVb/VeXyBttoYS7rJHYT9Pah2S2xRkhawm5UqgZXK79RuRLRAgQIAAAQIECBAgQIDA4QpkTqG6QVqCgYQEnz59OtwKOfKjFPj27duddvr169ed1LU/wm/MXQpnD645yMqGMrQwX1DzZc2yek2AAAECBAgQIECAAAECpyiQXiY1HU+ulzPnkEDrFFvCftU5AVbNS5V2WT0Hd3mUm8qQ1gqy+mlaxgJbCBAgQIAAAQIECBAgQIAAgckk8wDVXdkSHGQ0U66bM7rJPFpayLYFktckVE14NNsOMy/WrttgzYu1iVF9awVZgc+wwkzQlS/mOl3Dtn0SbZ8AAQIECBAgQIAAAQIECOxSIGFCLuDTKyvXzP1/uVtbAoX01kpvmQxNtBBoEciE6WlDGSKYNpWeVzWvebW5DHW9vLyc/Pnzp2UXa5VJG6/j2ETvxLWDrNQmYIX07t27tSqoMAECBAgQIECAAAECBAgQODaBBAgJtfrDu+rifvax34Nm9jOvh4HgqXokmKocZpFBAtRkNA85r3nCtTrOTeVFGwmy8gMmXdYKz50Mj+1HrvoQIECAAAECBAgQIECAwKYEMqwrPVPSe+b169eT9M7Kv7rgr2trj0KrVdpAbjKQ9pNhhGlTCUwfoufV7PcjvQxrBF96g21q2ViQlQPqj3nc1az3m4KwHQIECBAgQIAAAQIECBAgQIAAgfUFMtyxQqwEbJtcNhpk5cCS/iUxTJIszNrkqbItAgQIECBAgAABAgQIECBAgMB+CyTEytDHZEPPnz/f+MFuPMjKEdYtFRNmbWIir43X2gYJECBAgAABAgQIECBAgAABAgQ2KtAfTpgQKzc82PSylSArB5nxjzWW8/3795s+btsjQIAAAQIECBAgQIAAAQIECBDYE4GMyqvhhNsKsVLVrQVZ2XgCrAqzNjmx156cI4dBgAABAgQIECBAgAABAgQIEDh5gYzGq5sVbHpOrFncrQZZ2VnuYLirysxWzmsCBAgQIECAAAECBAgQIECAAIHtCST3qU5Mb9682d6Obra89SAr++l3L8ttITPxl4UAAQIECBAgQIAAAQIECBAgQOAwBTL/Vc2RniDr3bt3O6nIToKs1CQTftWs9Rkz+fnz551U0E4IECBAgAABAgQIECBAgAABAgQ2J/Dz58/JkydPup5Yu77R386CrHD9/ft38uLFi0GXs23MYL+5U2NLBAgQIECAAAECBAgQIECAAAECJdCfQiphVkKtXS47DbKqYh8+fJjOm/Xvv//uvNJ1HB4JECBAgAABAgQIECBAgAABAgTuF0jnpJcvX047J71+/XryEJ2THiTICk+GGva7ob19+/ZBAO4/VdYgQIAAAQIECBAgQIAAAQIECJyuQO5K+OjRoy7EynRRef1Qy4MFWanw7MRgCbYyMbyFAAECBAgQIECAAAECBAgQIEDgYQUybPDZs2fTXlj7cAO/Bw2y6nR8//592jsrM92nq9qfP3/qY48ECBAgQIAAAQIECBAgQIAAAQI7EkjHo8vLy+m0UOmFlbmx9mHZiyCrIHKrxsx2nzArSHn9EOMt63g8EiBAgAABAgQIECBAgAABAgROSSCBVQ0jTD6TubAyP9a+LHsVZAUlPbGeP38+7bYWvARa+4S2LyfPcRAgQIAAAQIECBAgQIAAAQIE1hVIJ6LcmO/x48fTPCY358sIun1b9i7IKqDMlRW0pH/VQysTwgu0SsgjAQIECBAgQIAAAQIECBAgQKBdIAHW+/fvBz2wEmbtyzDCeTXb2yCrDvbbt2+DicUy5PDNmzeTTDhmIUCAAAECBAgQIECAAAECBAgQGCfw+/fvbvRbfwhhbsC3zwFW1XDvg6w60ARaL168mPbQSi+tICc5NDF8KXkkQIAAAQIECBAgQIAAAQIECNwVSO+rBFX9uxAmW8louM+fP98tsKfvHEyQVX4/fvyYvHr1qpsMvoYd5jHzauWEmBy+pDwSIECAAAECBAgQIECAAAECpy6QqZuSo9TN9SpLefny5SSfHdpycEFWASew+vTp051eWjkxCbUyQfw+TkpWx++RAAECBAgQIECAAAECBAgQILBpgUzFlInbE1T1hw4mwHr69Gn32SHPP36wQVb/RGdoYU5ShhpWsliP/WArwxMP+WT16+w5AQIECBAgQIAAAQIECBAgQCBZx6LgKtlIJm+/vLw8mrnGjyLI6jfbhFrpqfX69eu5wVZOYsKtjAlN17rcCTEnvf6ZRL6v6TkBAgQIECBAgAABAgQIECDwUALJOCqvyGPmCc8N8JJpzPa2qg49Ca6Sd2T6pUzqfmzL0QVZsyeoH2zlROeuh3VyPZ6xOGPge6ANaAPagDagDWgD2oA2oA1oA9qANnCYbaDfUedYg6vZnOfog6zZCud15tdKkpmTnB5ZmVMrIVf+Jbn0BT7ML7Dz5rxpA9qANqANaAPagDagDWgD2oA2oA0cUxtIZ5zKK/KYDCPDCJNpnOrUSf8Hdk70WghkQ0kAAAAASUVORK5CYII=;" vertex="1" parent="1">
          <mxGeometry x="960" y="-98" width="1202" height="436" as="geometry" />
        </mxCell>
        <mxCell id="FfI-ePWVMSBxA9gAXKT8-29" value="" style="endArrow=classic;startArrow=classic;html=1;exitX=1;exitY=0.5;exitDx=0;exitDy=0;entryX=0;entryY=0.5;entryDx=0;entryDy=0;" edge="1" parent="1" source="KU7kqvRFh3p7BppwBaGI-31" target="FfI-ePWVMSBxA9gAXKT8-28">
          <mxGeometry width="50" height="50" relative="1" as="geometry">
            <mxPoint x="940" y="110" as="sourcePoint" />
            <mxPoint x="990" y="60" as="targetPoint" />
          </mxGeometry>
        </mxCell>
      </root>
    </mxGraphModel>
  </diagram>
</mxfile>
